SplineFontDB: 3.0
FontName: Pecita
FullName: Pecita
FamilyName: Pecita
Weight: Book
Copyright: Copyright (c) 2009-2015, Philippe Cochy,,,(http://pecita.eu),\nwith Reserved Font Name Pecita.
UComments: "This font reproduces my writing.+AAoA-Please visit http://pecita.eu+AAoA-Cette police reproduit mon ecriture.+AAoA-Je vous propose de visiter le site http://pecita.eu"
FontLog: "V1R0M0, 25 jan 2009, registering the OFL SIL license with status -not finalized-.+AAoA-V2R0M0, 05 avr 2009, thickening of glyphs, change weight to Medium; adding of some Greek characters.+AAoA-V2R1M0, 03 may 2009, review of all glyphs for a better homogeneity.+AAoA-V2R2M0, 24 may 2009, all glyphs in the unicode range Basic Latin, Latin-1 supplement, Latin Extended-A and more.+AAoA-V2R7M0, 30 jun 2011, lookup smcp, subs and sups. Additions.+AAoA-V3R0M0, 21 jul 2011, lookup tables calt & rand, reorganization.+AAoA-V3R2M4, 25 dec 2011, version pour Debian. Additions.+AAoA-V3R2M5, 22 jan 2012, calt for accented lowercase vowels.+AAoA-V3R3M1, 26 feb 2012, replacement of ligatures by calt for caps.+AAoA-V3R3M2, 01 may 2012, ligatures+-contextuals additions.+AAoA-V3R4M0, 30 jul 2012, changes the pattern of attachments.+AAoA-V4R0M0, 01 nov 2012, A rewrite from scratch, based on calt.+AAoA-V4R0M1, 01 apr 2013, Biggest flaws of the version corrected.+AAoA-V4R0M2, 18 apr 2013, sups and sups metrics modified.+AAoA-V4R1, 28 apr 2013, fix problems.+AAoA-V4R2, 19 jan 2014, implement calt caps.+AAoA-V4R3, 26 may 2014, improve EVERY non basic letters.+AAoA-V5R0, 16 sep 2014, implement ccmp & GPOS.+AAoA-V5R1, 23 aug 2015, review all marks.+AAoA-V5R2, 07 sep 2015, modify arabic numbers.+AAoA-V5R3, 01 apr 2016, add polish.+AAoA-V5R4, 21 oct 2016, corrects g_a direction."
Version: 5.4
ItalicAngle: 0
UnderlinePosition: -260
UnderlineWidth: 60
Ascent: 660
Descent: 340
InvalidEm: 0
LayerCount: 2
Layer: 0 0 "Back" 1
Layer: 1 0 "Fore" 0
XUID: [1021 574 1503561856 15561579]
UniqueID: 4185077
FSType: 0
OS2Version: 4

StartChar: dotlessi.I
Encoding: 57344 57344 0
Width: 290
VWidth: 30
GlyphClass: 2
Flags: HMW
LayerCount: 2
Fore
SplineSet
220 40 m 0
 199 33 180 30 160 30 c 3
 100 30 70 80 70 140 c 3
 70 170 74 230 90 300 c 1024
EndSplineSet
EndChar

StartChar: dotlessi.I_
Encoding: 57376 57376 2
Width: 160
VWidth: 30
GlyphClass: 2
Flags: HMW
AnchorPoint: "top" 120 390 basechar 0
AnchorPoint: "middle" 120 160 basechar 0
AnchorPoint: "bottom" 120 -70 basechar 0
LayerCount: 2
Fore
SplineSet
190 30 m 3
 100 30 70 80 70 170 c 3
 70 190 72 230 80 270 c 1024
EndSplineSet
Substitution2: "cyrl aalt XI_-1" dotlessi.XI_
Substitution2: "cyrl aalt VI_-1" dotlessi.VI_
Substitution2: "cyrl aalt _I_-1" dotlessi._I_
Substitution2: "'aalt' _I_-1" dotlessi._I_
Substitution2: "'aalt' VI_-1" dotlessi.VI_
Substitution2: "'aalt' XI_-1" dotlessi.XI_
EndChar

StartChar: dotlessi._I
Encoding: 57408 57408 3
Width: 540
VWidth: 0
GlyphClass: 2
Flags: HMW
AnchorPoint: "bottom" 340 -70 basechar 0
AnchorPoint: "middle" 330 160 basechar 0
AnchorPoint: "top" 340 360 basechar 0
LayerCount: 2
Fore
SplineSet
470 50 m 1
 450 35 430 30 410 30 c 3
 320 30 300 150 300 240 c 1
 250 140 130 30 30 30 c 1027
EndSplineSet
Substitution2: "cyrl aalt _I_-1" dotlessi._I_
Substitution2: "'aalt' _I_-1" dotlessi._I_
EndChar

StartChar: dotlessi._I_
Encoding: 57440 57440 4
Width: 410
VWidth: 0
GlyphClass: 2
Flags: HMW
AnchorPoint: "bottom" 340 -70 basechar 0
AnchorPoint: "middle" 330 160 basechar 0
AnchorPoint: "top" 340 360 basechar 0
LayerCount: 2
Fore
SplineSet
440 30 m 3
 330 30 300 130 300 240 c 1
 250 140 130 30 30 30 c 1027
EndSplineSet
EndChar

StartChar: dotlessi.VI
Encoding: 57472 57472 5
Width: 380
VWidth: 30
GlyphClass: 2
Flags: HMW
AnchorPoint: "bottom" 210 -70 basechar 0
AnchorPoint: "middle" 200 160 basechar 0
AnchorPoint: "top" 210 360 basechar 0
LayerCount: 2
Fore
SplineSet
310 40 m 0
 289 33 270 30 250 30 c 3
 190 30 160 80 160 140 c 3
 160 161 163 197 170 240 c 1
 170 240 100 210 30 210 c 1024
EndSplineSet
Substitution2: "cyrl aalt VI_-1" dotlessi.VI_
Substitution2: "'aalt' VI_-1" dotlessi.VI_
EndChar

StartChar: dotlessi.VI_
Encoding: 57504 57504 6
Width: 250
VWidth: 30
GlyphClass: 2
Flags: HMW
AnchorPoint: "bottom" 210 -70 basechar 0
AnchorPoint: "middle" 200 160 basechar 0
AnchorPoint: "top" 210 360 basechar 0
LayerCount: 2
Fore
SplineSet
280 30 m 3
 190 30 160 80 160 170 c 3
 160 190 163 219 170 240 c 1
 170 240 100 210 30 210 c 1024
EndSplineSet
EndChar

StartChar: a.I
Encoding: 57346 57346 7
Width: 440
VWidth: 30
Flags: HMW
LayerCount: 2
Fore
SplineSet
320 250 m 17
 310 280 280 300 250 300 c 3
 160 300 70 200 70 110 c 3
 70 65 95 30 140 30 c 3
 210 30 280 75 340 150 c 1
 340 100 350 60 370 30 c 1025
EndSplineSet
EndChar

StartChar: a.I_
Encoding: 57378 57378 8
Width: 410
VWidth: 30
Flags: HMW
AnchorPoint: "bottom" 220 -70 basechar 0
AnchorPoint: "middle" 220 160 basechar 0
AnchorPoint: "top" 250 390 basechar 0
LayerCount: 2
Fore
SplineSet
320 250 m 17
 310 280 280 300 250 300 c 3
 160 300 70 200 70 110 c 3
 70 65 95 30 140 30 c 3
 220 30 310 100 340 190 c 1
 340 120 360 30 440 30 c 1025
EndSplineSet
Substitution2: "cyrl aalt XI_-1" a.XI_
Substitution2: "cyrl aalt VI_-1" a.VI_
Substitution2: "cyrl aalt _I_-1" a._I_
Substitution2: "'aalt' XI_-1" a.XI_
Substitution2: "'aalt' VI_-1" a.VI_
Substitution2: "'aalt' _I_-1" a._I_
EndChar

StartChar: a._I
Encoding: 57410 57410 9
Width: 570
VWidth: 30
Flags: HMW
AnchorPoint: "bottom" 350 -70 basechar 0
AnchorPoint: "middle" 350 160 basechar 0
AnchorPoint: "top" 380 390 basechar 0
LayerCount: 2
Fore
SplineSet
450 250 m 17
 440 280 410 300 380 300 c 3
 290 300 200 200 200 110 c 3
 200 65 225 30 270 30 c 3
 340 30 410 75 470 150 c 1
 470 100 480 60 500 30 c 1025
208 158 m 0
 188 98 110 30 30 30 c 1027
EndSplineSet
Substitution2: "cyrl aalt _I_-1" a._I_
Substitution2: "'aalt' _I_-1" a._I_
EndChar

StartChar: a._I_
Encoding: 57442 57442 10
Width: 540
VWidth: 30
Flags: HMW
AnchorPoint: "bottom" 350 -70 basechar 0
AnchorPoint: "middle" 350 160 basechar 0
AnchorPoint: "top" 380 390 basechar 0
LayerCount: 2
Fore
SplineSet
570 30 m 1
 490 30 470 120 470 190 c 1
 440 100 350 30 270 30 c 3
 225 30 200 65 200 110 c 3
 200 200 290 300 380 300 c 3
 410 300 440 280 450 250 c 1033
208 158 m 0
 188 98 110 30 30 30 c 1027
EndSplineSet
EndChar

StartChar: a.VI
Encoding: 57474 57474 11
Width: 470
VWidth: 30
Flags: HMW
AnchorPoint: "bottom" 250 -70 basechar 0
AnchorPoint: "middle" 250 160 basechar 0
AnchorPoint: "top" 280 390 basechar 0
LayerCount: 2
Fore
SplineSet
350 250 m 17
 340 280 310 300 280 300 c 3
 190 300 100 200 100 110 c 3
 100 65 125 30 170 30 c 3
 240 30 310 75 370 150 c 1
 370 100 380 60 400 30 c 1025
150 232 m 1
 150 232 100 210 30 210 c 1024
EndSplineSet
Substitution2: "cyrl aalt VI_-1" a.VI_
Substitution2: "'aalt' VI_-1" a.VI_
EndChar

StartChar: a.VI_
Encoding: 57506 57506 12
Width: 440
VWidth: 30
Flags: HMW
AnchorPoint: "bottom" 260 -70 basechar 0
AnchorPoint: "middle" 250 160 basechar 0
AnchorPoint: "top" 280 390 basechar 0
LayerCount: 2
Fore
SplineSet
470 30 m 1
 390 30 370 120 370 190 c 1
 340 100 250 30 170 30 c 3
 125 30 100 65 100 110 c 3
 100 200 190 300 280 300 c 3
 310 300 340 280 350 250 c 1033
150 232 m 1
 150 232 100 210 30 210 c 1024
EndSplineSet
EndChar

StartChar: dotlessi.XI
Encoding: 57536 57536 13
Width: 770
VWidth: 0
GlyphClass: 2
Flags: HMW
AnchorPoint: "bottom" 570 -70 basechar 0
AnchorPoint: "middle" 560 160 basechar 0
AnchorPoint: "top" 570 360 basechar 0
LayerCount: 2
Fore
SplineSet
700 50 m 1
 680 35 660 30 640 30 c 3
 550 30 530 150 530 240 c 1
 530 240 70 -20 70 -250 c 1027
EndSplineSet
Substitution2: "cyrl aalt XI_-1" dotlessi.XI_
Substitution2: "'aalt' XI_-1" dotlessi.XI_
EndChar

StartChar: dotlessi.XI_
Encoding: 57568 57568 14
Width: 640
VWidth: 0
GlyphClass: 2
Flags: HMW
AnchorPoint: "bottom" 570 -70 basechar 0
AnchorPoint: "middle" 560 160 basechar 0
AnchorPoint: "top" 570 360 basechar 0
LayerCount: 2
Fore
SplineSet
670 30 m 3
 560 30 530 130 530 240 c 1
 530 240 70 -20 70 -250 c 1027
EndSplineSet
EndChar

StartChar: e._I_
Encoding: 57446 57446 15
Width: 340
VWidth: 0
Flags: HMW
AnchorPoint: "bottom" 290 -70 basechar 0
AnchorPoint: "middle" 270 190 basechar 0
AnchorPoint: "top" 290 390 basechar 0
LayerCount: 2
Fore
SplineSet
30 30 m 3
 170 30 360 120 360 230 c 3
 360 270 330 300 290 300 c 3
 220 300 170 240 170 170 c 3
 170 70 270 30 370 30 c 1024
EndSplineSet
EndChar

StartChar: e._I
Encoding: 57414 57414 16
Width: 490
VWidth: 0
Flags: HMW
AnchorPoint: "bottom" 290 -70 basechar 0
AnchorPoint: "middle" 270 190 basechar 0
AnchorPoint: "top" 290 390 basechar 0
LayerCount: 2
Fore
SplineSet
420 60 m 1
 370 35 340 30 300 30 c 3
 220 30 170 90 170 170 c 3
 170 240 220 300 290 300 c 3
 330 300 360 270 360 230 c 3
 360 120 170 30 30 30 c 1027
EndSplineSet
Substitution2: "cyrl aalt _I_-1" e._I_
Substitution2: "'aalt' _I_-1" e._I_
EndChar

StartChar: e.I_
Encoding: 57382 57382 17
Width: 240
VWidth: 0
Flags: HMW
AnchorPoint: "bottom" 190 -70 basechar 0
AnchorPoint: "middle" 170 190 basechar 0
AnchorPoint: "top" 190 390 basechar 0
LayerCount: 2
Fore
SplineSet
270 30 m 3
 170 30 70 70 70 170 c 3
 70 240 120 300 190 300 c 3
 230 300 260 270 260 230 c 3
 260 160 180 90 110 90 c 1027
EndSplineSet
Substitution2: "cyrl aalt _I_-1" e._I_
Substitution2: "cyrl aalt XI_-1" e.XI_
Substitution2: "cyrl aalt VI_-1" e.VI_
Substitution2: "'aalt' XI_-1" e.XI_
Substitution2: "'aalt' VI_-1" e.VI_
Substitution2: "'aalt' _I_-1" e._I_
EndChar

StartChar: e.I
Encoding: 57350 57350 18
Width: 390
VWidth: 0
Flags: HMW
LayerCount: 2
Fore
SplineSet
320 60 m 1
 270 35 240 30 200 30 c 3
 120 30 70 90 70 170 c 3
 70 240 120 300 190 300 c 3
 230 300 260 270 260 230 c 3
 260 160 180 90 110 90 c 1027
EndSplineSet
EndChar

StartChar: e.XI
Encoding: 57542 57542 19
Width: 730
VWidth: 0
Flags: HMW
AnchorPoint: "bottom" 530 -70 basechar 0
AnchorPoint: "middle" 510 190 basechar 0
AnchorPoint: "top" 530 390 basechar 0
LayerCount: 2
Fore
SplineSet
660 60 m 1
 610 35 580 30 540 30 c 3
 460 30 410 90 410 170 c 3
 410 240 460 300 530 300 c 3
 570 300 600 270 600 230 c 3
 600 50 70 0 70 -250 c 1024
EndSplineSet
Substitution2: "cyrl aalt XI_-1" e.XI_
Substitution2: "'aalt' XI_-1" e.XI_
EndChar

StartChar: e.VI
Encoding: 57478 57478 20
Width: 400
VWidth: 0
Flags: HMW
AnchorPoint: "bottom" 200 -70 basechar 0
AnchorPoint: "middle" 180 220 basechar 0
AnchorPoint: "top" 210 440 basechar 0
LayerCount: 2
Fore
SplineSet
330 40 m 1
 302 33 290 30 260 30 c 3
 160 30 80 100 80 200 c 3
 80 280 130 360 210 360 c 3
 250 360 290 340 290 300 c 3
 290 260 250 210 80 210 c 3
 59 210 56 210 30 210 c 1027
EndSplineSet
Substitution2: "cyrl aalt VI_-1" e.VI_
Substitution2: "'aalt' VI_-1" e.VI_
EndChar

StartChar: e.VI_
Encoding: 57510 57510 21
Width: 270
VWidth: 0
Flags: HMW
AnchorPoint: "bottom" 200 -70 basechar 0
AnchorPoint: "middle" 180 220 basechar 0
AnchorPoint: "top" 210 440 basechar 0
LayerCount: 2
Fore
SplineSet
30 210 m 3
 56 210 59 210 80 210 c 3
 250 210 290 260 290 300 c 3
 290 340 250 360 210 360 c 3
 130 360 80 280 80 200 c 3
 80 95 195 30 300 30 c 1024
EndSplineSet
EndChar

StartChar: e.XI_
Encoding: 57574 57574 22
Width: 580
VWidth: 0
Flags: HMW
AnchorPoint: "bottom" 530 -70 basechar 0
AnchorPoint: "middle" 510 190 basechar 0
AnchorPoint: "top" 530 390 basechar 0
LayerCount: 2
Fore
SplineSet
610 30 m 3
 510 30 410 70 410 170 c 3
 410 240 460 300 530 300 c 3
 570 300 600 270 600 230 c 3
 600 50 70 0 70 -250 c 1027
EndSplineSet
EndChar

StartChar: f.I
Encoding: 57351 57351 23
Width: 400
VWidth: 0
GlyphClass: 2
Flags: HMW
LayerCount: 2
Fore
SplineSet
200 -310 m 1
 170 -250 140 0 140 230 c 3
 140 350 154 460 178 520 c 0
 198 570 220 600 260 600 c 3
 300 600 330 550 330 490 c 3
 330 410 300 320 220 240 c 1032
310 40 m 0
 240 40 110 0 70 -40 c 1024
EndSplineSet
EndChar

StartChar: f.XIX
Encoding: 57575 57575 24
Width: 400
VWidth: 0
GlyphClass: 2
Flags: HMW
AnchorPoint: "top" 750 590 basechar 0
AnchorPoint: "middle" 550 410 basechar 0
AnchorPoint: "bottom" 530 -270 basechar 0
LayerCount: 2
Fore
SplineSet
70 -250 m 3
 70 -140 150 -40 310 90 c 0
 470 220 670 398 670 520 c 3
 670 573 648 630 595 630 c 3
 555 630 535 595 520 550 c 0
 480 430 470 -140 470 -250 c 1027
EndSplineSet
EndChar

StartChar: f.XI
Encoding: 57543 57543 25
Width: 840
VWidth: 0
GlyphClass: 2
Flags: HMW
AnchorPoint: "bottom" 540 -270 basechar 0
AnchorPoint: "middle" 550 410 basechar 0
AnchorPoint: "top" 750 590 basechar 0
LayerCount: 2
Fore
SplineSet
770 60 m 0
 610 -70 530 -180 530 -280 c 1
 500 -220 470 20 470 130 c 3
 470 290 484 420 524 540 c 0
 539 585 565 620 600 620 c 3
 653 620 670 563 670 510 c 3
 670 390 470 220 310 90 c 0
 150 -40 70 -140 70 -250 c 1027
EndSplineSet
Substitution2: "'aalt' XIX-1" f.XIX
EndChar

StartChar: f.IX
Encoding: 57383 57383 26
Width: 0
VWidth: 0
GlyphClass: 2
Flags: HMW
AnchorPoint: "top" 350 590 basechar 0
AnchorPoint: "middle" 150 410 basechar 0
AnchorPoint: "bottom" 140 -270 basechar 0
LayerCount: 2
Fore
SplineSet
70 -250 m 3
 70 -285 95 -310 130 -310 c 3
 200 -310 230 -240 230 -170 c 3
 230 -30 100 250 100 390 c 3
 100 470 120 600 200 600 c 3
 255 600 270 535 270 480 c 3
 270 390 220 280 140 200 c 1032
EndSplineSet
Substitution2: "'aalt' XIX-1" f.XIX
Substitution2: "'aalt' VIX-1" f.VIX
Substitution2: "'aalt' _IX-1" f._IX
EndChar

StartChar: f._I
Encoding: 57415 57415 27
Width: 510
VWidth: 0
GlyphClass: 2
Flags: HMW
AnchorPoint: "top" 520 590 basechar 0
AnchorPoint: "middle" 320 410 basechar 0
AnchorPoint: "bottom" 300 -270 basechar 0
LayerCount: 2
Fore
SplineSet
380 -70 m 0
 290 -70 230 -80 140 -110 c 1024
30 30 m 3
 200 30 440 350 440 520 c 3
 440 570 420 630 370 630 c 3
 335 630 309 595 294 550 c 0
 254 430 240 290 240 130 c 3
 240 20 270 -250 300 -310 c 1025
EndSplineSet
Substitution2: "'aalt' _IX-1" f._IX
EndChar

StartChar: f._IX
Encoding: 57447 57447 28
Width: 170
VWidth: 0
GlyphClass: 2
Flags: HMW
AnchorPoint: "bottom" 300 -270 basechar 0
AnchorPoint: "middle" 320 410 basechar 0
AnchorPoint: "top" 520 590 basechar 0
LayerCount: 2
Fore
SplineSet
30 30 m 3
 230 30 440 320 440 520 c 3
 440 570 420 630 370 630 c 3
 330 630 302 598 290 550 c 0
 260 430 240 190 240 -250 c 1024
EndSplineSet
EndChar

StartChar: f.VI
Encoding: 57479 57479 29
Width: 380
VWidth: 0
Flags: HMW
AnchorPoint: "bottom" 170 -270 basechar 0
AnchorPoint: "middle" 190 410 basechar 0
AnchorPoint: "top" 390 590 basechar 0
LayerCount: 2
Fore
SplineSet
300 30 m 0
 210 30 150 20 60 -10 c 1024
160 -310 m 1
 130 -250 100 0 100 110 c 3
 100 270 124 430 164 550 c 0
 179 595 205 630 240 630 c 3
 290 630 310 570 310 520 c 3
 310 380 170 210 30 210 c 1024
EndSplineSet
Substitution2: "'aalt' VIX-1" f.VIX
EndChar

StartChar: f.VIX
Encoding: 57511 57511 30
Width: 0
VWidth: 0
GlyphClass: 2
Flags: HMW
AnchorPoint: "bottom" 140 -270 basechar 0
AnchorPoint: "middle" 150 410 basechar 0
AnchorPoint: "top" 350 590 basechar 0
LayerCount: 2
Fore
SplineSet
30 210 m 3
 160 210 270 350 270 480 c 3
 270 535 255 600 200 600 c 3
 120 600 100 470 100 390 c 3
 100 250 230 -30 230 -170 c 3
 230 -240 200 -310 130 -310 c 3
 95 -310 70 -285 70 -250 c 1027
EndSplineSet
EndChar

StartChar: v.I
Encoding: 57367 57367 35
Width: 520
VWidth: 0
GlyphClass: 2
Flags: HMW
LayerCount: 2
Fore
SplineSet
450 260 m 1
 440 280 425 300 400 300 c 3
 360 300 330 250 310 200 c 0
 280 125 240 30 170 30 c 3
 100 30 80 140 70 240 c 1025
EndSplineSet
EndChar

StartChar: v.IV
Encoding: 57399 57399 37
Width: 430
VWidth: 0
GlyphClass: 2
Flags: HMW
AnchorPoint: "top" 250 390 basechar 0
AnchorPoint: "middle" 220 160 basechar 0
AnchorPoint: "bottom" 220 -70 basechar 0
LayerCount: 2
Fore
SplineSet
460 210 m 0
 400 210 375 240 360 300 c 1
 340 200 260 30 190 30 c 3
 130 30 100 120 70 270 c 1025
EndSplineSet
Substitution2: "'aalt' _IV-1" v._IV
Substitution2: "'aalt' VIV-1" v.VIV
Substitution2: "'aalt' XIV-1" v.XIV
EndChar

StartChar: v._I
Encoding: 57431 57431 38
Width: 660
VWidth: 0
GlyphClass: 2
Flags: HMW
AnchorPoint: "top" 390 390 basechar 0
AnchorPoint: "middle" 360 160 basechar 0
AnchorPoint: "bottom" 360 -70 basechar 0
LayerCount: 2
Fore
SplineSet
590 260 m 1
 580 280 565 300 540 300 c 3
 500 300 470 250 450 200 c 0
 420 125 380 30 310 30 c 3
 240 30 220 140 210 240 c 1
 203 170 130 30 30 30 c 1024
EndSplineSet
Substitution2: "'aalt' _IV-1" v._IV
EndChar

StartChar: v._IV
Encoding: 57463 57463 39
Width: 570
VWidth: 0
GlyphClass: 2
Flags: HMW
AnchorPoint: "bottom" 360 -70 basechar 0
AnchorPoint: "middle" 360 160 basechar 0
AnchorPoint: "top" 390 390 basechar 0
LayerCount: 2
Fore
SplineSet
600 210 m 0
 540 210 515 240 500 300 c 1
 480 200 400 30 330 30 c 3
 270 30 240 120 210 270 c 1
 203 200 130 30 30 30 c 1024
EndSplineSet
EndChar

StartChar: v.VI
Encoding: 57495 57495 40
Width: 550
VWidth: 0
GlyphClass: 2
Flags: HMW
AnchorPoint: "bottom" 250 -70 basechar 0
AnchorPoint: "middle" 250 160 basechar 0
AnchorPoint: "top" 280 390 basechar 0
LayerCount: 2
Fore
SplineSet
480 260 m 1
 470 280 455 300 430 300 c 3
 390 300 360 250 340 200 c 0
 310 125 270 30 200 30 c 3
 162 30 148 70 130 115 c 0
 112 160 100 210 30 210 c 1024
EndSplineSet
Substitution2: "'aalt' VIV-1" v.VIV
EndChar

StartChar: v.VIV
Encoding: 57527 57527 41
Width: 460
VWidth: 0
GlyphClass: 2
Flags: HMW
AnchorPoint: "top" 280 390 basechar 0
AnchorPoint: "middle" 250 160 basechar 0
AnchorPoint: "bottom" 250 -70 basechar 0
LayerCount: 2
Fore
SplineSet
490 210 m 0
 430 210 405 240 390 300 c 1
 370 200 290 30 220 30 c 3
 170 30 155 80 140 130 c 0
 128 170 100 210 30 210 c 1024
EndSplineSet
EndChar

StartChar: v.XI
Encoding: 57559 57559 42
Width: 890
VWidth: 0
GlyphClass: 2
Flags: HMW
AnchorPoint: "top" 610 390 basechar 0
AnchorPoint: "middle" 580 160 basechar 0
AnchorPoint: "bottom" 580 -70 basechar 0
LayerCount: 2
Fore
SplineSet
820 260 m 1
 810 280 795 300 770 300 c 3
 730 300 700 250 680 200 c 0
 650 125 610 30 540 30 c 3
 470 30 450 140 440 240 c 1
 340 160 70 -80 70 -250 c 1027
EndSplineSet
Substitution2: "'aalt' XIV-1" v.XIV
EndChar

StartChar: v.XIV
Encoding: 57591 57591 43
Width: 800
VWidth: 0
GlyphClass: 2
Flags: HMW
AnchorPoint: "bottom" 580 -70 basechar 0
AnchorPoint: "middle" 580 160 basechar 0
AnchorPoint: "top" 610 390 basechar 0
LayerCount: 2
Fore
SplineSet
830 210 m 0
 770 210 745 240 730 300 c 1
 710 200 630 30 560 30 c 3
 500 30 470 120 440 270 c 1
 340 190 70 -80 70 -250 c 1027
EndSplineSet
EndChar

StartChar: a.XI
Encoding: 57538 57538 53
Width: 800
VWidth: 30
Flags: HMW
AnchorPoint: "bottom" 580 -70 basechar 0
AnchorPoint: "middle" 580 160 basechar 0
AnchorPoint: "top" 610 390 basechar 0
LayerCount: 2
Fore
SplineSet
680 250 m 17
 670 280 640 300 610 300 c 3
 520 300 430 200 430 110 c 3
 430 65 455 30 500 30 c 3
 570 30 640 75 700 150 c 1
 700 100 710 60 730 30 c 1025
520 270 m 0
 380 180 70 -50 70 -250 c 1027
EndSplineSet
Substitution2: "cyrl aalt XI_-1" a.XI_
Substitution2: "'aalt' XI_-1" a.XI_
EndChar

StartChar: a.XI_
Encoding: 57570 57570 54
Width: 770
VWidth: 30
Flags: HMW
AnchorPoint: "bottom" 580 -70 basechar 0
AnchorPoint: "middle" 580 160 basechar 0
AnchorPoint: "top" 610 390 basechar 0
LayerCount: 2
Fore
SplineSet
520 270 m 0
 380 180 70 -50 70 -250 c 1027
800 30 m 1
 720 30 700 120 700 190 c 1
 670 100 580 30 500 30 c 3
 455 30 430 65 430 110 c 3
 430 200 520 300 610 300 c 3
 640 300 670 280 680 250 c 1033
EndSplineSet
EndChar

StartChar: b.I
Encoding: 57347 57347 56
Width: 410
VWidth: 0
Flags: HMW
LayerCount: 2
Fore
SplineSet
150 630 m 17
 110 520 70 340 70 140 c 1
 110 220 200 300 260 300 c 3
 310 300 340 270 340 220 c 3
 340 130 260 30 170 30 c 3
 145 30 130 35 120 40 c 1024
EndSplineSet
EndChar

StartChar: b.VI
Encoding: 57475 57475 57
Width: 440
VWidth: 0
Flags: HMW
AnchorPoint: "middle" 230 410 basechar 0
AnchorPoint: "bottom" 230 -70 basechar 0
AnchorPoint: "top" 400 590 basechar 0
LayerCount: 2
Fore
SplineSet
180 40 m 0
 190 35 205 30 230 30 c 3
 300 30 370 70 370 140 c 3
 370 250 130 280 130 480 c 3
 130 550 170 630 240 630 c 3
 285 630 310 585 310 540 c 3
 310 430 140 210 30 210 c 1024
EndSplineSet
Substitution2: "'aalt' VIV-1" b.VIV
EndChar

StartChar: b.IV
Encoding: 57379 57379 58
Width: 440
VWidth: 0
Flags: HMW
AnchorPoint: "middle" 170 410 basechar 0
AnchorPoint: "bottom" 210 -70 basechar 0
AnchorPoint: "top" 270 590 basechar 0
LayerCount: 2
Fore
SplineSet
470 210 m 3
 350 210 240 170 240 80 c 3
 240 52 262 30 290 30 c 3
 365 30 400 125 400 200 c 3
 400 260 360 300 300 300 c 3
 230 300 120 250 70 170 c 1
 70 370 110 520 150 630 c 1033
EndSplineSet
Substitution2: "'aalt' XIV-1" b.XIV
Substitution2: "'aalt' VIV-1" b.VIV
Substitution2: "'aalt' _IV-1" b._IV
EndChar

StartChar: b._I
Encoding: 57411 57411 80
Width: 540
VWidth: 0
Flags: HMW
AnchorPoint: "middle" 330 410 basechar 0
AnchorPoint: "bottom" 330 -70 basechar 0
AnchorPoint: "top" 500 590 basechar 0
LayerCount: 2
Fore
SplineSet
30 30 m 3
 200 30 410 370 410 540 c 3
 410 585 385 630 340 630 c 3
 270 630 230 550 230 480 c 3
 230 280 470 250 470 140 c 3
 470 70 400 30 330 30 c 3
 305 30 290 35 280 40 c 1024
EndSplineSet
Substitution2: "'aalt' _IV-1" b._IV
EndChar

StartChar: b._IV
Encoding: 57443 57443 81
Width: 540
VWidth: 0
Flags: HMW
AnchorPoint: "middle" 340 410 basechar 0
AnchorPoint: "bottom" 330 -70 basechar 0
AnchorPoint: "top" 500 590 basechar 0
LayerCount: 2
Fore
SplineSet
570 210 m 3
 450 210 340 170 340 80 c 3
 340 52 362 30 390 30 c 3
 450 30 500 90 500 150 c 3
 500 260 230 310 230 480 c 3
 230 550 270 630 340 630 c 3
 385 630 410 585 410 540 c 3
 410 370 200 30 30 30 c 1027
EndSplineSet
EndChar

StartChar: b.VIV
Encoding: 57507 57507 82
Width: 420
VWidth: 0
Flags: HMW
AnchorPoint: "middle" 230 410 basechar 0
AnchorPoint: "bottom" 230 -70 basechar 0
AnchorPoint: "top" 400 590 basechar 0
LayerCount: 2
Fore
SplineSet
450 210 m 3
 330 210 220 170 220 80 c 3
 220 52 242 30 270 30 c 3
 330 30 380 90 380 150 c 3
 380 260 130 310 130 480 c 3
 130 550 170 630 240 630 c 3
 285 630 310 585 310 540 c 3
 310 430 140 210 30 210 c 1024
EndSplineSet
EndChar

StartChar: b.XI
Encoding: 57539 57539 83
Width: 790
VWidth: 0
Flags: HMW
AnchorPoint: "middle" 580 410 basechar 0
AnchorPoint: "bottom" 580 -70 basechar 0
AnchorPoint: "top" 750 590 basechar 0
LayerCount: 2
Fore
SplineSet
530 40 m 0
 540 35 555 30 580 30 c 3
 650 30 720 70 720 140 c 3
 720 250 480 280 480 480 c 3
 480 550 520 630 590 630 c 3
 635 630 660 585 660 540 c 3
 660 376 400 210 230 40 c 0
 140 -50 70 -147 70 -250 c 1024
EndSplineSet
Substitution2: "'aalt' XIV-1" b.XIV
EndChar

StartChar: b.XIV
Encoding: 57571 57571 84
Width: 770
VWidth: 0
Flags: HMW
AnchorPoint: "middle" 580 410 basechar 0
AnchorPoint: "bottom" 580 -70 basechar 0
AnchorPoint: "top" 750 590 basechar 0
LayerCount: 2
Fore
SplineSet
800 210 m 3
 680 210 570 170 570 80 c 3
 570 52 592 30 620 30 c 3
 680 30 730 90 730 150 c 3
 730 260 480 310 480 480 c 3
 480 550 520 630 590 630 c 3
 635 630 660 585 660 540 c 3
 660 376 400 210 230 40 c 0
 140 -50 70 -147 70 -250 c 1024
EndSplineSet
EndChar

StartChar: l.I
Encoding: 57357 57357 85
Width: 410
VWidth: 0
GlyphClass: 2
Flags: HMW
LayerCount: 2
Fore
SplineSet
150 240 m 16
 230 320 260 410 260 490 c 3
 260 550 230 600 190 600 c 3
 150 600 128 570 108 520 c 0
 84 460 70 350 70 230 c 3
 70 130 100 30 200 30 c 3
 250 30 290 50 340 100 c 1024
EndSplineSet
EndChar

StartChar: l.I_
Encoding: 57389 57389 86
Width: 260
VWidth: 0
GlyphClass: 2
Flags: HMW
AnchorPoint: "top" 330 590 basechar 0
AnchorPoint: "middle" 160 410 basechar 0
AnchorPoint: "bottom" 200 -70 basechar 0
LayerCount: 2
Fore
SplineSet
140 280 m 0
 210 350 260 440 260 520 c 3
 260 570 240 630 190 630 c 3
 120 630 70 490 70 330 c 3
 70 160 180 30 290 30 c 1024
EndSplineSet
Substitution2: "'aalt' _I_-1" l._I_
Substitution2: "'aalt' VI_-1" l.VI_
Substitution2: "'aalt' XI_-1" l.XI_
EndChar

StartChar: l._I
Encoding: 57421 57421 87
Width: 540
VWidth: 0
GlyphClass: 2
Flags: HMW
AnchorPoint: "top" 460 590 basechar 0
AnchorPoint: "middle" 300 380 basechar 0
AnchorPoint: "bottom" 330 -70 basechar 0
LayerCount: 2
Fore
SplineSet
470 100 m 0
 420 50 380 30 330 30 c 3
 230 30 200 130 200 230 c 3
 200 500 270 600 330 600 c 3
 380 600 400 540 400 490 c 3
 400 320 200 30 30 30 c 1024
EndSplineSet
Substitution2: "'aalt' _I_-1" l._I_
EndChar

StartChar: l._I_
Encoding: 57453 57453 88
Width: 400
VWidth: 0
GlyphClass: 2
Flags: HMW
AnchorPoint: "bottom" 330 -70 basechar 0
AnchorPoint: "middle" 300 380 basechar 0
AnchorPoint: "top" 460 590 basechar 0
LayerCount: 2
Fore
SplineSet
430 30 m 0
 320 30 210 160 210 330 c 3
 210 490 260 600 330 600 c 3
 380 600 400 540 400 490 c 3
 400 320 200 30 30 30 c 1024
EndSplineSet
EndChar

StartChar: l.VI
Encoding: 57485 57485 89
Width: 440
VWidth: 0
GlyphClass: 2
Flags: HMW
AnchorPoint: "top" 360 590 basechar 0
AnchorPoint: "middle" 200 380 basechar 0
AnchorPoint: "bottom" 230 -70 basechar 0
LayerCount: 2
Fore
SplineSet
30 210 m 3
 140 210 300 380 300 490 c 3
 300 540 280 600 230 600 c 3
 150 600 100 430 100 230 c 3
 100 130 130 30 230 30 c 3
 280 30 320 50 370 100 c 1024
EndSplineSet
Substitution2: "'aalt' VI_-1" l.VI_
EndChar

StartChar: l.VI_
Encoding: 57517 57517 90
Width: 300
VWidth: 0
GlyphClass: 2
Flags: HMW
AnchorPoint: "top" 360 590 basechar 0
AnchorPoint: "middle" 200 380 basechar 0
AnchorPoint: "bottom" 230 -70 basechar 0
LayerCount: 2
Fore
SplineSet
30 210 m 0
 140 210 300 350 300 490 c 3
 300 540 280 600 230 600 c 3
 150 600 110 470 110 330 c 3
 110 160 220 30 330 30 c 1024
EndSplineSet
EndChar

StartChar: l.XI
Encoding: 57549 57549 91
Width: 770
VWidth: 0
GlyphClass: 2
Flags: HMW
AnchorPoint: "top" 690 590 basechar 0
AnchorPoint: "middle" 530 410 basechar 0
AnchorPoint: "bottom" 560 -70 basechar 0
LayerCount: 2
Fore
SplineSet
70 -250 m 0
 70 0 630 270 630 520 c 3
 630 570 610 630 560 630 c 3
 500 630 430 500 430 230 c 3
 430 130 460 30 560 30 c 3
 610 30 650 50 700 100 c 1024
EndSplineSet
Substitution2: "'aalt' XI_-1" l.XI_
EndChar

StartChar: l.XI_
Encoding: 57581 57581 92
Width: 630
VWidth: 0
GlyphClass: 2
Flags: HMW
AnchorPoint: "top" 690 590 basechar 0
AnchorPoint: "middle" 530 410 basechar 0
AnchorPoint: "bottom" 560 -70 basechar 0
LayerCount: 2
Fore
SplineSet
70 -250 m 0
 70 0 630 270 630 520 c 3
 630 570 610 630 560 630 c 3
 490 630 430 490 430 330 c 3
 430 190 520 30 660 30 c 1024
EndSplineSet
EndChar

StartChar: g.I
Encoding: 57352 57352 93
Width: 370
VWidth: 0
GlyphClass: 2
Flags: HMW
LayerCount: 2
Fore
SplineSet
260 270 m 0
 242 290 218 300 190 300 c 3
 120 300 70 250 70 180 c 3
 70 120 115 70 165 20 c 0
 215 -30 270 -100 270 -200 c 3
 270 -255 235 -310 180 -310 c 3
 145 -310 120 -285 120 -250 c 0
 120 -160 220 -20 300 50 c 1024
EndSplineSet
EndChar

StartChar: g.IX
Encoding: 57384 57384 94
Width: 50
VWidth: 0
GlyphClass: 2
Flags: HMW
AnchorPoint: "bottom" 190 -270 basechar 0
AnchorPoint: "middle" 190 160 basechar 0
AnchorPoint: "top" 190 390 basechar 0
LayerCount: 2
Fore
SplineSet
260 270 m 0
 242 290 218 300 190 300 c 3
 120 300 70 250 70 180 c 3
 70 120 115 70 165 20 c 0
 215 -30 270 -100 270 -200 c 3
 270 -255 235 -310 180 -310 c 3
 145 -310 120 -285 120 -250 c 1027
EndSplineSet
Substitution2: "'aalt' _IX-1" g._IX
Substitution2: "'aalt' VIX-1" g.VIX
Substitution2: "'aalt' XIX-1" g.XIX
Substitution2: "cyrl aalt _IX-1" g._IX
Substitution2: "cyrl aalt VIX-1" g.VIX
Substitution2: "cyrl aalt XIX-1" g.XIX
EndChar

StartChar: g._I
Encoding: 57416 57416 95
Width: 490
VWidth: 0
GlyphClass: 2
Flags: HMW
AnchorPoint: "bottom" 310 -270 basechar 0
AnchorPoint: "middle" 310 210 basechar 0
AnchorPoint: "top" 310 390 basechar 0
LayerCount: 2
Fore
SplineSet
420 50 m 0
 340 -20 240 -160 240 -250 c 0
 240 -285 265 -310 300 -310 c 3
 355 -310 390 -255 390 -200 c 3
 390 -100 335 -30 285 20 c 0
 235 70 190 120 190 180 c 3
 190 250 240 300 310 300 c 3
 340 300 370 280 370 250 c 3
 370 140 140 30 30 30 c 1027
EndSplineSet
Substitution2: "'aalt' _IX-1" g._IX
Substitution2: "cyrl aalt _IX-1" g._IX
EndChar

StartChar: g._IX
Encoding: 57448 57448 96
Width: 170
VWidth: 0
GlyphClass: 2
Flags: HMW
AnchorPoint: "bottom" 310 -270 basechar 0
AnchorPoint: "middle" 310 210 basechar 0
AnchorPoint: "top" 310 390 basechar 0
LayerCount: 2
Fore
SplineSet
240 -250 m 0
 240 -285 265 -310 300 -310 c 3
 355 -310 390 -255 390 -200 c 3
 390 -100 335 -30 285 20 c 0
 235 70 190 120 190 180 c 3
 190 250 240 300 310 300 c 3
 340 300 370 280 370 250 c 3
 370 140 140 30 30 30 c 1027
EndSplineSet
EndChar

StartChar: g.VI
Encoding: 57480 57480 97
Width: 400
VWidth: 0
GlyphClass: 2
Flags: HMW
AnchorPoint: "bottom" 210 -270 basechar 0
AnchorPoint: "middle" 210 300 basechar 0
AnchorPoint: "top" 210 420 basechar 0
LayerCount: 2
Fore
SplineSet
330 50 m 0
 250 -20 150 -160 150 -250 c 3
 150 -285 175 -310 210 -310 c 3
 265 -310 300 -255 300 -200 c 3
 300 -30 100 90 100 260 c 3
 100 330 140 380 210 380 c 3
 245 380 280 355 280 320 c 3
 280 240 170 210 30 210 c 1024
EndSplineSet
Substitution2: "'aalt' VIX-1" g.VIX
Substitution2: "cyrl aalt VIX-1" g.VIX
EndChar

StartChar: g.VIX
Encoding: 57512 57512 98
Width: 80
VWidth: 0
GlyphClass: 2
Flags: HMW
AnchorPoint: "bottom" 210 -270 basechar 0
AnchorPoint: "middle" 210 300 basechar 0
AnchorPoint: "top" 210 420 basechar 0
LayerCount: 2
Fore
SplineSet
150 -250 m 3
 150 -285 175 -310 210 -310 c 3
 265 -310 300 -255 300 -200 c 3
 300 -30 100 90 100 260 c 3
 100 330 140 380 210 380 c 3
 245 380 280 355 280 320 c 3
 280 240 170 210 30 210 c 1024
EndSplineSet
EndChar

StartChar: g.XI
Encoding: 57544 57544 99
Width: 720
VWidth: 0
GlyphClass: 2
Flags: HMW
AnchorPoint: "bottom" 540 -270 basechar 0
AnchorPoint: "middle" 540 210 basechar 0
AnchorPoint: "top" 540 390 basechar 0
LayerCount: 2
Fore
SplineSet
650 50 m 0
 570 -20 470 -160 470 -250 c 0
 470 -285 495 -310 530 -310 c 3
 585 -310 620 -255 620 -200 c 3
 620 -100 565 -30 515 20 c 0
 465 70 420 120 420 180 c 3
 420 250 470 300 540 300 c 3
 570 300 600 280 600 250 c 3
 600 134 234 66 110 -120 c 0
 85 -158 70 -201 70 -250 c 1027
EndSplineSet
Substitution2: "'aalt' XIX-1" g.XIX
Substitution2: "cyrl aalt XIX-1" g.XIX
EndChar

StartChar: g.XIX
Encoding: 57576 57576 100
Width: 400
VWidth: 0
GlyphClass: 2
Flags: HMW
AnchorPoint: "bottom" 540 -270 basechar 0
AnchorPoint: "middle" 540 210 basechar 0
AnchorPoint: "top" 540 390 basechar 0
LayerCount: 2
Fore
SplineSet
470 -250 m 0
 470 -285 495 -310 530 -310 c 3
 585 -310 620 -255 620 -200 c 3
 620 -100 565 -30 515 20 c 0
 465 70 420 120 420 180 c 3
 420 250 470 300 540 300 c 3
 570 300 600 280 600 250 c 3
 600 134 234 66 110 -120 c 0
 85 -158 70 -201 70 -250 c 1027
EndSplineSet
EndChar

StartChar: d._I
Encoding: 57413 57413 101
Width: 550
VWidth: 30
Flags: HMW
AnchorPoint: "top" 280 530 basechar 0
AnchorPoint: "middle" 400 410 basechar 0
AnchorPoint: "bottom" 320 -70 basechar 0
LayerCount: 2
Fore
SplineSet
30 30 m 3
 170 30 247 190 247 190 c 1
 237 170 230 140 230 120 c 3
 230 67 267 30 320 30 c 3
 395 30 480 75 480 150 c 3
 480 210 438 242 400 280 c 0
 365 315 320 350 320 410 c 3
 320 440 340 470 390 520 c 0
 420 550 460 590 480 630 c 1024
EndSplineSet
EndChar

StartChar: d.I
Encoding: 57349 57349 102
Width: 490
VWidth: 30
Flags: HMW
LayerCount: 2
Fore
SplineSet
314 220 m 0
 316 228 318 237 318 242 c 3
 318 278 288 300 250 300 c 3
 160 300 70 200 70 110 c 3
 70 65 95 30 140 30 c 3
 185 30 330 30 400 630 c 1
 400 630 380 420 370 310 c 0
 366 266 360 200 360 170 c 3
 360 60 420 30 420 30 c 1024
EndSplineSet
EndChar

StartChar: d.I_
Encoding: 57381 57381 103
Width: 420
VWidth: 30
Flags: HMW
AnchorPoint: "top" 210 500 basechar 0
AnchorPoint: "middle" 330 410 basechar 0
AnchorPoint: "bottom" 250 -70 basechar 0
LayerCount: 2
Fore
SplineSet
450 30 m 1
 380 30 360 80 360 170 c 3
 360 200 366 266 370 310 c 0
 380 420 400 630 400 630 c 1
 330 30 185 30 140 30 c 3
 95 30 70 65 70 110 c 3
 70 200 160 300 250 300 c 3
 288 300 318 278 318 242 c 3
 318 237 316 228 314 220 c 1024
EndSplineSet
EndChar

StartChar: d.VI
Encoding: 57477 57477 104
Width: 420
VWidth: 30
Flags: HMW
AnchorPoint: "bottom" 190 -70 basechar 0
AnchorPoint: "middle" 270 410 basechar 0
AnchorPoint: "top" 150 530 basechar 0
LayerCount: 2
Fore
SplineSet
350 630 m 0
 330 590 290 550 260 520 c 0
 210 470 190 440 190 410 c 3
 190 350 235 315 270 280 c 0
 308 242 350 210 350 150 c 3
 350 75 265 30 190 30 c 3
 137 30 100 67 100 120 c 3
 100 160 110 190 130 220 c 1
 130 220 100 210 30 210 c 1024
EndSplineSet
EndChar

StartChar: d.XI
Encoding: 57541 57541 105
Width: 750
VWidth: 30
Flags: HMW
AnchorPoint: "bottom" 520 -70 basechar 0
AnchorPoint: "middle" 600 410 basechar 0
AnchorPoint: "top" 480 530 basechar 0
LayerCount: 2
Fore
SplineSet
680 630 m 0
 660 590 620 550 590 520 c 0
 540 470 520 440 520 410 c 3
 520 350 565 315 600 280 c 0
 638 242 680 210 680 150 c 3
 680 75 595 30 520 30 c 3
 467 30 430 67 430 120 c 3
 430 140 438 170 450 190 c 1
 380 155 270 70 200 0 c 0
 130 -70 70 -165 70 -250 c 1027
EndSplineSet
EndChar

StartChar: h._I
Encoding: 57417 57417 106
Width: 650
VWidth: 0
GlyphClass: 2
Flags: HMW
AnchorPoint: "bottom" 420 -70 basechar 0
AnchorPoint: "middle" 320 410 basechar 0
AnchorPoint: "top" 490 590 basechar 0
LayerCount: 2
Fore
SplineSet
30 30 m 3
 200 30 400 370 400 540 c 3
 400 590 380 630 340 630 c 3
 270 630 230 500 230 330 c 3
 230 160 270 90 310 90 c 3
 345 90 365 125 405 195 c 0
 445 265 470 300 510 300 c 3
 550 300 560 260 560 180 c 3
 560 100 565 60 580 30 c 1024
560 180 m 1027
EndSplineSet
Substitution2: "'aalt' _I_-1" h._I_
EndChar

StartChar: h.I
Encoding: 57353 57353 107
Width: 460
VWidth: 30
GlyphClass: 2
Flags: HMW
LayerCount: 2
Fore
SplineSet
390 30 m 0
 375 60 370 100 370 180 c 3
 370 260 360 300 320 300 c 3
 280 300 255 265 215 195 c 0
 175 125 155 90 120 90 c 3
 85 90 70 130 70 170 c 3
 70 340 110 520 110 630 c 1024
EndSplineSet
EndChar

StartChar: h.I_
Encoding: 57385 57385 108
Width: 410
VWidth: 30
GlyphClass: 2
Flags: HMW
AnchorPoint: "bottom" 230 -70 basechar 0
AnchorPoint: "middle" 150 410 basechar 0
AnchorPoint: "top" 290 590 basechar 0
LayerCount: 2
Fore
SplineSet
110 630 m 0
 110 520 70 340 70 170 c 3
 70 130 85 90 120 90 c 3
 155 90 175 125 215 195 c 0
 255 265 280 300 320 300 c 3
 360 300 370 260 370 180 c 3
 370 60 390 30 440 30 c 1024
EndSplineSet
Substitution2: "'aalt' XI_-1" h.XI_
Substitution2: "'aalt' VI_-1" h.VI_
Substitution2: "'aalt' _I_-1" h._I_
EndChar

StartChar: h._I_
Encoding: 57449 57449 109
Width: 600
VWidth: 0
GlyphClass: 2
Flags: HMW
AnchorPoint: "bottom" 420 -70 basechar 0
AnchorPoint: "middle" 320 410 basechar 0
AnchorPoint: "top" 490 590 basechar 0
LayerCount: 2
Fore
SplineSet
30 30 m 3
 200 30 400 370 400 540 c 3
 400 590 380 630 340 630 c 3
 270 630 230 500 230 330 c 3
 230 160 270 90 310 90 c 3
 345 90 365 125 405 195 c 0
 445 265 470 300 510 300 c 3
 550 300 560 260 560 180 c 3
 560 60 580 30 630 30 c 1027
560 180 m 1027
EndSplineSet
EndChar

StartChar: h.VI
Encoding: 57481 57481 110
Width: 520
VWidth: 30
GlyphClass: 2
Flags: HMW
AnchorPoint: "bottom" 290 -70 basechar 0
AnchorPoint: "middle" 190 410 basechar 0
AnchorPoint: "top" 360 590 basechar 0
LayerCount: 2
Fore
SplineSet
450 30 m 0
 435 60 430 100 430 180 c 3
 430 260 420 300 380 300 c 3
 340 300 315 265 275 195 c 0
 235 125 215 90 180 90 c 3
 140 90 100 160 100 330 c 3
 100 500 140 630 210 630 c 3
 250 630 270 590 270 540 c 3
 270 430 150 210 30 210 c 1024
EndSplineSet
Substitution2: "'aalt' VI_-1" h.VI_
EndChar

StartChar: h.VI_
Encoding: 57513 57513 111
Width: 470
VWidth: 30
GlyphClass: 2
Flags: HMW
AnchorPoint: "bottom" 290 -70 basechar 0
AnchorPoint: "middle" 190 410 basechar 0
AnchorPoint: "top" 360 590 basechar 0
LayerCount: 2
Fore
SplineSet
500 30 m 0
 450 30 430 60 430 180 c 3
 430 260 420 300 380 300 c 3
 340 300 315 265 275 195 c 0
 235 125 215 90 180 90 c 3
 140 90 100 160 100 330 c 3
 100 500 140 630 210 630 c 3
 250 630 270 590 270 540 c 3
 270 430 150 210 30 210 c 1024
EndSplineSet
EndChar

StartChar: h.XI
Encoding: 57545 57545 112
Width: 860
VWidth: 30
GlyphClass: 2
Flags: HMW
AnchorPoint: "bottom" 630 -70 basechar 0
AnchorPoint: "middle" 530 410 basechar 0
AnchorPoint: "top" 700 590 basechar 0
LayerCount: 2
Fore
SplineSet
790 30 m 0
 775 60 770 100 770 180 c 3
 770 260 760 300 720 300 c 3
 680 300 655 265 615 195 c 0
 575 125 555 90 520 90 c 3
 480 90 440 160 440 330 c 3
 440 500 480 630 550 630 c 3
 590 630 610 590 610 540 c 3
 610 380 450 220 300 90 c 0
 150 -40 70 -140 70 -250 c 1024
EndSplineSet
Substitution2: "'aalt' XI_-1" h.XI_
EndChar

StartChar: h.XI_
Encoding: 57577 57577 113
Width: 810
VWidth: 30
GlyphClass: 2
Flags: HMW
AnchorPoint: "bottom" 630 -70 basechar 0
AnchorPoint: "middle" 530 410 basechar 0
AnchorPoint: "top" 700 590 basechar 0
LayerCount: 2
Fore
SplineSet
70 -250 m 0
 70 -140 150 -40 300 90 c 0
 450 220 610 380 610 540 c 3
 610 590 590 630 550 630 c 3
 480 630 440 500 440 330 c 3
 440 160 480 90 520 90 c 3
 555 90 575 125 615 195 c 0
 655 265 680 300 720 300 c 3
 760 300 770 260 770 180 c 3
 770 60 790 30 840 30 c 1024
EndSplineSet
EndChar

StartChar: dotlessj.I
Encoding: 57345 57345 114
Width: 420
VWidth: 30
GlyphClass: 2
Flags: HMW
LayerCount: 2
Fore
SplineSet
170 300 m 3
 170 160 220 0 220 -140 c 3
 220 -240 170 -310 120 -310 c 3
 90 -310 70 -280 70 -250 c 3
 70 -120 250 60 350 130 c 1024
EndSplineSet
EndChar

StartChar: dotlessj.IX
Encoding: 57377 57377 115
Width: 0
VWidth: 0
GlyphClass: 2
Flags: HMW
AnchorPoint: "bottom" 190 -270 basechar 0
AnchorPoint: "middle" 170 220 basechar 0
AnchorPoint: "top" 170 390 basechar 0
LayerCount: 2
Fore
SplineSet
170 300 m 3
 170 160 220 0 220 -140 c 3
 220 -240 170 -310 120 -310 c 3
 90 -310 70 -280 70 -250 c 1027
EndSplineSet
Substitution2: "'aalt' _IX-1" dotlessj._IX
Substitution2: "'aalt' VIX-1" dotlessj.VIX
Substitution2: "'aalt' XIX-1" dotlessj.XIX
EndChar

StartChar: dotlessj._I
Encoding: 57409 57409 116
Width: 550
VWidth: 30
GlyphClass: 2
Flags: HMW
AnchorPoint: "bottom" 320 -270 basechar 0
AnchorPoint: "middle" 300 220 basechar 0
AnchorPoint: "top" 300 390 basechar 0
LayerCount: 2
Fore
SplineSet
30 30 m 3
 130 30 250 140 300 240 c 1
 330 130 360 -30 360 -140 c 3
 360 -240 310 -310 260 -310 c 3
 226 -310 200 -284 200 -250 c 3
 200 -120 380 60 480 130 c 1024
EndSplineSet
Substitution2: "'aalt' _IX-1" dotlessj._IX
EndChar

StartChar: dotlessj._IX
Encoding: 57441 57441 117
Width: 130
VWidth: 30
GlyphClass: 2
Flags: HMW
AnchorPoint: "bottom" 320 -270 basechar 0
AnchorPoint: "middle" 300 220 basechar 0
AnchorPoint: "top" 300 390 basechar 0
LayerCount: 2
Fore
SplineSet
30 30 m 3
 130 30 250 140 300 240 c 1
 330 130 360 -30 360 -140 c 3
 360 -240 310 -310 260 -310 c 3
 226 -310 200 -284 200 -250 c 1027
EndSplineSet
EndChar

StartChar: dotlessj.VI
Encoding: 57473 57473 118
Width: 420
VWidth: 30
GlyphClass: 2
Flags: HMW
AnchorPoint: "bottom" 190 -270 basechar 0
AnchorPoint: "middle" 170 220 basechar 0
AnchorPoint: "top" 170 390 basechar 0
LayerCount: 2
Fore
SplineSet
30 210 m 3
 100 210 170 240 170 240 c 1
 200 130 230 -30 230 -140 c 3
 230 -240 180 -310 130 -310 c 3
 96 -310 70 -284 70 -250 c 3
 70 -120 250 60 350 130 c 1024
EndSplineSet
Substitution2: "'aalt' VIX-1" dotlessj.VIX
EndChar

StartChar: dotlessj.VIX
Encoding: 57505 57505 119
Width: 0
VWidth: 30
GlyphClass: 2
Flags: HMW
AnchorPoint: "bottom" 190 -270 basechar 0
AnchorPoint: "middle" 170 220 basechar 0
AnchorPoint: "top" 190 390 basechar 0
LayerCount: 2
Fore
SplineSet
30 210 m 3
 100 210 170 240 170 240 c 1
 200 130 230 -30 230 -140 c 3
 230 -240 180 -310 130 -310 c 3
 96 -310 70 -284 70 -250 c 1027
EndSplineSet
EndChar

StartChar: dotlessj.XIX
Encoding: 57569 57569 120
Width: 360
VWidth: 30
GlyphClass: 2
Flags: HMW
AnchorPoint: "bottom" 550 -270 basechar 0
AnchorPoint: "middle" 530 220 basechar 0
AnchorPoint: "top" 530 390 basechar 0
LayerCount: 2
Fore
SplineSet
430 -250 m 3
 430 -284 456 -310 490 -310 c 3
 540 -310 590 -240 590 -140 c 3
 590 -30 560 130 530 240 c 1
 430 180 340 130 210 0 c 0
 130 -80 70 -165 70 -250 c 1027
EndSplineSet
EndChar

StartChar: dotlessj.XI
Encoding: 57537 57537 121
Width: 780
VWidth: 30
GlyphClass: 2
Flags: HMW
AnchorPoint: "bottom" 550 -270 basechar 0
AnchorPoint: "middle" 530 220 basechar 0
AnchorPoint: "top" 530 390 basechar 0
LayerCount: 2
Fore
SplineSet
710 130 m 0
 610 60 430 -120 430 -250 c 3
 430 -284 456 -310 490 -310 c 3
 540 -310 590 -240 590 -140 c 3
 590 -30 560 130 530 240 c 1
 430 180 340 130 210 0 c 0
 130 -80 70 -165 70 -250 c 1027
EndSplineSet
Substitution2: "'aalt' XIX-1" dotlessj.XIX
EndChar

StartChar: n._I_
Encoding: 57455 57455 130
Width: 710
VWidth: 30
GlyphClass: 2
Flags: HMW
AnchorPoint: "bottom" 400 -70 basechar 0
AnchorPoint: "middle" 400 160 basechar 0
AnchorPoint: "top" 560 390 basechar 0
LayerCount: 2
Fore
SplineSet
740 30 m 3
 695 30 670 70 670 150 c 3
 670 230 660 270 620 270 c 3
 580 270 550 225 510 165 c 0
 470 105 440 60 400 60 c 3
 360 60 350 100 350 180 c 3
 350 260 336 300 290 300 c 3
 250 300 225 265 190 195 c 0
 140 95 110 30 30 30 c 1024
EndSplineSet
EndChar

StartChar: n.I_
Encoding: 57391 57391 131
Width: 510
VWidth: 30
GlyphClass: 2
Flags: HMW
AnchorPoint: "top" 370 390 basechar 0
AnchorPoint: "middle" 300 160 basechar 0
AnchorPoint: "bottom" 300 -70 basechar 0
LayerCount: 2
Fore
SplineSet
540 30 m 0
 495 30 470 55 470 100 c 3
 470 125 480 175 480 200 c 3
 480 235 465 270 430 270 c 3
 390 270 340 240 230 30 c 1
 230 200 200 300 130 300 c 3
 110 300 90 290 70 270 c 1024
EndSplineSet
Substitution2: "'aalt' _I_-1" n._I_
Substitution2: "'aalt' VI_-1" n.VI_
Substitution2: "'aalt' XI_-1" n.XI_
EndChar

StartChar: n.I
Encoding: 57359 57359 132
Width: 590
VWidth: 972
GlyphClass: 2
Flags: HMW
LayerCount: 2
Fore
SplineSet
520 30 m 1
 490 60 480 90 480 190 c 3
 480 230 470 270 430 270 c 3
 390 270 340 240 230 30 c 1
 230 200 200 300 130 300 c 3
 110 300 90 290 70 270 c 1024
EndSplineSet
EndChar

StartChar: n._I
Encoding: 57423 57423 133
Width: 780
VWidth: 30
GlyphClass: 2
Flags: HMW
AnchorPoint: "bottom" 400 -70 basechar 0
AnchorPoint: "middle" 400 160 basechar 0
AnchorPoint: "top" 560 390 basechar 0
LayerCount: 2
Fore
SplineSet
710 30 m 1
 680 60 670 100 670 150 c 3
 670 230 660 270 620 270 c 3
 580 270 550 225 510 165 c 0
 470 105 440 60 400 60 c 3
 360 60 350 100 350 180 c 3
 350 260 336 300 290 300 c 3
 250 300 225 265 190 195 c 0
 140 95 110 30 30 30 c 1024
EndSplineSet
Substitution2: "'aalt' _I_-1" n._I_
EndChar

StartChar: n.VI
Encoding: 57487 57487 134
Width: 740
VWidth: 30
GlyphClass: 2
Flags: HMW
AnchorPoint: "bottom" 360 -70 basechar 0
AnchorPoint: "middle" 360 160 basechar 0
AnchorPoint: "top" 520 360 basechar 0
LayerCount: 2
Fore
SplineSet
670 30 m 1
 640 60 630 100 630 150 c 3
 630 230 620 270 580 270 c 3
 540 270 510 225 470 165 c 0
 430 105 400 60 360 60 c 3
 320 60 310 100 310 180 c 3
 310 260 296 300 250 300 c 3
 220 300 194 286 170 270 c 0
 125 240 85 210 30 210 c 1024
EndSplineSet
Substitution2: "'aalt' VI_-1" n.VI_
EndChar

StartChar: n.VI_
Encoding: 57519 57519 135
Width: 670
VWidth: 30
GlyphClass: 2
Flags: HMW
AnchorPoint: "bottom" 360 -70 basechar 0
AnchorPoint: "middle" 360 160 basechar 0
AnchorPoint: "top" 510 390 basechar 0
LayerCount: 2
Fore
SplineSet
700 30 m 0
 655 30 630 70 630 150 c 3
 630 230 620 270 580 270 c 3
 540 270 510 225 470 165 c 0
 430 105 400 60 360 60 c 3
 320 60 310 100 310 180 c 3
 310 260 296 300 250 300 c 3
 220 300 194 286 170 270 c 0
 125 240 85 210 30 210 c 1024
EndSplineSet
EndChar

StartChar: n.XI
Encoding: 57551 57551 136
Width: 1000
VWidth: 30
GlyphClass: 2
Flags: HMW
AnchorPoint: "bottom" 620 -70 basechar 0
AnchorPoint: "middle" 620 160 basechar 0
AnchorPoint: "top" 780 390 basechar 0
LayerCount: 2
Fore
SplineSet
930 30 m 1
 900 60 890 100 890 150 c 3
 890 230 880 270 840 270 c 3
 800 270 770 225 730 165 c 0
 690 105 660 60 620 60 c 3
 580 60 565 100 565 150 c 3
 565 200 550 240 510 240 c 3
 470 240 424 206 349 140 c 0
 274 74 70 -110 70 -250 c 1027
EndSplineSet
Substitution2: "'aalt' XI_-1" n.XI_
EndChar

StartChar: n.XI_
Encoding: 57583 57583 137
Width: 930
VWidth: 30
GlyphClass: 2
Flags: HMW
AnchorPoint: "middle" 620 160 basechar 0
AnchorPoint: "bottom" 620 -70 basechar 0
AnchorPoint: "top" 780 390 basechar 0
LayerCount: 2
Fore
SplineSet
960 30 m 0
 915 30 890 80 890 150 c 3
 890 230 880 270 840 270 c 3
 800 270 770 225 730 165 c 0
 690 105 660 60 620 60 c 3
 580 60 565 100 565 150 c 3
 565 200 550 240 510 240 c 3
 470 240 424 206 349 140 c 0
 274 74 70 -110 70 -250 c 1027
EndSplineSet
EndChar

StartChar: m._I_
Encoding: 57454 57454 138
Width: 1020
VWidth: 30
GlyphClass: 2
Flags: HMW
AnchorPoint: "bottom" 630 -70 basechar 0
AnchorPoint: "middle" 630 160 basechar 0
AnchorPoint: "top" 880 390 basechar 0
LayerCount: 2
Fore
SplineSet
1050 30 m 3
 1010 30 990 70 990 120 c 3
 990 200 980 240 940 240 c 3
 900 240 870 195 830 135 c 0
 790 75 760 30 720 30 c 3
 680 30 670 70 670 150 c 3
 670 230 660 270 620 270 c 3
 580 270 550 225 510 165 c 0
 470 105 440 60 400 60 c 3
 360 60 350 100 350 180 c 3
 350 260 336 300 290 300 c 3
 250 300 225 265 190 195 c 0
 140 95 110 30 30 30 c 1024
EndSplineSet
EndChar

StartChar: m._I
Encoding: 57422 57422 139
Width: 1180
VWidth: 30
GlyphClass: 2
Flags: HMW
AnchorPoint: "bottom" 630 -70 basechar 0
AnchorPoint: "middle" 630 160 basechar 0
AnchorPoint: "top" 880 390 basechar 0
LayerCount: 2
Fore
SplineSet
1110 60 m 1
 1090 40 1070 30 1050 30 c 3
 1010 30 990 60 990 120 c 3
 990 200 980 240 940 240 c 3
 900 240 870 195 830 135 c 0
 790 75 760 30 720 30 c 3
 680 30 670 70 670 150 c 3
 670 230 660 270 620 270 c 3
 580 270 550 225 510 165 c 0
 470 105 440 60 400 60 c 3
 360 60 350 100 350 180 c 3
 350 260 336 300 290 300 c 3
 250 300 225 265 190 195 c 0
 140 95 110 30 30 30 c 1024
EndSplineSet
Substitution2: "'aalt' _I_-1" m._I_
EndChar

StartChar: m.I
Encoding: 57358 57358 140
Width: 1100
VWidth: 30
GlyphClass: 2
Flags: HMW
LayerCount: 2
Fore
SplineSet
1030 60 m 1
 1010 40 990 30 970 30 c 3
 930 30 910 60 910 120 c 3
 910 200 900 240 860 240 c 3
 820 240 790 195 750 135 c 0
 710 75 680 30 640 30 c 3
 600 30 590 70 590 150 c 3
 590 230 580 270 540 270 c 3
 500 270 470 225 430 165 c 0
 390 105 360 60 320 60 c 3
 280 60 270 100 270 180 c 3
 270 260 256 300 210 300 c 3
 170 300 145 265 110 195 c 0
 100 175 89 159 70 140 c 1024
EndSplineSet
EndChar

StartChar: m.I_
Encoding: 57390 57390 141
Width: 940
VWidth: 30
GlyphClass: 2
Flags: HMW
AnchorPoint: "bottom" 550 -70 basechar 0
AnchorPoint: "middle" 550 160 basechar 0
AnchorPoint: "top" 800 390 basechar 0
LayerCount: 2
Fore
SplineSet
970 30 m 3
 930 30 910 70 910 120 c 3
 910 200 900 240 860 240 c 3
 820 240 790 195 750 135 c 0
 710 75 680 30 640 30 c 3
 600 30 590 70 590 150 c 3
 590 230 580 270 540 270 c 3
 500 270 470 225 430 165 c 0
 390 105 360 60 320 60 c 3
 280 60 270 100 270 180 c 3
 270 260 256 300 210 300 c 3
 170 300 145 265 110 195 c 0
 100 175 89 159 70 140 c 1024
EndSplineSet
Substitution2: "'aalt' _I_-1" m._I_
Substitution2: "'aalt' VI_-1" m.VI_
Substitution2: "'aalt' XI_-1" m.XI_
EndChar

StartChar: m.VI
Encoding: 57486 57486 142
Width: 1030
VWidth: 0
GlyphClass: 2
Flags: HMW
AnchorPoint: "bottom" 480 -70 basechar 0
AnchorPoint: "middle" 480 160 basechar 0
AnchorPoint: "top" 730 390 basechar 0
LayerCount: 2
Fore
SplineSet
960 90 m 1
 940 70 920 60 900 60 c 3
 860 60 843 90 835 150 c 0
 829 198 815 240 770 240 c 3
 730 240 700 195 660 135 c 0
 620 75 590 30 550 30 c 3
 505 30 495 75 495 120 c 3
 495 165 485 210 440 210 c 3
 400 210 370 165 330 105 c 0
 290 45 260 0 220 0 c 3
 180 0 155 30 155 90 c 3
 155 160 100 210 30 210 c 1024
EndSplineSet
Substitution2: "'aalt' VI_-1" m.VI_
EndChar

StartChar: m.VI_
Encoding: 57518 57518 143
Width: 850
VWidth: 30
GlyphClass: 2
Flags: HMW
AnchorPoint: "bottom" 480 -70 basechar 0
AnchorPoint: "middle" 480 160 basechar 0
AnchorPoint: "top" 730 390 basechar 0
LayerCount: 2
Fore
SplineSet
880 30 m 3
 840 30 820 70 820 120 c 3
 820 200 810 240 770 240 c 3
 730 240 700 195 660 135 c 0
 620 75 590 30 550 30 c 3
 505 30 495 75 495 120 c 3
 495 165 485 210 440 210 c 3
 400 210 370 165 330 105 c 0
 290 45 260 0 220 0 c 3
 180 0 155 30 155 90 c 3
 155 160 100 210 30 210 c 1024
EndSplineSet
EndChar

StartChar: m.XI
Encoding: 57550 57550 144
Width: 1400
VWidth: 30
GlyphClass: 2
Flags: HMW
AnchorPoint: "bottom" 850 -70 basechar 0
AnchorPoint: "middle" 850 160 basechar 0
AnchorPoint: "top" 1100 390 basechar 0
LayerCount: 2
Fore
SplineSet
1330 60 m 1
 1310 40 1290 30 1270 30 c 3
 1230 30 1210 60 1210 120 c 3
 1210 200 1200 240 1160 240 c 3
 1120 240 1090 195 1050 135 c 0
 1010 75 980 30 940 30 c 3
 900 30 890 70 890 150 c 3
 890 230 880 270 840 270 c 3
 800 270 770 225 730 165 c 0
 690 105 660 60 620 60 c 3
 580 60 565 100 565 150 c 3
 565 200 550 240 510 240 c 3
 470 240 424 206 349 140 c 0
 274 74 70 -110 70 -250 c 1027
EndSplineSet
Substitution2: "'aalt' XI_-1" m.XI_
EndChar

StartChar: m.XI_
Encoding: 57582 57582 145
Width: 1240
VWidth: 30
GlyphClass: 2
Flags: HMW
AnchorPoint: "bottom" 850 -70 basechar 0
AnchorPoint: "middle" 850 160 basechar 0
AnchorPoint: "top" 1100 390 basechar 0
LayerCount: 2
Fore
SplineSet
70 -250 m 3
 70 -110 274 74 349 140 c 0
 424 206 470 240 510 240 c 3
 550 240 565 200 565 150 c 3
 565 100 580 60 620 60 c 3
 660 60 690 105 730 165 c 0
 770 225 800 270 840 270 c 3
 880 270 890 230 890 150 c 3
 890 70 900 30 940 30 c 3
 980 30 1010 75 1050 135 c 0
 1090 195 1120 240 1160 240 c 3
 1200 240 1210 200 1210 120 c 3
 1210 70 1230 30 1270 30 c 1027
EndSplineSet
EndChar

StartChar: p.I
Encoding: 57361 57361 146
Width: 530
VWidth: 0
GlyphClass: 2
Flags: HMW
LayerCount: 2
Fore
SplineSet
300 40 m 0
 310 35 325 30 350 30 c 3
 420 30 460 100 460 170 c 3
 460 240 420 300 350 300 c 3
 240 300 140 140 110 -310 c 1
 110 -10 100 140 70 200 c 1025
EndSplineSet
EndChar

StartChar: p.I_
Encoding: 57393 57393 147
Width: 440
VWidth: 0
GlyphClass: 2
Flags: HMW
AnchorPoint: "top" 350 390 basechar 0
AnchorPoint: "middle" 330 150 basechar 0
AnchorPoint: "bottom" 300 -270 basechar 0
LayerCount: 2
Fore
SplineSet
70 200 m 1
 100 140 110 -10 110 -310 c 1
 140 140 240 300 350 300 c 3
 420 300 460 240 460 170 c 3
 460 115 435 54 390 30 c 1
 410 30 450 30 470 30 c 1024
EndSplineSet
Substitution2: "'aalt' _I_-1" p._I_
Substitution2: "'aalt' VI_-1" p.VI_
Substitution2: "'aalt' XI_-1" p.XI_
Substitution2: "cyrl aalt _I_-1" p._I_
Substitution2: "cyrl aalt VI_-1" p.VI_
Substitution2: "cyrl aalt XI_-1" p.XI_
EndChar

StartChar: p._I
Encoding: 57425 57425 148
Width: 660
VWidth: 30
GlyphClass: 2
Flags: HMW
AnchorPoint: "bottom" 430 -270 basechar 0
AnchorPoint: "middle" 460 150 basechar 0
AnchorPoint: "top" 480 390 basechar 0
LayerCount: 2
Fore
SplineSet
30 30 m 3
 120 30 170 80 200 140 c 1
 230 80 240 -10 240 -310 c 1
 270 140 370 300 480 300 c 3
 550 300 590 240 590 170 c 3
 590 100 550 30 480 30 c 3
 455 30 440 35 430 40 c 1024
EndSplineSet
Substitution2: "'aalt' _I_-1" p._I_
Substitution2: "cyrl aalt _I_-1" p._I_
EndChar

StartChar: p._I_
Encoding: 57457 57457 149
Width: 570
VWidth: 0
GlyphClass: 2
Flags: HMW
AnchorPoint: "bottom" 430 -270 basechar 0
AnchorPoint: "middle" 460 150 basechar 0
AnchorPoint: "top" 480 390 basechar 0
LayerCount: 2
Fore
SplineSet
600 30 m 0
 580 30 540 30 520 30 c 1
 565 54 590 115 590 170 c 3
 590 240 550 300 480 300 c 3
 370 300 270 140 240 -310 c 1
 240 -10 230 140 200 200 c 1
 188 140 120 30 30 30 c 1027
EndSplineSet
EndChar

StartChar: p.VI
Encoding: 57489 57489 150
Width: 560
VWidth: 30
GlyphClass: 2
Flags: HMW
AnchorPoint: "bottom" 330 -270 basechar 0
AnchorPoint: "middle" 360 150 basechar 0
AnchorPoint: "top" 380 390 basechar 0
LayerCount: 2
Fore
SplineSet
330 40 m 0
 340 35 355 30 380 30 c 3
 450 30 490 100 490 170 c 3
 490 240 450 300 380 300 c 3
 270 300 170 140 140 -310 c 1
 140 60 130 210 30 210 c 1025
EndSplineSet
Substitution2: "cyrl aalt VI_-1" p.VI_
Substitution2: "'aalt' VI_-1" p.VI_
EndChar

StartChar: p.VI_
Encoding: 57521 57521 151
Width: 470
VWidth: 0
GlyphClass: 2
Flags: HMW
AnchorPoint: "bottom" 330 -270 basechar 0
AnchorPoint: "middle" 360 150 basechar 0
AnchorPoint: "top" 380 390 basechar 0
LayerCount: 2
Fore
SplineSet
500 30 m 0
 480 30 440 30 420 30 c 1
 465 54 490 115 490 170 c 3
 490 240 450 300 380 300 c 3
 270 300 170 140 140 -310 c 1
 140 60 130 210 30 210 c 1025
EndSplineSet
EndChar

StartChar: p.XI
Encoding: 57553 57553 152
Width: 890
VWidth: 30
GlyphClass: 2
Flags: HMW
AnchorPoint: "bottom" 660 -270 basechar 0
AnchorPoint: "middle" 690 150 basechar 0
AnchorPoint: "top" 710 390 basechar 0
LayerCount: 2
Fore
SplineSet
70 -250 m 3
 70 -10 310 120 410 170 c 1
 440 110 470 -40 470 -310 c 1
 500 140 600 300 710 300 c 3
 780 300 820 240 820 170 c 3
 820 100 780 30 710 30 c 3
 685 30 670 35 660 40 c 1024
EndSplineSet
Substitution2: "'aalt' XI_-1" p.XI_
Substitution2: "cyrl aalt XI_-1" p.XI_
EndChar

StartChar: p.XI_
Encoding: 57585 57585 153
Width: 800
VWidth: 0
GlyphClass: 2
Flags: HMW
AnchorPoint: "bottom" 660 -270 basechar 0
AnchorPoint: "middle" 690 150 basechar 0
AnchorPoint: "top" 710 390 basechar 0
LayerCount: 2
Fore
SplineSet
830 30 m 0
 810 30 770 30 750 30 c 1
 795 54 820 115 820 170 c 3
 820 240 780 300 710 300 c 3
 600 300 500 140 470 -310 c 1
 470 -40 440 110 410 170 c 1
 310 120 70 -10 70 -250 c 1027
EndSplineSet
EndChar

StartChar: k.I
Encoding: 57356 57356 154
Width: 470
VWidth: 0
GlyphClass: 2
Flags: HMW
LayerCount: 2
Fore
SplineSet
320 300 m 0
 250 290 203 268 173 238 c 0
 140 205 120 160 100 90 c 1
 85 140 70 230 70 300 c 3
 70 410 80 530 100 630 c 1025
400 50 m 1
 380 35 360 30 340 30 c 3
 280 30 240 110 220 170 c 1024
EndSplineSet
EndChar

StartChar: k._I
Encoding: 57420 57420 155
Width: 700
VWidth: 0
GlyphClass: 2
Flags: HMW
AnchorPoint: "top" 490 590 basechar 0
AnchorPoint: "middle" 400 410 basechar 0
AnchorPoint: "bottom" 470 -70 basechar 0
LayerCount: 2
Fore
SplineSet
550 300 m 0
 480 290 433 268 403 238 c 0
 370 205 350 160 330 90 c 1
 315 140 300 230 300 300 c 3
 300 410 310 530 330 630 c 1
 307 520 200 30 30 30 c 1024
630 50 m 1
 610 35 590 30 570 30 c 3
 510 30 470 110 450 170 c 1024
EndSplineSet
Substitution2: "'aalt' _I_-1" k._I_
EndChar

StartChar: k.I_
Encoding: 57388 57388 156
Width: 340
VWidth: 0
GlyphClass: 2
Flags: HMW
AnchorPoint: "top" 260 590 basechar 0
AnchorPoint: "middle" 170 410 basechar 0
AnchorPoint: "bottom" 240 -70 basechar 0
LayerCount: 2
Fore
SplineSet
370 30 m 3
 290 30 260 70 220 170 c 1024
320 300 m 0
 250 290 203 268 173 238 c 0
 140 205 120 160 100 90 c 1
 85 140 70 230 70 300 c 3
 70 410 80 530 100 630 c 1025
EndSplineSet
Substitution2: "'aalt' _I_-1" k._I_
Substitution2: "'aalt' VI_-1" k.VI_
Substitution2: "'aalt' XI_-1" k.XI_
EndChar

StartChar: k._I_
Encoding: 57452 57452 157
Width: 570
VWidth: 0
GlyphClass: 2
Flags: HMW
AnchorPoint: "top" 490 590 basechar 0
AnchorPoint: "middle" 400 410 basechar 0
AnchorPoint: "bottom" 470 -70 basechar 0
LayerCount: 2
Fore
SplineSet
550 300 m 0
 480 290 433 268 403 238 c 0
 370 205 350 160 330 90 c 1
 315 140 300 230 300 300 c 3
 300 410 310 530 330 630 c 1
 307 520 200 30 30 30 c 1024
600 30 m 3
 520 30 490 70 450 170 c 1024
EndSplineSet
EndChar

StartChar: k.VI
Encoding: 57484 57484 158
Width: 610
VWidth: 0
GlyphClass: 2
Flags: HMW
AnchorPoint: "top" 400 590 basechar 0
AnchorPoint: "middle" 310 410 basechar 0
AnchorPoint: "bottom" 380 -70 basechar 0
LayerCount: 2
Fore
SplineSet
30 210 m 1
 140 210 217 530 240 630 c 1
 220 530 210 410 210 300 c 3
 210 230 225 140 240 90 c 1
 260 160 280 205 313 238 c 0
 343 268 390 290 460 300 c 1024
540 50 m 1
 520 35 500 30 480 30 c 3
 420 30 380 110 360 170 c 1024
EndSplineSet
Substitution2: "'aalt' VI_-1" k.VI_
EndChar

StartChar: k.VI_
Encoding: 57516 57516 159
Width: 480
VWidth: 0
GlyphClass: 2
Flags: HMW
AnchorPoint: "top" 400 590 basechar 0
AnchorPoint: "middle" 310 410 basechar 0
AnchorPoint: "bottom" 380 -70 basechar 0
LayerCount: 2
Fore
SplineSet
30 210 m 1
 140 210 217 530 240 630 c 1
 220 530 210 410 210 300 c 3
 210 230 225 140 240 90 c 1
 260 160 280 205 313 238 c 0
 343 268 390 290 460 300 c 1024
510 30 m 3
 430 30 400 70 360 170 c 1024
EndSplineSet
EndChar

StartChar: k.XI
Encoding: 57548 57548 160
Width: 940
VWidth: 0
GlyphClass: 2
Flags: HMW
AnchorPoint: "top" 730 590 basechar 0
AnchorPoint: "middle" 640 410 basechar 0
AnchorPoint: "bottom" 710 -70 basechar 0
LayerCount: 2
Fore
SplineSet
870 50 m 1
 850 35 830 30 810 30 c 3
 750 30 710 110 690 170 c 1024
70 -250 m 0
 70 -110 211 50 336 200 c 0
 436 320 528 461 570 630 c 1
 550 530 540 410 540 300 c 3
 540 230 555 140 570 90 c 1
 590 160 610 205 643 238 c 0
 673 268 720 290 790 300 c 1024
EndSplineSet
Substitution2: "'aalt' XI_-1" k.XI_
EndChar

StartChar: k.XI_
Encoding: 57580 57580 161
Width: 810
VWidth: 0
GlyphClass: 2
Flags: HMW
AnchorPoint: "top" 730 590 basechar 0
AnchorPoint: "middle" 640 410 basechar 0
AnchorPoint: "bottom" 710 -70 basechar 0
LayerCount: 2
Fore
SplineSet
840 30 m 3
 760 30 730 70 690 170 c 1024
70 -250 m 0
 70 -110 211 50 336 200 c 0
 436 320 528 461 570 630 c 1
 550 530 540 410 540 300 c 3
 540 230 555 140 570 90 c 1
 590 160 610 205 643 238 c 0
 673 268 720 290 790 300 c 1024
EndSplineSet
EndChar

StartChar: t.I_
Encoding: 57397 57397 162
Width: 320
VWidth: 0
GlyphClass: 2
Flags: HMW
AnchorPoint: "bottom" 250 -70 basechar 0
AnchorPoint: "middle" 210 230 basechar 0
AnchorPoint: "top" 270 590 basechar 0
LayerCount: 2
Fore
SplineSet
350 30 m 3
 240 30 140 110 140 360 c 3
 140 470 170 570 170 570 c 1024
70 340 m 17
 130 350 230 360 330 360 c 1024
EndSplineSet
EndChar

StartChar: t.I
Encoding: 57365 57365 163
Width: 390
VWidth: 0
GlyphClass: 2
Flags: HMW
LayerCount: 2
Fore
SplineSet
320 240 m 17
 250 230 203 208 173 178 c 0
 140 145 120 100 100 30 c 1
 85 80 70 170 70 240 c 3
 70 350 80 470 100 570 c 1025
EndSplineSet
EndChar

StartChar: t._I
Encoding: 57429 57429 164
Width: 630
VWidth: 0
GlyphClass: 2
Flags: HMW
AnchorPoint: "bottom" 440 -70 basechar 0
AnchorPoint: "middle" 410 410 basechar 0
AnchorPoint: "top" 440 590 basechar 0
LayerCount: 2
Fore
SplineSet
560 240 m 17
 490 230 443 208 413 178 c 0
 380 145 360 100 340 30 c 1
 325 80 310 170 310 240 c 3
 310 392 335 542 340 570 c 1
 333 543 196 30 30 30 c 1024
EndSplineSet
EndChar

StartChar: t.VI
Encoding: 57493 57493 165
Width: 530
VWidth: 0
GlyphClass: 2
Flags: HMW
AnchorPoint: "bottom" 340 -70 basechar 0
AnchorPoint: "middle" 310 410 basechar 0
AnchorPoint: "top" 340 590 basechar 0
LayerCount: 2
Fore
SplineSet
460 240 m 17
 390 230 343 208 313 178 c 0
 280 145 260 100 240 30 c 1
 225 80 210 170 210 240 c 3
 210 399 237 551 240 570 c 1
 234 546 126 210 30 210 c 1024
EndSplineSet
EndChar

StartChar: t.XI
Encoding: 57557 57557 166
Width: 860
VWidth: 0
GlyphClass: 2
Flags: HMW
AnchorPoint: "bottom" 670 -70 basechar 0
AnchorPoint: "middle" 640 410 basechar 0
AnchorPoint: "top" 680 590 basechar 0
LayerCount: 2
Fore
SplineSet
70 -250 m 0
 70 -110 211 50 336 200 c 0
 476 368 550 490 580 570 c 1
 558 490 540 380 540 240 c 3
 540 170 555 80 570 30 c 1
 590 100 610 145 643 178 c 0
 673 208 720 230 790 240 c 1033
EndSplineSet
EndChar

StartChar: r.I_
Encoding: 57395 57395 167
Width: 420
VWidth: 0
GlyphClass: 2
Flags: HMW
AnchorPoint: "bottom" 230 -70 basechar 0
AnchorPoint: "middle" 310 160 basechar 0
AnchorPoint: "top" 210 390 basechar 0
LayerCount: 2
Fore
SplineSet
80 190 m 1
 75 204 70 215 70 230 c 1
 70 250 86 271 116 283 c 0
 146 295 180 300 210 300 c 3
 260 300 300 270 310 200 c 0
 325 95 360 30 450 30 c 1024
EndSplineSet
Substitution2: "'aalt' _I_-1" r._I_
Substitution2: "'aalt' VI_-1" r.VI_
Substitution2: "'aalt' XI_-1" r.XI_
EndChar

StartChar: r._I
Encoding: 57427 57427 168
Width: 620
VWidth: 0
GlyphClass: 2
Flags: HMW
AnchorPoint: "bottom" 330 -70 basechar 0
AnchorPoint: "middle" 410 160 basechar 0
AnchorPoint: "top" 310 390 basechar 0
LayerCount: 2
Fore
SplineSet
550 40 m 0
 550 40 540 30 510 30 c 3
 450 30 425 95 410 200 c 0
 400 270 360 300 310 300 c 3
 270 300 240 291 220 285 c 0
 200 279 180 265 180 240 c 3
 180 230 183 218 185 210 c 0
 187 202 190 190 190 180 c 3
 190 100 110 30 30 30 c 1024
EndSplineSet
Substitution2: "'aalt' _I_-1" r._I_
EndChar

StartChar: r.I
Encoding: 57363 57363 169
Width: 520
VWidth: 0
GlyphClass: 2
Flags: HMW
LayerCount: 2
Fore
SplineSet
80 190 m 1
 75 204 70 215 70 230 c 1
 70 250 86 271 116 283 c 0
 146 295 180 300 210 300 c 3
 260 300 300 270 310 200 c 0
 325 95 350 30 410 30 c 3
 440 30 450 40 450 40 c 1024
EndSplineSet
EndChar

StartChar: r._I_
Encoding: 57459 57459 170
Width: 520
VWidth: 0
GlyphClass: 2
Flags: HMW
AnchorPoint: "bottom" 330 -70 basechar 0
AnchorPoint: "middle" 410 160 basechar 0
AnchorPoint: "top" 310 390 basechar 0
LayerCount: 2
Fore
SplineSet
30 30 m 0
 110 30 190 100 190 180 c 3
 190 190 187 202 185 210 c 0
 183 218 180 230 180 240 c 3
 180 265 200 279 220 285 c 0
 240 291 270 300 310 300 c 3
 360 300 400 270 410 200 c 0
 425 95 460 30 550 30 c 1027
EndSplineSet
EndChar

StartChar: r.VI
Encoding: 57491 57491 171
Width: 550
VWidth: 0
GlyphClass: 2
Flags: HMW
AnchorPoint: "bottom" 260 -70 basechar 0
AnchorPoint: "middle" 340 160 basechar 0
AnchorPoint: "top" 240 390 basechar 0
LayerCount: 2
Fore
SplineSet
30 210 m 0
 80 210 115 220 120 250 c 0
 124 274 150 300 240 300 c 3
 300 300 331 263 340 200 c 0
 355 95 380 30 440 30 c 3
 470 30 480 40 480 40 c 1024
EndSplineSet
Substitution2: "'aalt' VI_-1" r.VI_
EndChar

StartChar: r.VI_
Encoding: 57523 57523 172
Width: 450
VWidth: 0
GlyphClass: 2
Flags: HMW
AnchorPoint: "bottom" 260 -70 basechar 0
AnchorPoint: "middle" 340 160 basechar 0
AnchorPoint: "top" 240 390 basechar 0
LayerCount: 2
Fore
SplineSet
30 210 m 0
 80 210 115 220 120 250 c 0
 124 274 150 300 240 300 c 3
 300 300 331 263 340 200 c 0
 355 95 390 30 480 30 c 1027
EndSplineSet
EndChar

StartChar: r.XI
Encoding: 57555 57555 173
Width: 820
VWidth: 0
GlyphClass: 2
Flags: HMW
AnchorPoint: "bottom" 530 -70 basechar 0
AnchorPoint: "middle" 610 160 basechar 0
AnchorPoint: "top" 510 390 basechar 0
LayerCount: 2
Fore
SplineSet
750 40 m 0
 750 40 740 30 710 30 c 3
 650 30 625 95 610 200 c 0
 600 270 560 300 510 300 c 3
 470 300 440 291 420 285 c 0
 400 279 380 265 380 240 c 3
 380 230 383 218 385 210 c 0
 387 202 390 190 390 180 c 3
 390 140 350 100 240 20 c 0
 130 -60 70 -130 70 -250 c 1027
EndSplineSet
Substitution2: "'aalt' XI_-1" r.XI_
EndChar

StartChar: r.XI_
Encoding: 57587 57587 174
Width: 720
VWidth: 30
GlyphClass: 2
Flags: HMW
AnchorPoint: "bottom" 530 -70 basechar 0
AnchorPoint: "middle" 610 160 basechar 0
AnchorPoint: "top" 510 390 basechar 0
LayerCount: 2
Fore
SplineSet
750 30 m 3
 660 30 625 95 610 200 c 0
 600 270 560 300 510 300 c 3
 470 300 440 291 420 285 c 0
 400 279 380 265 380 240 c 3
 380 230 383 218 385 210 c 0
 387 202 390 190 390 180 c 3
 390 140 350 100 240 20 c 0
 130 -60 70 -130 70 -250 c 1027
EndSplineSet
EndChar

StartChar: c.I
Encoding: 57348 57348 175
Width: 400
VWidth: 30
Flags: HMW
LayerCount: 2
Fore
SplineSet
270 290 m 1
 254 298 240 300 220 300 c 3
 140 300 70 220 70 140 c 3
 70 75 115 30 180 30 c 3
 230 30 270 40 330 80 c 1025
EndSplineSet
EndChar

StartChar: c.I_
Encoding: 57380 57380 176
Width: 210
VWidth: 0
Flags: HMW
AnchorPoint: "bottom" 180 -70 basechar 0
AnchorPoint: "middle" 170 160 basechar 0
AnchorPoint: "top" 180 390 basechar 0
LayerCount: 2
Fore
SplineSet
220 290 m 1
 208 296 194 300 180 300 c 3
 119 300 70 242 70 170 c 3
 70 93 146 30 240 30 c 1024
EndSplineSet
Substitution2: "cyrl aalt XI_-1" c.XI_
Substitution2: "cyrl aalt VI_-1" c.VI_
Substitution2: "cyrl aalt _I_-1" c._I_
Substitution2: "'aalt' XI_-1" c.XI_
Substitution2: "'aalt' VI_-1" c.VI_
Substitution2: "'aalt' _I_-1" c._I_
EndChar

StartChar: c._I
Encoding: 57412 57412 177
Width: 550
VWidth: 972
Flags: HMW
AnchorPoint: "bottom" 350 -70 basechar 0
AnchorPoint: "middle" 330 160 basechar 0
AnchorPoint: "top" 370 390 basechar 0
LayerCount: 2
Fore
SplineSet
420 290 m 1
 404 298 390 300 370 300 c 3
 290 300 220 223 220 140 c 3
 220 75 265 30 330 30 c 3
 380 30 420 40 480 80 c 1025
220 140 m 0
 120 40 80 30 30 30 c 1024
EndSplineSet
Substitution2: "cyrl aalt _I_-1" c._I_
Substitution2: "'aalt' _I_-1" c._I_
EndChar

StartChar: c._I_
Encoding: 57444 57444 178
Width: 360
VWidth: 0
Flags: HMW
AnchorPoint: "bottom" 330 -70 basechar 0
AnchorPoint: "middle" 320 160 basechar 0
AnchorPoint: "top" 330 390 basechar 0
LayerCount: 2
Fore
SplineSet
370 290 m 1
 358 296 344 300 330 300 c 3
 269 300 220 242 220 170 c 3
 220 93 296 30 390 30 c 1024
220 170 m 0
 160 80 100 30 30 30 c 1024
EndSplineSet
EndChar

StartChar: c.VI
Encoding: 57476 57476 179
Width: 430
VWidth: 0
Flags: HMW
AnchorPoint: "bottom" 230 -70 basechar 0
AnchorPoint: "middle" 210 160 basechar 0
AnchorPoint: "top" 250 390 basechar 0
LayerCount: 2
Fore
SplineSet
300 290 m 1
 284 298 270 300 250 300 c 3
 170 300 100 219 100 140 c 3
 100 75 145 30 210 30 c 3
 260 30 300 40 360 80 c 1025
130 231 m 17
 116 210 50 210 30 210 c 1027
EndSplineSet
Substitution2: "cyrl aalt VI_-1" c.VI_
Substitution2: "'aalt' VI_-1" c.VI_
EndChar

StartChar: c.VI_
Encoding: 57508 57508 180
Width: 260
VWidth: 0
Flags: HMW
AnchorPoint: "bottom" 230 -70 basechar 0
AnchorPoint: "middle" 220 160 basechar 0
AnchorPoint: "top" 230 390 basechar 0
LayerCount: 2
Fore
SplineSet
270 290 m 1
 258 296 244 300 230 300 c 3
 157 300 120 243 120 170 c 3
 120 80 200 30 290 30 c 1027
130 231 m 17
 116 210 50 210 30 210 c 1027
EndSplineSet
EndChar

StartChar: c.XI
Encoding: 57540 57540 181
Width: 760
VWidth: 0
Flags: HMW
AnchorPoint: "bottom" 560 -70 basechar 0
AnchorPoint: "middle" 540 160 basechar 0
AnchorPoint: "top" 580 390 basechar 0
LayerCount: 2
Fore
SplineSet
630 290 m 1
 614 298 600 300 580 300 c 3
 500 300 430 219 430 140 c 3
 430 74 474 30 540 30 c 3
 590 30 630 40 690 80 c 1025
510 279 m 0
 340 179 70 -40 70 -250 c 1027
EndSplineSet
Substitution2: "cyrl aalt XI_-1" c.XI_
Substitution2: "'aalt' XI_-1" c.XI_
EndChar

StartChar: c.XI_
Encoding: 57572 57572 182
Width: 590
VWidth: 972
Flags: HMW
AnchorPoint: "bottom" 560 -70 basechar 0
AnchorPoint: "middle" 550 160 basechar 0
AnchorPoint: "top" 560 390 basechar 0
LayerCount: 2
Fore
SplineSet
620 30 m 3
 526 30 450 93 450 170 c 3
 450 229 512 279 600 300 c 1
 360 246 70 -50 70 -250 c 1027
EndSplineSet
EndChar

StartChar: z.I
Encoding: 57371 57371 183
Width: 490
VWidth: 0
GlyphClass: 1
Flags: HMW
LayerCount: 2
Fore
SplineSet
420 30 m 0
 310 -70 210 -160 210 -250 c 3
 210 -280 230 -310 260 -310 c 3
 310 -310 360 -250 360 -170 c 3
 360 -60 270 -10 270 60 c 3
 270 100 300 170 300 210 c 3
 300 260 260 300 210 300 c 3
 180 300 146 295 116 283 c 0
 86 271 70 250 70 230 c 1
 70 215 75 204 80 190 c 1025
EndSplineSet
EndChar

StartChar: z._I
Encoding: 57435 57435 184
Width: 590
VWidth: 0
GlyphClass: 2
Flags: HMW
AnchorPoint: "top" 310 390 basechar 0
AnchorPoint: "bottom" 340 -270 basechar 0
AnchorPoint: "middle" 400 160 basechar 0
LayerCount: 2
Fore
SplineSet
520 30 m 0
 410 -70 310 -160 310 -250 c 3
 310 -280 330 -310 360 -310 c 3
 410 -310 460 -250 460 -170 c 3
 460 -60 370 -10 370 60 c 3
 370 100 400 170 400 210 c 3
 400 260 360 300 310 300 c 3
 270 300 240 291 220 285 c 0
 200 279 180 265 180 240 c 3
 180 230 183 218 185 210 c 0
 187 202 190 190 190 180 c 3
 190 100 110 30 30 30 c 1024
EndSplineSet
Substitution2: "'aalt' _IX-1" z._IX
EndChar

StartChar: z.IX
Encoding: 57403 57403 185
Width: 140
VWidth: 0
GlyphClass: 2
Flags: HMW
AnchorPoint: "top" 210 390 basechar 0
AnchorPoint: "bottom" 240 -270 basechar 0
AnchorPoint: "middle" 300 160 basechar 0
LayerCount: 2
Fore
SplineSet
210 -250 m 3
 210 -280 230 -310 260 -310 c 3
 310 -310 360 -250 360 -170 c 3
 360 -60 270 -10 270 60 c 3
 270 100 300 170 300 210 c 3
 300 260 260 300 210 300 c 3
 180 300 146 295 116 283 c 0
 86 271 70 250 70 230 c 1
 70 215 75 204 80 190 c 1025
EndSplineSet
Substitution2: "'aalt' _IX-1" z._IX
Substitution2: "'aalt' VIX-1" z.VIX
Substitution2: "'aalt' XIX-1" z.XIX
EndChar

StartChar: z._IX
Encoding: 57467 57467 186
Width: 240
VWidth: 0
GlyphClass: 2
Flags: HMW
AnchorPoint: "middle" 400 160 basechar 0
AnchorPoint: "bottom" 340 -270 basechar 0
AnchorPoint: "top" 310 390 basechar 0
LayerCount: 2
Fore
SplineSet
310 -250 m 3
 310 -280 330 -310 360 -310 c 3
 410 -310 460 -250 460 -170 c 3
 460 -60 370 -10 370 60 c 3
 370 100 400 170 400 210 c 3
 400 260 360 300 310 300 c 3
 270 300 240 291 220 285 c 0
 200 279 180 265 180 240 c 3
 180 230 183 218 185 210 c 0
 187 202 190 190 190 180 c 3
 190 100 110 30 30 30 c 1024
EndSplineSet
EndChar

StartChar: z.XI
Encoding: 57563 57563 187
Width: 790
VWidth: 0
GlyphClass: 2
Flags: HMW
AnchorPoint: "middle" 600 160 basechar 0
AnchorPoint: "bottom" 540 -270 basechar 0
AnchorPoint: "top" 510 390 basechar 0
LayerCount: 2
Fore
SplineSet
720 30 m 0
 610 -70 510 -160 510 -250 c 3
 510 -280 530 -310 560 -310 c 3
 610 -310 660 -250 660 -170 c 3
 660 -60 570 -10 570 60 c 3
 570 100 600 170 600 210 c 3
 600 260 560 300 510 300 c 3
 470 300 440 291 420 285 c 0
 400 279 380 265 380 240 c 3
 380 230 383 218 385 210 c 0
 387 202 390 190 390 180 c 3
 390 140 350 80 240 0 c 0
 130 -80 70 -170 70 -250 c 1027
EndSplineSet
Substitution2: "'aalt' XIX-1" z.XIX
EndChar

StartChar: z.XIX
Encoding: 57595 57595 188
Width: 440
VWidth: 0
GlyphClass: 2
Flags: HMW
AnchorPoint: "top" 510 390 basechar 0
AnchorPoint: "bottom" 540 -270 basechar 0
AnchorPoint: "middle" 600 160 basechar 0
LayerCount: 2
Fore
SplineSet
510 -250 m 3
 510 -280 530 -310 560 -310 c 3
 610 -310 660 -250 660 -170 c 3
 660 -60 570 -10 570 60 c 3
 570 100 600 170 600 210 c 3
 600 260 560 300 510 300 c 3
 470 300 440 291 420 285 c 0
 400 279 380 265 380 240 c 3
 380 230 383 218 385 210 c 0
 387 202 390 190 390 180 c 3
 390 140 350 80 240 0 c 0
 130 -80 70 -170 70 -250 c 1027
EndSplineSet
EndChar

StartChar: z.VI
Encoding: 57499 57499 189
Width: 500
VWidth: 0
GlyphClass: 2
Flags: HMW
AnchorPoint: "middle" 310 160 basechar 0
AnchorPoint: "bottom" 250 -270 basechar 0
AnchorPoint: "top" 220 390 basechar 0
LayerCount: 2
Fore
SplineSet
430 30 m 0
 320 -70 220 -160 220 -250 c 3
 220 -280 240 -310 270 -310 c 3
 320 -310 370 -250 370 -170 c 3
 370 -60 280 -10 280 60 c 3
 280 100 310 170 310 210 c 3
 310 260 270 300 220 300 c 3
 194 300 160 296 130 284 c 0
 110 276 93 265 90 250 c 0
 86 230 70 210 30 210 c 1024
EndSplineSet
Substitution2: "'aalt' VIX-1" z.VIX
EndChar

StartChar: z.VIX
Encoding: 57531 57531 190
Width: 150
VWidth: 0
GlyphClass: 2
Flags: HMW
AnchorPoint: "middle" 310 160 basechar 0
AnchorPoint: "bottom" 250 -270 basechar 0
AnchorPoint: "top" 220 390 basechar 0
LayerCount: 2
Fore
SplineSet
220 -250 m 3
 220 -280 240 -310 270 -310 c 3
 320 -310 370 -250 370 -170 c 3
 370 -60 280 -10 280 60 c 3
 280 100 310 170 310 210 c 3
 310 260 270 300 220 300 c 3
 194 300 160 296 130 284 c 0
 110 276 93 265 90 250 c 0
 86 230 70 210 30 210 c 1024
EndSplineSet
EndChar

StartChar: u._I_
Encoding: 57462 57462 191
Width: 580
VWidth: 0
GlyphClass: 2
Flags: HMW
AnchorPoint: "top" 440 390 basechar 0
AnchorPoint: "middle" 370 190 basechar 0
AnchorPoint: "bottom" 410 -70 basechar 0
LayerCount: 2
Fore
SplineSet
30 30 m 3
 162 30 226 190 250 270 c 1
 242 230 240 190 240 170 c 3
 240 100 280 50 350 50 c 3
 460 50 506 200 510 300 c 1
 510 80 540 30 610 30 c 1024
EndSplineSet
EndChar

StartChar: u.I
Encoding: 57366 57366 192
Width: 0
VWidth: -30
GlyphClass: 2
Flags: HMW
LayerCount: 2
Fore
SplineSet
490 60 m 0
 490 60 465 30 430 30 c 3
 347 30 340 190 340 270 c 1
 340 270 320 30 180 30 c 3
 110 30 70 80 70 150 c 3
 70 210 80 240 80 240 c 1024
EndSplineSet
EndChar

StartChar: u.I_
Encoding: 57398 57398 193
Width: 380
VWidth: 0
GlyphClass: 2
Flags: HMW
AnchorPoint: "bottom" 220 -70 basechar 0
AnchorPoint: "middle" 200 190 basechar 0
AnchorPoint: "top" 250 390 basechar 0
LayerCount: 2
Fore
SplineSet
410 30 m 3
 350 30 330 70 330 140 c 3
 330 170 336 210 340 240 c 1
 334 210 295 30 180 30 c 3
 110 30 70 80 70 150 c 3
 70 210 90 260 90 260 c 1024
EndSplineSet
Substitution2: "'aalt' _I_-1" u._I_
Substitution2: "'aalt' VI_-1" u.VI_
Substitution2: "'aalt' XI_-1" u.XI_
Substitution2: "cyrl aalt _I_-1" u._I_
Substitution2: "cyrl aalt VI_-1" u.VI_
Substitution2: "cyrl aalt XI_-1" u.XI_
EndChar

StartChar: u._I
Encoding: 57430 57430 194
Width: 710
VWidth: 0
GlyphClass: 2
Flags: HMW
AnchorPoint: "bottom" 410 -70 basechar 0
AnchorPoint: "middle" 370 190 basechar 0
AnchorPoint: "top" 440 390 basechar 0
LayerCount: 2
Fore
SplineSet
30 30 m 3
 162 30 226 190 250 270 c 1
 242 230 240 190 240 170 c 3
 240 100 280 50 350 50 c 3
 460 50 506 200 510 300 c 1
 514 200 550 70 640 70 c 1027
EndSplineSet
Substitution2: "'aalt' _I_-1" u._I_
Substitution2: "cyrl aalt _I_-1" u._I_
EndChar

StartChar: u.VI
Encoding: 57494 57494 195
Width: 600
VWidth: 0
GlyphClass: 2
Flags: HMW
AnchorPoint: "bottom" 260 -70 basechar 0
AnchorPoint: "middle" 240 190 basechar 0
AnchorPoint: "top" 290 390 basechar 0
LayerCount: 2
Fore
SplineSet
530 40 m 1
 530 40 515 30 485 30 c 3
 405 30 384 200 380 300 c 1
 376 200 330 50 220 50 c 3
 150 50 110 100 110 170 c 3
 110 190 112 230 120 270 c 1
 105 240 80 210 30 210 c 1024
EndSplineSet
Substitution2: "'aalt' VI_-1" u.VI_
Substitution2: "cyrl aalt VI_-1" u.VI_
EndChar

StartChar: u.VI_
Encoding: 57526 57526 196
Width: 450
VWidth: 0
GlyphClass: 2
Flags: HMW
AnchorPoint: "top" 290 390 basechar 0
AnchorPoint: "middle" 240 190 basechar 0
AnchorPoint: "bottom" 260 -70 basechar 0
LayerCount: 2
Fore
SplineSet
480 30 m 3
 410 30 380 80 380 300 c 1
 376 200 330 50 220 50 c 3
 150 50 110 100 110 170 c 3
 110 190 112 230 120 270 c 1
 105 240 80 210 30 210 c 1024
EndSplineSet
EndChar

StartChar: u.XI
Encoding: 57558 57558 197
Width: 960
VWidth: 0
GlyphClass: 2
Flags: HMW
AnchorPoint: "top" 650 390 basechar 0
AnchorPoint: "middle" 600 190 basechar 0
AnchorPoint: "bottom" 620 -70 basechar 0
LayerCount: 2
Fore
SplineSet
890 80 m 0
 890 80 865 60 830 60 c 3
 747 60 740 220 740 300 c 1
 740 300 720 60 580 60 c 3
 510 60 470 110 470 180 c 3
 470 200 472 230 480 270 c 1
 360 170 270 80 200 0 c 0
 130 -80 70 -150 70 -250 c 1024
EndSplineSet
Substitution2: "'aalt' XI_-1" u.XI_
Substitution2: "cyrl aalt XI_-1" u.XI_
EndChar

StartChar: u.XI_
Encoding: 57590 57590 198
Width: 810
VWidth: 0
GlyphClass: 2
Flags: HMW
AnchorPoint: "bottom" 620 -70 basechar 0
AnchorPoint: "middle" 600 190 basechar 0
AnchorPoint: "top" 650 390 basechar 0
LayerCount: 2
Fore
SplineSet
70 -250 m 3
 70 -150 130 -80 200 0 c 0
 270 80 360 170 480 270 c 1
 472 230 470 190 470 170 c 3
 470 100 510 50 580 50 c 3
 690 50 736 200 740 300 c 1
 740 80 770 30 840 30 c 1024
EndSplineSet
EndChar

StartChar: y._IX
Encoding: 57466 57466 199
Width: 340
VWidth: 0
GlyphClass: 2
Flags: HMW
AnchorPoint: "bottom" 440 -270 basechar 0
AnchorPoint: "middle" 340 190 basechar 0
AnchorPoint: "top" 390 390 basechar 0
LayerCount: 2
Fore
SplineSet
30 30 m 3
 120 30 190 160 220 270 c 1
 212 230 210 210 210 180 c 3
 210 110 250 60 320 60 c 3
 410 60 476 200 480 300 c 1
 500 200 550 -30 550 -170 c 3
 550 -250 510 -310 460 -310 c 3
 430 -310 410 -280 410 -250 c 1024
EndSplineSet
EndChar

StartChar: y._I
Encoding: 57434 57434 200
Width: 750
VWidth: 0
GlyphClass: 2
Flags: HMW
AnchorPoint: "bottom" 440 -270 basechar 0
AnchorPoint: "middle" 340 190 basechar 0
AnchorPoint: "top" 390 390 basechar 0
LayerCount: 2
Fore
SplineSet
680 130 m 17
 580 60 410 -110 410 -250 c 3
 410 -280 430 -310 460 -310 c 3
 510 -310 550 -250 550 -170 c 3
 550 -30 500 200 480 300 c 1
 476 200 410 60 320 60 c 3
 250 60 210 110 210 180 c 3
 210 210 212 230 220 270 c 1
 190 160 120 30 30 30 c 1027
EndSplineSet
Substitution2: "'aalt' _IX-1" y._IX
Substitution2: "cyrl aalt _IX-1" y._IX
EndChar

StartChar: y.I
Encoding: 57370 57370 201
Width: 610
VWidth: 0
GlyphClass: 2
Flags: HMW
LayerCount: 2
Fore
SplineSet
540 130 m 17
 440 60 270 -110 270 -250 c 3
 270 -280 290 -310 320 -310 c 3
 370 -310 410 -250 410 -170 c 3
 410 -30 360 200 340 300 c 1
 336 200 270 60 180 60 c 3
 110 60 70 110 70 180 c 3
 70 210 72 230 80 270 c 1025
EndSplineSet
EndChar

StartChar: y.IX
Encoding: 57402 57402 202
Width: 200
VWidth: 0
GlyphClass: 2
Flags: HMW
AnchorPoint: "bottom" 300 -270 basechar 0
AnchorPoint: "middle" 200 190 basechar 0
AnchorPoint: "top" 250 390 basechar 0
LayerCount: 2
Fore
SplineSet
270 -250 m 3
 270 -280 290 -310 320 -310 c 3
 370 -310 410 -250 410 -170 c 3
 410 -30 360 200 340 300 c 1
 336 200 270 60 180 60 c 3
 110 60 70 110 70 180 c 3
 70 210 72 230 80 270 c 1025
EndSplineSet
Substitution2: "'aalt' _IX-1" y._IX
Substitution2: "'aalt' VIX-1" y.VIX
Substitution2: "'aalt' XIX-1" y.XIX
Substitution2: "cyrl aalt _IX-1" y._IX
Substitution2: "cyrl aalt XIX-1" y.XIX
Substitution2: "cyrl aalt VIX-1" y.VIX
EndChar

StartChar: y.VI
Encoding: 57498 57498 203
Width: 660
VWidth: 0
GlyphClass: 2
Flags: HMW
AnchorPoint: "bottom" 350 -270 basechar 0
AnchorPoint: "middle" 250 190 basechar 0
AnchorPoint: "top" 300 390 basechar 0
LayerCount: 2
Fore
SplineSet
590 130 m 17
 490 60 320 -110 320 -250 c 3
 320 -280 340 -310 370 -310 c 3
 420 -310 460 -250 460 -170 c 3
 460 -30 410 200 390 300 c 1
 386 200 320 60 230 60 c 3
 160 60 120 110 120 180 c 3
 120 210 122 230 130 270 c 1
 115 240 70 210 30 210 c 1024
EndSplineSet
Substitution2: "'aalt' VIX-1" y.VIX
Substitution2: "cyrl aalt VIX-1" y.VIX
EndChar

StartChar: y.VIX
Encoding: 57530 57530 204
Width: 250
VWidth: 0
GlyphClass: 2
Flags: HMW
AnchorPoint: "bottom" 350 -270 basechar 0
AnchorPoint: "middle" 250 190 basechar 0
AnchorPoint: "top" 300 390 basechar 0
LayerCount: 2
Fore
SplineSet
320 -250 m 3
 320 -280 340 -310 370 -310 c 3
 420 -310 460 -250 460 -170 c 3
 460 -30 410 200 390 300 c 1
 386 200 320 60 230 60 c 3
 160 60 120 110 120 180 c 3
 120 210 122 230 130 270 c 1
 115 240 70 210 30 210 c 1024
EndSplineSet
EndChar

StartChar: y.XI
Encoding: 57562 57562 205
Width: 970
VWidth: 0
GlyphClass: 2
Flags: HMW
AnchorPoint: "bottom" 660 -270 basechar 0
AnchorPoint: "middle" 560 190 basechar 0
AnchorPoint: "top" 610 390 basechar 0
LayerCount: 2
Fore
SplineSet
70 -250 m 3
 70 -110 240 35 440 235 c 1
 440 235 430 210 430 180 c 3
 430 110 470 60 540 60 c 3
 630 60 696 200 700 300 c 1
 720 200 770 -30 770 -170 c 3
 770 -250 730 -310 680 -310 c 3
 650 -310 630 -280 630 -250 c 3
 630 -110 800 60 900 130 c 1033
EndSplineSet
Substitution2: "'aalt' XIX-1" y.XIX
Substitution2: "cyrl aalt XIX-1" y.XIX
EndChar

StartChar: y.XIX
Encoding: 57594 57594 206
Width: 560
VWidth: 0
GlyphClass: 2
Flags: HMW
AnchorPoint: "bottom" 660 -270 basechar 0
AnchorPoint: "middle" 560 190 basechar 0
AnchorPoint: "top" 610 390 basechar 0
LayerCount: 2
Fore
SplineSet
70 -250 m 3
 70 -110 240 35 440 235 c 1
 440 235 430 210 430 180 c 3
 430 110 470 60 540 60 c 3
 630 60 696 200 700 300 c 1
 720 200 770 -30 770 -170 c 3
 770 -250 730 -310 680 -310 c 3
 650 -310 630 -280 630 -250 c 1027
EndSplineSet
EndChar

StartChar: x._I
Encoding: 57433 57433 207
Width: 630
VWidth: 30
GlyphClass: 2
Flags: HMW
AnchorPoint: "bottom" 380 -100 basechar 0
AnchorPoint: "middle" 380 160 basechar 0
AnchorPoint: "top" 430 390 basechar 0
LayerCount: 2
Fore
SplineSet
240 -81 m 0
 275 59 360 270 460 270 c 3
 520 270 560 210 560 150 c 3
 560 92 518 60 460 60 c 3
 410 60 350 90 300 160 c 0
 250 230 202 289 200 290 c 1
 215 260 220 235 220 200 c 3
 220 110 120 30 30 30 c 1027
EndSplineSet
EndChar

StartChar: x.I
Encoding: 57369 57369 208
Width: 500
VWidth: 30
GlyphClass: 2
Flags: HMW
LayerCount: 2
Fore
SplineSet
110 -81 m 0
 145 59 230 270 330 270 c 3
 390 270 430 210 430 150 c 3
 430 92 388 60 330 60 c 3
 280 60 220 90 170 160 c 0
 120 230 72 289 70 290 c 1025
EndSplineSet
EndChar

StartChar: x.VI
Encoding: 57497 57497 209
Width: 500
VWidth: 30
GlyphClass: 2
Flags: HMW
AnchorPoint: "bottom" 250 -100 basechar 0
AnchorPoint: "middle" 250 160 basechar 0
AnchorPoint: "top" 300 390 basechar 0
LayerCount: 2
Fore
SplineSet
30 210 m 3
 90 210 140 175 170 150 c 0
 230 100 280 60 330 60 c 3
 388 60 430 92 430 150 c 3
 430 210 390 270 330 270 c 3
 230 270 145 59 110 -81 c 1024
EndSplineSet
EndChar

StartChar: x.XI
Encoding: 57561 57561 210
Width: 860
VWidth: 0
GlyphClass: 2
Flags: HMW
AnchorPoint: "bottom" 610 -100 basechar 0
AnchorPoint: "middle" 610 160 basechar 0
AnchorPoint: "top" 660 390 basechar 0
LayerCount: 2
Fore
SplineSet
470 -81 m 0
 505 59 590 270 690 270 c 3
 750 270 790 210 790 150 c 3
 790 92 748 60 690 60 c 3
 640 60 580 90 530 160 c 0
 480 230 452 269 450 270 c 1
 370 190 70 -80 70 -250 c 1027
EndSplineSet
EndChar

StartChar: o._I
Encoding: 57424 57424 211
Width: 580
VWidth: 972
GlyphClass: 2
Flags: HMW
AnchorPoint: "bottom" 370 -70 basechar 0
AnchorPoint: "middle" 360 160 basechar 0
AnchorPoint: "top" 400 390 basechar 0
LayerCount: 2
Fore
SplineSet
330 280 m 1
 350 294 375 300 400 300 c 3
 465 300 510 255 510 190 c 3
 510 100 430 30 340 30 c 3
 270 30 220 80 220 150 c 3
 220 160 222 180 230 200 c 1
 210 160 140 30 30 30 c 1027
EndSplineSet
Substitution2: "'aalt' _IV-1" o._IV
Substitution2: "cyrl aalt _IV-1" o._IV
EndChar

StartChar: o._IV
Encoding: 57456 57456 212
Width: 530
VWidth: 0
GlyphClass: 2
Flags: HMW
AnchorPoint: "bottom" 370 -70 basechar 0
AnchorPoint: "middle" 360 110 basechar 0
AnchorPoint: "top" 400 390 basechar 0
LayerCount: 2
Fore
SplineSet
560 210 m 3
 480 210 470 216 400 250 c 1
 470 210 490 175 490 130 c 3
 490 50 420 0 340 0 c 3
 270 0 200 40 200 110 c 3
 200 140 220 170 240 200 c 1
 210 160 130 30 30 30 c 1027
EndSplineSet
EndChar

StartChar: o.VI
Encoding: 57488 57488 213
Width: 460
VWidth: 972
GlyphClass: 2
Flags: HMW
AnchorPoint: "bottom" 250 -70 basechar 0
AnchorPoint: "middle" 240 160 basechar 0
AnchorPoint: "top" 280 390 basechar 0
LayerCount: 2
Fore
SplineSet
210 280 m 1
 230 294 255 300 280 300 c 3
 345 300 390 255 390 190 c 3
 390 100 310 30 220 30 c 3
 150 30 100 80 100 150 c 3
 100 160 102 190 110 210 c 1
 95 210 45 210 30 210 c 1024
EndSplineSet
Substitution2: "'aalt' VIV-1" o.VIV
Substitution2: "cyrl aalt VIV-1" o.VIV
EndChar

StartChar: o.VIV
Encoding: 57520 57520 214
Width: 410
VWidth: 0
GlyphClass: 2
Flags: HMW
AnchorPoint: "bottom" 250 -70 basechar 0
AnchorPoint: "middle" 240 110 basechar 0
AnchorPoint: "top" 280 390 basechar 0
LayerCount: 2
Fore
SplineSet
440 210 m 3
 360 210 350 216 280 250 c 1
 350 210 370 175 370 130 c 3
 370 50 300 0 220 0 c 3
 155 0 100 45 100 110 c 3
 100 180 140 210 140 210 c 1
 125 210 45 210 30 210 c 1024
EndSplineSet
EndChar

StartChar: o.IV
Encoding: 57392 57392 215
Width: 400
VWidth: 0
GlyphClass: 2
Flags: HMW
AnchorPoint: "bottom" 220 -70 basechar 0
AnchorPoint: "middle" 210 160 basechar 0
AnchorPoint: "top" 250 390 basechar 0
LayerCount: 2
Fore
SplineSet
240 290 m 1
 224 298 210 300 190 300 c 3
 120 300 70 240 70 170 c 3
 70 90 130 30 210 30 c 3
 285 30 360 80 360 155 c 3
 360 195 350 220 330 240 c 1
 362 216 390 210 430 210 c 1024
EndSplineSet
Substitution2: "'aalt' _IV-1" o._IV
Substitution2: "'aalt' VIV-1" o.VIV
Substitution2: "'aalt' XIV-1" o.XIV
Substitution2: "cyrl aalt _IV-1" o._IV
Substitution2: "cyrl aalt VIV-1" o.VIV
Substitution2: "cyrl aalt XIV-1" o.XIV
EndChar

StartChar: o.I
Encoding: 57360 57360 216
Width: 430
VWidth: 972
GlyphClass: 2
Flags: HMW
LayerCount: 2
Fore
SplineSet
100 250 m 0
 80 220 70 185 70 150 c 3
 70 80 120 30 190 30 c 3
 280 30 360 100 360 190 c 3
 360 255 315 300 250 300 c 3
 225 300 200 294 180 280 c 1025
EndSplineSet
EndChar

StartChar: o.XI
Encoding: 57552 57552 217
Width: 790
VWidth: 972
GlyphClass: 2
Flags: HMW
AnchorPoint: "bottom" 580 -70 basechar 0
AnchorPoint: "middle" 570 160 basechar 0
AnchorPoint: "top" 610 390 basechar 0
LayerCount: 2
Fore
SplineSet
540 280 m 1
 560 294 585 300 610 300 c 3
 675 300 720 255 720 190 c 3
 720 100 640 30 550 30 c 3
 480 30 430 80 430 150 c 3
 430 160 432 180 440 200 c 1
 350 140 285 80 205 0 c 0
 155 -50 70 -160 70 -250 c 1027
EndSplineSet
Substitution2: "'aalt' XIV-1" o.XIV
Substitution2: "cyrl aalt XIV-1" o.XIV
EndChar

StartChar: o.XIV
Encoding: 57584 57584 218
Width: 740
VWidth: 0
GlyphClass: 2
Flags: HMW
AnchorPoint: "bottom" 580 -70 basechar 0
AnchorPoint: "middle" 570 110 basechar 0
AnchorPoint: "top" 610 390 basechar 0
LayerCount: 2
Fore
SplineSet
770 210 m 3
 690 210 680 216 610 250 c 1
 680 210 700 175 700 130 c 3
 700 50 630 0 550 0 c 3
 480 0 410 40 410 110 c 3
 410 140 430 170 450 200 c 1
 360 140 285 80 205 0 c 0
 155 -50 70 -160 70 -250 c 1027
EndSplineSet
EndChar

StartChar: s.I
Encoding: 57364 57364 219
Width: 550
VWidth: 0
GlyphClass: 2
Flags: HMW
LayerCount: 2
Fore
SplineSet
70 30 m 0
 160 170 280 300 370 300 c 3
 430 300 480 230 480 170 c 3
 480 93 413 30 340 30 c 3
 303 30 280 50 280 50 c 1024
EndSplineSet
EndChar

StartChar: s.IV
Encoding: 57396 57396 220
Width: 520
VWidth: 0
GlyphClass: 2
Flags: HMW
AnchorPoint: "top" 370 390 basechar 0
AnchorPoint: "middle" 340 160 basechar 0
AnchorPoint: "bottom" 340 -70 basechar 0
LayerCount: 2
Fore
SplineSet
550 210 m 3
 440 210 340 160 340 80 c 3
 340 52 362 30 390 30 c 3
 450 30 480 100 480 170 c 3
 480 230 430 300 370 300 c 3
 280 300 160 170 70 30 c 1024
EndSplineSet
Substitution2: "'aalt' _IV-1" s._IV
Substitution2: "'aalt' VIV-1" s.VIV
Substitution2: "'aalt' XIV-1" s.XIV
EndChar

StartChar: s._I
Encoding: 57428 57428 221
Width: 610
VWidth: 0
GlyphClass: 2
Flags: HMW
AnchorPoint: "top" 420 390 basechar 0
AnchorPoint: "middle" 400 160 basechar 0
AnchorPoint: "bottom" 400 -70 basechar 0
LayerCount: 2
Fore
SplineSet
390 50 m 0
 410 35 430 30 450 30 c 0
 500 30 540 70 540 130 c 3
 540 205 495 290 420 290 c 3
 350 290 290 210 240 160 c 0
 190 110 100 30 30 30 c 1027
EndSplineSet
Substitution2: "'aalt' _IV-1" s._IV
EndChar

StartChar: s._IV
Encoding: 57460 57460 222
Width: 580
VWidth: 0
GlyphClass: 2
Flags: HMW
AnchorPoint: "bottom" 400 -70 basechar 0
AnchorPoint: "middle" 400 160 basechar 0
AnchorPoint: "top" 420 390 basechar 0
LayerCount: 2
Fore
SplineSet
30 30 m 3
 100 30 190 110 240 160 c 0
 290 210 350 290 420 290 c 3
 495 290 540 205 540 130 c 3
 540 70 500 30 450 30 c 0
 422 30 400 52 400 80 c 0
 400 160 500 210 610 210 c 1035
EndSplineSet
EndChar

StartChar: s.VI
Encoding: 57492 57492 223
Width: 470
VWidth: 0
GlyphClass: 2
Flags: HMW
AnchorPoint: "bottom" 260 -70 basechar 0
AnchorPoint: "middle" 260 160 basechar 0
AnchorPoint: "top" 280 390 basechar 0
LayerCount: 2
Fore
SplineSet
250 50 m 1
 270 35 290 30 310 30 c 3
 360 30 400 70 400 130 c 3
 400 200 350 290 280 290 c 3
 235 290 190 260 155 245 c 0
 120 230 70 210 30 210 c 1027
EndSplineSet
Substitution2: "'aalt' VIV-1" s.VIV
EndChar

StartChar: s.VIV
Encoding: 57524 57524 224
Width: 440
VWidth: 0
GlyphClass: 2
Flags: HMW
AnchorPoint: "top" 280 390 basechar 0
AnchorPoint: "middle" 260 160 basechar 0
AnchorPoint: "bottom" 260 -70 basechar 0
LayerCount: 2
Fore
SplineSet
30 210 m 3
 70 210 120 230 155 245 c 0
 190 260 235 290 280 290 c 3
 350 290 400 200 400 130 c 3
 400 70 360 30 310 30 c 3
 282 30 260 52 260 80 c 3
 260 160 360 210 470 210 c 1027
EndSplineSet
EndChar

StartChar: s.XI
Encoding: 57556 57556 225
Width: 800
VWidth: 0
GlyphClass: 2
Flags: HMW
AnchorPoint: "top" 620 390 basechar 0
AnchorPoint: "middle" 590 160 basechar 0
AnchorPoint: "bottom" 590 -70 basechar 0
LayerCount: 2
Fore
SplineSet
530 50 m 0
 530 50 553 30 590 30 c 3
 663 30 730 93 730 170 c 3
 730 240 680 300 610 300 c 3
 540 300 425 250 350 195 c 0
 200 85 70 -83 70 -250 c 1024
EndSplineSet
Substitution2: "'aalt' XIV-1" s.XIV
EndChar

StartChar: s.XIV
Encoding: 57588 57588 226
Width: 770
VWidth: 0
GlyphClass: 2
Flags: HMW
AnchorPoint: "bottom" 590 -70 basechar 0
AnchorPoint: "middle" 590 160 basechar 0
AnchorPoint: "top" 620 390 basechar 0
LayerCount: 2
Fore
SplineSet
800 210 m 3
 690 210 590 160 590 80 c 3
 590 52 612 30 640 30 c 3
 700 30 730 100 730 170 c 3
 730 240 680 300 610 300 c 3
 540 300 425 250 350 195 c 0
 200 85 70 -83 70 -250 c 1024
EndSplineSet
EndChar

StartChar: q.I
Encoding: 57362 57362 227
Width: 410
VWidth: 0
GlyphClass: 2
Flags: HMW
LayerCount: 2
Fore
SplineSet
340 -310 m 0
 332 -270 320 -180 320 -110 c 3
 320 0 328 100 340 160 c 1
 279 85 210 30 140 30 c 3
 95 30 70 65 70 110 c 3
 70 200 160 300 250 300 c 3
 280 300 310 280 320 250 c 1033
EndSplineSet
EndChar

StartChar: q.IX
Encoding: 57394 57394 228
Width: 220
VWidth: 0
GlyphClass: 2
Flags: HMW
AnchorPoint: "bottom" 200 -270 basechar 0
AnchorPoint: "middle" 200 160 basechar 0
AnchorPoint: "top" 250 390 basechar 0
LayerCount: 2
Fore
SplineSet
290 -250 m 3
 290 -110 340 120 340 190 c 1
 279 115 210 60 140 60 c 3
 95 60 70 95 70 140 c 3
 70 230 160 330 250 330 c 3
 280 330 310 310 320 280 c 1033
EndSplineSet
Substitution2: "'aalt' _IX-1" q._IX
Substitution2: "'aalt' VIX-1" q.VIX
Substitution2: "'aalt' XIX-1" q.XIX
EndChar

StartChar: q._IX
Encoding: 57458 57458 229
Width: 350
VWidth: 30
GlyphClass: 2
Flags: HMW
AnchorPoint: "bottom" 330 -270 basechar 0
AnchorPoint: "middle" 330 160 basechar 0
AnchorPoint: "top" 380 390 basechar 0
LayerCount: 2
Fore
SplineSet
30 30 m 3
 120 30 170 80 200 140 c 1025
420 -250 m 3
 420 -110 470 120 470 190 c 1
 409 115 340 60 270 60 c 3
 225 60 200 95 200 140 c 3
 200 230 290 330 380 330 c 3
 410 330 440 310 450 280 c 1033
EndSplineSet
EndChar

StartChar: q._I
Encoding: 57426 57426 230
Width: 540
VWidth: 0
GlyphClass: 2
Flags: HMW
AnchorPoint: "bottom" 330 -270 basechar 0
AnchorPoint: "middle" 330 160 basechar 0
AnchorPoint: "top" 380 390 basechar 0
LayerCount: 2
Fore
SplineSet
470 -310 m 0
 462 -270 450 -180 450 -110 c 3
 450 0 458 100 470 160 c 1
 409 85 340 30 270 30 c 3
 225 30 200 65 200 110 c 3
 200 200 290 300 380 300 c 3
 410 300 440 280 450 250 c 1033
30 30 m 3
 140 30 200 110 200 110 c 1025
EndSplineSet
Substitution2: "'aalt' _IX-1" q._IX
EndChar

StartChar: q.VI
Encoding: 57490 57490 231
Width: 440
VWidth: 0
GlyphClass: 2
Flags: HMW
AnchorPoint: "bottom" 230 -270 basechar 0
AnchorPoint: "middle" 230 160 basechar 0
AnchorPoint: "top" 280 390 basechar 0
LayerCount: 2
Fore
SplineSet
370 -310 m 0
 362 -270 350 -180 350 -110 c 3
 350 0 358 100 370 160 c 1
 309 85 240 30 170 30 c 3
 125 30 100 65 100 110 c 3
 100 200 190 300 280 300 c 3
 310 300 340 280 350 250 c 1033
150 232 m 1
 150 232 100 210 30 210 c 1024
EndSplineSet
Substitution2: "'aalt' VIX-1" q.VIX
EndChar

StartChar: q.VIX
Encoding: 57522 57522 232
Width: 250
VWidth: 0
GlyphClass: 2
Flags: HMW
AnchorPoint: "bottom" 230 -270 basechar 0
AnchorPoint: "middle" 230 160 basechar 0
AnchorPoint: "top" 280 390 basechar 0
LayerCount: 2
Fore
SplineSet
320 -250 m 3
 320 -110 370 120 370 190 c 1
 309 115 240 60 170 60 c 3
 125 60 100 95 100 140 c 3
 100 230 190 330 280 330 c 3
 310 330 340 310 350 280 c 1033
127 230 m 1
 127 230 100 210 30 210 c 1024
EndSplineSet
EndChar

StartChar: q.XI
Encoding: 57554 57554 233
Width: 770
VWidth: 0
GlyphClass: 2
Flags: HMW
AnchorPoint: "bottom" 560 -270 basechar 0
AnchorPoint: "middle" 560 160 basechar 0
AnchorPoint: "top" 660 390 basechar 0
LayerCount: 2
Fore
SplineSet
700 -310 m 0
 692 -270 680 -180 680 -110 c 3
 680 0 688 100 700 160 c 1
 650 60 570 20 500 20 c 3
 455 20 430 55 430 100 c 3
 430 174 490 239 610 300 c 1
 370 181 70 -70 70 -250 c 1027
EndSplineSet
Substitution2: "'aalt' XIX-1" q.XIX
EndChar

StartChar: q.XIX
Encoding: 57586 57586 234
Width: 590
VWidth: 30
GlyphClass: 2
Flags: HMW
AnchorPoint: "bottom" 560 -270 basechar 0
AnchorPoint: "middle" 560 160 basechar 0
AnchorPoint: "top" 660 390 basechar 0
LayerCount: 2
Fore
SplineSet
70 -250 m 3
 70 -70 370 181 610 300 c 1
 490 239 430 174 430 100 c 3
 430 55 455 20 500 20 c 3
 570 20 650 60 700 160 c 1
 700 90 660 -110 660 -250 c 1027
EndSplineSet
EndChar

StartChar: w.I
Encoding: 57368 57368 235
Width: 760
VWidth: 30
GlyphClass: 2
Flags: HMW
LayerCount: 2
Fore
SplineSet
690 180 m 1
 670 210 660 250 660 300 c 1
 640 200 520 80 440 80 c 3
 395 80 370 130 370 200 c 3
 370 225 370 252 370 280 c 1
 320 170 230 30 150 30 c 3
 95 30 70 95 70 150 c 3
 70 180 72 230 80 270 c 1025
EndSplineSet
EndChar

StartChar: w.IV
Encoding: 57400 57400 236
Width: 720
VWidth: 30
GlyphClass: 2
Flags: HMW
AnchorPoint: "bottom" 370 -70 basechar 0
AnchorPoint: "middle" 370 160 basechar 0
AnchorPoint: "top" 510 390 basechar 0
LayerCount: 2
Fore
SplineSet
750 210 m 0
 690 210 674 230 660 300 c 1
 640 200 520 80 440 80 c 3
 395 80 370 130 370 200 c 3
 370 225 370 252 370 280 c 1
 320 170 230 30 150 30 c 3
 95 30 70 95 70 150 c 3
 70 180 72 230 80 270 c 1025
EndSplineSet
Substitution2: "'aalt' _IV-1" w._IV
Substitution2: "'aalt' VIV-1" w.VIV
Substitution2: "'aalt' XIV-1" w.XIV
EndChar

StartChar: w._I
Encoding: 57432 57432 237
Width: 890
VWidth: 30
GlyphClass: 2
Flags: HMW
AnchorPoint: "bottom" 500 -70 basechar 0
AnchorPoint: "middle" 500 160 basechar 0
AnchorPoint: "top" 640 390 basechar 0
LayerCount: 2
Fore
SplineSet
30 30 m 3
 130 30 190 170 210 270 c 1
 202 220 200 180 200 150 c 3
 200 95 225 30 280 30 c 3
 360 30 450 170 500 280 c 1
 500 252 500 225 500 200 c 3
 500 130 525 80 570 80 c 3
 650 80 770 200 790 300 c 1
 790 250 800 210 820 180 c 1025
EndSplineSet
Substitution2: "'aalt' _IV-1" w._IV
EndChar

StartChar: w._IV
Encoding: 57464 57464 238
Width: 850
VWidth: 30
GlyphClass: 2
Flags: HMW
AnchorPoint: "bottom" 500 -70 basechar 0
AnchorPoint: "middle" 500 160 basechar 0
AnchorPoint: "top" 640 390 basechar 0
LayerCount: 2
Fore
SplineSet
880 210 m 0
 820 210 804 230 790 300 c 1
 770 200 650 80 570 80 c 3
 525 80 500 130 500 200 c 3
 500 225 500 252 500 280 c 1
 450 170 360 30 280 30 c 3
 225 30 200 95 200 150 c 3
 200 180 202 220 210 270 c 1
 190 170 130 30 30 30 c 1027
EndSplineSet
EndChar

StartChar: w.VI
Encoding: 57496 57496 239
Width: 790
VWidth: 30
GlyphClass: 2
Flags: HMW
AnchorPoint: "bottom" 400 -70 basechar 0
AnchorPoint: "middle" 400 160 basechar 0
AnchorPoint: "top" 540 390 basechar 0
LayerCount: 2
Fore
SplineSet
30 210 m 3
 50 210 80 210 100 210 c 1
 100 210 100 180 100 150 c 3
 100 95 125 30 180 30 c 3
 260 30 350 170 400 280 c 1
 400 252 400 225 400 200 c 3
 400 130 425 80 470 80 c 3
 550 80 670 200 690 300 c 1
 690 250 700 210 720 180 c 1025
EndSplineSet
Substitution2: "'aalt' VIV-1" w.VIV
EndChar

StartChar: w.VIV
Encoding: 57528 57528 240
Width: 750
VWidth: 30
GlyphClass: 2
Flags: HMW
AnchorPoint: "bottom" 400 -70 basechar 0
AnchorPoint: "middle" 400 160 basechar 0
AnchorPoint: "top" 540 390 basechar 0
LayerCount: 2
Fore
SplineSet
780 210 m 0
 720 210 704 230 690 300 c 1
 670 200 550 80 470 80 c 3
 425 80 400 130 400 200 c 3
 400 225 400 252 400 280 c 1
 350 170 260 30 180 30 c 3
 125 30 100 95 100 150 c 0
 100 210 l 1
 80 210 50 210 30 210 c 1024
EndSplineSet
EndChar

StartChar: w.XI
Encoding: 57560 57560 241
Width: 1120
VWidth: 30
GlyphClass: 2
Flags: HMW
AnchorPoint: "middle" 730 160 basechar 0
AnchorPoint: "bottom" 730 -70 basechar 0
AnchorPoint: "top" 870 390 basechar 0
LayerCount: 2
Fore
SplineSet
70 -250 m 3
 70 -170 125 -100 200 0 c 0
 290 120 380 210 440 270 c 1
 432 230 430 180 430 150 c 3
 430 95 455 30 510 30 c 3
 590 30 680 170 730 280 c 1
 730 252 730 225 730 200 c 3
 730 130 755 80 800 80 c 3
 880 80 1000 200 1020 300 c 1
 1020 250 1030 210 1050 180 c 1025
EndSplineSet
Substitution2: "'aalt' XIV-1" w.XIV
EndChar

StartChar: w.XIV
Encoding: 57592 57592 242
Width: 1080
VWidth: 30
GlyphClass: 2
Flags: HMW
AnchorPoint: "bottom" 730 -70 basechar 0
AnchorPoint: "middle" 730 160 basechar 0
AnchorPoint: "top" 870 390 basechar 0
LayerCount: 2
Fore
SplineSet
1110 210 m 0
 1050 210 1034 230 1020 300 c 1
 1000 200 880 80 800 80 c 3
 755 80 730 130 730 200 c 2
 730 280 l 1
 680 170 590 30 510 30 c 0
 455 30 430 95 430 150 c 0
 430 180 432 230 440 270 c 1
 385 226 283 120 193 0 c 0
 118 -100 70 -170 70 -250 c 1027
EndSplineSet
EndChar

StartChar: ae.I
Encoding: 57372 57372 244
Width: 740
VWidth: 0
GlyphClass: 2
Flags: HMW
LayerCount: 2
Fore
SplineSet
320 250 m 17
 310 280 280 300 250 300 c 3
 160 300 70 200 70 110 c 3
 70 65 95 30 140 30 c 3
 210 30 280 85 340 160 c 1
 340 90 390 60 460 60 c 3
 530 60 610 150 610 220 c 3
 610 260 580 290 540 290 c 3
 470 290 420 230 420 160 c 3
 420 80 470 30 550 30 c 3
 590 30 620 35 670 60 c 1025
EndSplineSet
EndChar

StartChar: ae.I_
Encoding: 57404 57404 245
Width: 620
VWidth: 0
GlyphClass: 2
Flags: HMW
AnchorPoint: "bottom" 350 -70 basechar 0
AnchorPoint: "middle" 380 160 basechar 0
AnchorPoint: "top" 430 390 basechar 0
LayerCount: 2
Fore
SplineSet
650 30 m 0
 510 30 420 50 420 160 c 3
 420 230 470 290 540 290 c 3
 580 290 610 260 610 220 c 3
 610 150 530 60 460 60 c 3
 390 60 340 90 340 160 c 1
 280 85 210 30 140 30 c 3
 95 30 70 65 70 110 c 3
 70 200 160 300 250 300 c 3
 280 300 310 280 320 250 c 1033
EndSplineSet
Substitution2: "'aalt' _I_-1" ae._I_
Substitution2: "'aalt' VI_-1" ae.VI_
Substitution2: "'aalt' XI_-1" ae.XI_
EndChar

StartChar: ae._I
Encoding: 57436 57436 246
Width: 870
VWidth: 0
GlyphClass: 2
Flags: HMW
AnchorPoint: "bottom" 480 -70 basechar 0
AnchorPoint: "middle" 510 160 basechar 0
AnchorPoint: "top" 560 390 basechar 0
LayerCount: 2
Fore
SplineSet
800 60 m 1
 750 35 720 30 680 30 c 3
 600 30 550 80 550 160 c 3
 550 230 600 290 670 290 c 3
 710 290 740 260 740 220 c 3
 740 150 660 60 590 60 c 3
 520 60 470 90 470 160 c 1
 410 85 340 30 270 30 c 3
 225 30 200 65 200 110 c 3
 200 200 290 300 380 300 c 3
 410 300 440 280 450 250 c 1033
208 158 m 0
 188 98 100 30 30 30 c 1027
EndSplineSet
Substitution2: "'aalt' _I_-1" ae._I_
EndChar

StartChar: ae._I_
Encoding: 57468 57468 247
Width: 750
VWidth: 0
GlyphClass: 2
Flags: HMW
AnchorPoint: "bottom" 480 -70 basechar 0
AnchorPoint: "middle" 510 160 basechar 0
AnchorPoint: "top" 560 390 basechar 0
LayerCount: 2
Fore
SplineSet
780 30 m 0
 640 30 550 50 550 160 c 3
 550 230 600 290 670 290 c 3
 710 290 740 260 740 220 c 3
 740 150 660 60 590 60 c 3
 520 60 470 90 470 160 c 1
 410 85 340 30 270 30 c 3
 225 30 200 65 200 110 c 3
 200 200 290 300 380 300 c 3
 410 300 440 280 450 250 c 1033
208 158 m 0
 188 98 100 30 30 30 c 1027
EndSplineSet
EndChar

StartChar: ae.VI
Encoding: 57500 57500 248
Width: 770
VWidth: 0
GlyphClass: 2
Flags: HMW
AnchorPoint: "bottom" 380 -70 basechar 0
AnchorPoint: "middle" 410 160 basechar 0
AnchorPoint: "top" 460 390 basechar 0
LayerCount: 2
Fore
SplineSet
350 250 m 17
 340 280 310 300 280 300 c 3
 190 300 100 200 100 110 c 3
 100 65 125 30 170 30 c 3
 240 30 310 85 370 160 c 1
 370 90 420 60 490 60 c 3
 560 60 640 150 640 220 c 3
 640 260 610 290 570 290 c 3
 500 290 450 230 450 160 c 3
 450 80 500 30 580 30 c 3
 620 30 650 35 700 60 c 1025
150 232 m 1
 150 232 100 210 30 210 c 1024
EndSplineSet
Substitution2: "'aalt' VI_-1" ae.VI_
EndChar

StartChar: ae.VI_
Encoding: 57532 57532 249
Width: 650
VWidth: 0
GlyphClass: 2
Flags: HMW
AnchorPoint: "bottom" 350 -70 basechar 0
AnchorPoint: "middle" 380 160 basechar 0
AnchorPoint: "top" 430 390 basechar 0
LayerCount: 2
Fore
SplineSet
680 30 m 0
 540 30 450 50 450 160 c 3
 450 230 500 290 570 290 c 3
 610 290 640 260 640 220 c 3
 640 150 560 60 490 60 c 3
 420 60 370 90 370 160 c 1
 310 85 240 30 170 30 c 3
 125 30 100 65 100 110 c 3
 100 200 190 300 280 300 c 3
 310 300 340 280 350 250 c 1033
150 232 m 1
 150 232 100 210 30 210 c 1024
EndSplineSet
EndChar

StartChar: ae.XI
Encoding: 57564 57564 250
Width: 1100
VWidth: 0
GlyphClass: 2
Flags: HMW
AnchorPoint: "bottom" 710 -70 basechar 0
AnchorPoint: "middle" 740 160 basechar 0
AnchorPoint: "top" 790 390 basechar 0
LayerCount: 2
Fore
SplineSet
1030 60 m 1
 980 35 950 30 910 30 c 3
 830 30 780 80 780 160 c 3
 780 230 830 290 900 290 c 3
 940 290 970 260 970 220 c 3
 970 150 890 60 820 60 c 3
 750 60 700 90 700 160 c 1
 650 60 570 20 500 20 c 3
 455 20 430 55 430 100 c 3
 430 174 490 239 610 300 c 1
 370 181 70 -70 70 -250 c 1027
EndSplineSet
Substitution2: "'aalt' XI_-1" ae.XI_
EndChar

StartChar: ae.XI_
Encoding: 57596 57596 251
Width: 980
VWidth: 0
GlyphClass: 2
Flags: HMW
AnchorPoint: "bottom" 710 -70 basechar 0
AnchorPoint: "middle" 740 160 basechar 0
AnchorPoint: "top" 790 390 basechar 0
LayerCount: 2
Fore
SplineSet
1010 30 m 0
 870 30 780 50 780 160 c 3
 780 230 830 290 900 290 c 3
 940 290 970 260 970 220 c 3
 970 150 890 60 820 60 c 3
 750 60 700 90 700 160 c 1
 650 60 570 20 500 20 c 3
 455 20 430 55 430 100 c 3
 430 174 490 239 610 300 c 1
 370 181 70 -70 70 -250 c 1027
EndSplineSet
EndChar

StartChar: oe.I
Encoding: 57373 57373 253
Width: 710
VWidth: 0
GlyphClass: 2
Flags: HMW
LayerCount: 2
Fore
SplineSet
240 290 m 1
 224 298 210 300 190 300 c 3
 120 300 70 240 70 170 c 3
 70 90 130 30 210 30 c 3
 285 30 360 80 360 155 c 3
 360 195 350 220 330 240 c 1
 380 215 430 200 470 200 c 3
 535 200 610 225 610 290 c 3
 610 330 570 360 530 360 c 3
 450 360 410 280 410 200 c 3
 410 100 470 30 570 30 c 3
 600 30 612 33 640 40 c 1025
EndSplineSet
EndChar

StartChar: oe.I_
Encoding: 57405 57405 254
Width: 620
VWidth: 0
GlyphClass: 2
Flags: HMW
AnchorPoint: "middle" 360 160 basechar 0
AnchorPoint: "bottom" 360 -70 basechar 0
AnchorPoint: "top" 420 450 basechar 0
LayerCount: 2
Fore
SplineSet
650 30 m 0
 520 30 410 70 410 200 c 3
 410 280 450 360 530 360 c 3
 570 360 610 330 610 290 c 3
 610 225 535 200 470 200 c 3
 430 200 380 215 330 240 c 1
 350 220 360 195 360 155 c 3
 360 80 285 30 210 30 c 3
 130 30 70 90 70 170 c 3
 70 240 120 300 190 300 c 3
 210 300 224 298 240 290 c 1025
EndSplineSet
Substitution2: "'aalt' _I_-1" oe._I_
Substitution2: "'aalt' VI_-1" oe.VI_
Substitution2: "'aalt' XI_-1" oe.XI_
EndChar

StartChar: oe._I
Encoding: 57437 57437 255
Width: 860
VWidth: 0
GlyphClass: 2
Flags: HMW
AnchorPoint: "bottom" 510 -70 basechar 0
AnchorPoint: "middle" 510 160 basechar 0
AnchorPoint: "top" 570 450 basechar 0
LayerCount: 2
Fore
SplineSet
390 290 m 1
 374 298 360 300 340 300 c 3
 270 300 220 240 220 170 c 3
 220 90 280 30 360 30 c 3
 435 30 510 80 510 155 c 3
 510 195 500 220 480 240 c 1
 530 215 580 200 620 200 c 3
 685 200 760 225 760 290 c 3
 760 330 720 360 680 360 c 3
 600 360 560 280 560 200 c 3
 560 100 620 30 720 30 c 3
 750 30 762 33 790 40 c 1025
220 170 m 0
 200 110 120 30 30 30 c 1024
EndSplineSet
Substitution2: "'aalt' _I_-1" oe._I_
EndChar

StartChar: oe._I_
Encoding: 57469 57469 256
Width: 770
VWidth: 0
GlyphClass: 2
Flags: HMW
AnchorPoint: "bottom" 510 -70 basechar 0
AnchorPoint: "middle" 510 160 basechar 0
AnchorPoint: "top" 570 450 basechar 0
LayerCount: 2
Fore
SplineSet
800 30 m 0
 670 30 560 70 560 200 c 3
 560 280 600 360 680 360 c 3
 720 360 760 330 760 290 c 3
 760 225 685 200 620 200 c 3
 580 200 530 215 480 240 c 1
 500 220 510 195 510 155 c 3
 510 80 435 30 360 30 c 3
 280 30 220 90 220 170 c 3
 220 240 270 300 340 300 c 3
 360 300 374 298 390 290 c 1025
220 170 m 0
 200 110 120 30 30 30 c 1024
EndSplineSet
EndChar

StartChar: oe.VI
Encoding: 57501 57501 257
Width: 740
VWidth: 0
GlyphClass: 2
Flags: HMW
AnchorPoint: "middle" 390 160 basechar 0
AnchorPoint: "bottom" 390 -70 basechar 0
AnchorPoint: "top" 450 450 basechar 0
LayerCount: 2
Fore
SplineSet
110 223 m 1
 110 223 80 210 30 210 c 1024
270 290 m 1
 254 298 240 300 220 300 c 3
 150 300 100 240 100 170 c 3
 100 90 160 30 240 30 c 3
 315 30 390 80 390 155 c 3
 390 195 380 220 360 240 c 1
 410 215 460 200 500 200 c 3
 565 200 640 225 640 290 c 3
 640 330 600 360 560 360 c 3
 480 360 440 280 440 200 c 3
 440 100 500 30 600 30 c 3
 630 30 642 33 670 40 c 1025
EndSplineSet
Substitution2: "'aalt' VI_-1" oe.VI_
EndChar

StartChar: oe.VI_
Encoding: 57533 57533 258
Width: 650
VWidth: 0
GlyphClass: 2
Flags: HMW
AnchorPoint: "middle" 390 160 basechar 0
AnchorPoint: "bottom" 390 -70 basechar 0
AnchorPoint: "top" 450 450 basechar 0
LayerCount: 2
Fore
SplineSet
110 223 m 1
 110 223 80 210 30 210 c 1024
680 30 m 0
 550 30 440 70 440 200 c 3
 440 280 480 360 560 360 c 3
 600 360 640 330 640 290 c 3
 640 225 565 200 500 200 c 3
 460 200 410 215 360 240 c 1
 380 220 390 195 390 155 c 3
 390 80 315 30 240 30 c 3
 160 30 100 90 100 170 c 3
 100 240 150 300 220 300 c 3
 240 300 254 298 270 290 c 1025
EndSplineSet
EndChar

StartChar: oe.XI
Encoding: 57565 57565 259
Width: 1070
VWidth: 0
GlyphClass: 2
Flags: HMW
AnchorPoint: "bottom" 720 -70 basechar 0
AnchorPoint: "middle" 720 160 basechar 0
AnchorPoint: "top" 780 450 basechar 0
LayerCount: 2
Fore
SplineSet
70 -250 m 3
 70 -160 155 -50 205 0 c 0
 285 80 339 130 439 220 c 1025
600 290 m 1
 584 298 570 300 550 300 c 3
 480 300 430 240 430 170 c 3
 430 90 490 30 570 30 c 3
 645 30 720 80 720 155 c 3
 720 195 710 220 690 240 c 1
 740 215 790 200 830 200 c 3
 895 200 970 225 970 290 c 3
 970 330 930 360 890 360 c 3
 810 360 770 280 770 200 c 3
 770 100 830 30 930 30 c 3
 960 30 972 33 1000 40 c 1025
EndSplineSet
Substitution2: "'aalt' XI_-1" oe.XI_
EndChar

StartChar: oe.XI_
Encoding: 57597 57597 260
Width: 980
VWidth: 0
GlyphClass: 2
Flags: HMW
AnchorPoint: "middle" 720 160 basechar 0
AnchorPoint: "bottom" 720 -70 basechar 0
AnchorPoint: "top" 780 450 basechar 0
LayerCount: 2
Fore
SplineSet
1010 30 m 0
 880 30 770 70 770 200 c 3
 770 280 810 360 890 360 c 3
 930 360 970 330 970 290 c 3
 970 225 895 200 830 200 c 3
 790 200 740 215 690 240 c 1
 710 220 720 195 720 155 c 3
 720 80 645 30 570 30 c 3
 490 30 430 90 430 170 c 3
 430 240 480 300 550 300 c 3
 570 300 584 298 600 290 c 1025
70 -250 m 3
 70 -160 155 -50 205 0 c 0
 285 80 339 130 439 220 c 1025
EndSplineSet
EndChar

StartChar: ue.I
Encoding: 57374 57374 262
Width: 740
VWidth: 0
GlyphClass: 2
Flags: HMW
LayerCount: 2
Fore
SplineSet
670 60 m 1
 620 35 590 30 550 30 c 3
 470 30 420 80 420 160 c 3
 420 230 460 300 530 300 c 3
 580 300 610 260 610 210 c 3
 610 130 510 60 430 60 c 3
 350 60 334 200 330 300 c 1
 326 200 280 60 180 60 c 3
 110 60 70 110 70 180 c 3
 70 210 72 260 80 300 c 1025
EndSplineSet
EndChar

StartChar: ue.I_
Encoding: 57406 57406 263
Width: 620
VWidth: 0
GlyphClass: 2
Flags: HMW
AnchorPoint: "middle" 370 160 basechar 0
AnchorPoint: "bottom" 370 -70 basechar 0
AnchorPoint: "top" 450 390 basechar 0
LayerCount: 2
Fore
SplineSet
650 30 m 0
 510 30 420 50 420 160 c 3
 420 230 460 300 530 300 c 3
 580 300 610 260 610 210 c 3
 610 130 510 60 430 60 c 3
 350 60 334 200 330 300 c 1
 326 200 280 60 180 60 c 3
 110 60 70 110 70 180 c 3
 70 210 72 260 80 300 c 1025
EndSplineSet
Substitution2: "'aalt' _I_-1" ue._I_
Substitution2: "'aalt' VI_-1" ue.VI_
Substitution2: "'aalt' XI_-1" ue.XI_
EndChar

StartChar: ue._I
Encoding: 57438 57438 264
Width: 870
VWidth: 0
GlyphClass: 2
Flags: HMW
AnchorPoint: "middle" 500 160 basechar 0
AnchorPoint: "bottom" 500 -70 basechar 0
AnchorPoint: "top" 580 390 basechar 0
LayerCount: 2
Fore
SplineSet
30 30 m 3
 117 30 170 180 210 300 c 1
 202 260 200 210 200 180 c 3
 200 110 240 60 310 60 c 3
 410 60 456 200 460 300 c 1
 464 200 480 60 560 60 c 3
 640 60 740 130 740 210 c 3
 740 260 710 300 660 300 c 3
 590 300 550 230 550 160 c 3
 550 80 600 30 680 30 c 3
 720 30 750 35 800 60 c 1025
EndSplineSet
Substitution2: "'aalt' _I_-1" ue._I_
EndChar

StartChar: ue._I_
Encoding: 57470 57470 265
Width: 750
VWidth: 0
GlyphClass: 2
Flags: HMW
AnchorPoint: "middle" 500 160 basechar 0
AnchorPoint: "bottom" 500 -70 basechar 0
AnchorPoint: "top" 580 390 basechar 0
LayerCount: 2
Fore
SplineSet
780 30 m 0
 640 30 550 50 550 160 c 3
 550 230 590 300 660 300 c 3
 710 300 740 260 740 210 c 3
 740 130 640 60 560 60 c 3
 480 60 464 200 460 300 c 1
 456 200 410 60 310 60 c 3
 240 60 200 110 200 180 c 3
 200 210 202 260 210 300 c 1
 170 180 117 30 30 30 c 1027
EndSplineSet
EndChar

StartChar: ue.VI
Encoding: 57502 57502 266
Width: 770
VWidth: 0
GlyphClass: 2
Flags: HMW
AnchorPoint: "bottom" 400 -70 basechar 0
AnchorPoint: "middle" 400 160 basechar 0
AnchorPoint: "top" 480 390 basechar 0
LayerCount: 2
Fore
SplineSet
30 210 m 3
 65 210 90 230 110 270 c 1
 102 230 100 210 100 180 c 3
 100 110 140 60 210 60 c 3
 310 60 356 200 360 300 c 1
 364 200 380 60 460 60 c 3
 540 60 640 130 640 210 c 3
 640 260 610 300 560 300 c 3
 490 300 450 230 450 160 c 3
 450 80 500 30 580 30 c 3
 620 30 650 35 700 60 c 1025
EndSplineSet
Substitution2: "'aalt' VI_-1" ue.VI_
EndChar

StartChar: ue.VI_
Encoding: 57534 57534 267
Width: 650
VWidth: 0
GlyphClass: 2
Flags: HMW
AnchorPoint: "middle" 400 160 basechar 0
AnchorPoint: "bottom" 400 -70 basechar 0
AnchorPoint: "top" 480 390 basechar 0
LayerCount: 2
Fore
SplineSet
680 30 m 0
 540 30 450 50 450 160 c 3
 450 230 490 300 560 300 c 3
 610 300 640 260 640 210 c 3
 640 130 540 60 460 60 c 3
 380 60 364 200 360 300 c 1
 356 200 310 60 210 60 c 3
 140 60 100 110 100 180 c 3
 100 210 102 230 110 270 c 1
 90 230 65 210 30 210 c 1024
EndSplineSet
EndChar

StartChar: ue.XI
Encoding: 57566 57566 268
Width: 1110
VWidth: 0
GlyphClass: 2
Flags: HMW
AnchorPoint: "bottom" 740 -70 basechar 0
AnchorPoint: "middle" 740 160 basechar 0
AnchorPoint: "top" 820 390 basechar 0
LayerCount: 2
Fore
SplineSet
1040 60 m 1
 990 35 960 30 920 30 c 3
 840 30 790 80 790 160 c 3
 790 230 830 300 900 300 c 3
 950 300 980 260 980 210 c 3
 980 130 880 60 800 60 c 3
 720 60 704 200 700 300 c 1
 696 200 650 60 550 60 c 3
 480 60 440 110 440 180 c 3
 440 210 442 260 450 300 c 1
 340 160 270 80 200 0 c 0
 130 -80 70 -160 70 -250 c 1027
EndSplineSet
Substitution2: "'aalt' XI_-1" ue.XI_
EndChar

StartChar: ue.XI_
Encoding: 57598 57598 269
Width: 990
VWidth: 0
GlyphClass: 2
Flags: HMW
AnchorPoint: "middle" 740 160 basechar 0
AnchorPoint: "bottom" 740 -70 basechar 0
AnchorPoint: "top" 820 390 basechar 0
LayerCount: 2
Fore
SplineSet
1020 30 m 0
 880 30 790 50 790 160 c 3
 790 230 830 300 900 300 c 3
 950 300 980 260 980 210 c 3
 980 130 880 60 800 60 c 3
 720 60 704 200 700 300 c 1
 696 200 650 60 550 60 c 3
 480 60 440 110 440 180 c 3
 440 210 442 260 450 300 c 1
 340 160 270 80 200 0 c 0
 130 -80 70 -160 70 -250 c 1027
EndSplineSet
EndChar

StartChar: germandbls.I
Encoding: 57375 57375 271
Width: 460
VWidth: 0
GlyphClass: 2
Flags: HMW
LayerCount: 2
Fore
SplineSet
110 -310 m 1
 89 -203 70 -70 70 70 c 3
 70 207 100 520 240 520 c 3
 290 520 310 470 310 420 c 3
 310 360 260 290 210 240 c 1
 234 260 260 270 280 270 c 3
 340 270 390 230 390 160 c 3
 390 90 330 30 260 30 c 3
 240 30 220 35 200 50 c 1025
EndSplineSet
EndChar

StartChar: germandbls._I
Encoding: 57439 57439 272
Width: 630
VWidth: 0
GlyphClass: 2
Flags: HMW
AnchorPoint: "middle" 400 320 basechar 0
AnchorPoint: "bottom" 400 -270 basechar 0
AnchorPoint: "top" 510 500 basechar 0
LayerCount: 2
Fore
SplineSet
30 30 m 3
 200 30 430 240 430 410 c 3
 430 460 410 520 360 520 c 3
 325 520 299 485 284 440 c 0
 244 320 200 0 200 -310 c 1
 230 120 355 270 450 270 c 3
 510 270 560 230 560 160 c 3
 560 90 500 30 430 30 c 3
 410 30 390 35 370 50 c 1025
EndSplineSet
Substitution2: "'aalt' _IV-1" germandbls._IV
EndChar

StartChar: germandbls.IV
Encoding: 57407 57407 273
Width: 430
VWidth: 0
GlyphClass: 2
Flags: HMW
AnchorPoint: "middle" 260 320 basechar 0
AnchorPoint: "bottom" 260 -270 basechar 0
AnchorPoint: "top" 390 500 basechar 0
LayerCount: 2
Fore
SplineSet
110 -310 m 1
 89 -203 70 -70 70 70 c 3
 70 207 100 520 240 520 c 3
 290 520 310 470 310 420 c 3
 310 360 260 290 210 240 c 1
 234 260 260 270 280 270 c 3
 340 270 390 230 390 160 c 3
 390 90 330 30 260 30 c 3
 230 30 210 50 210 80 c 3
 210 160 350 210 460 210 c 1048
EndSplineSet
Substitution2: "'aalt' _IV-1" germandbls._IV
Substitution2: "'aalt' VIV-1" germandbls.VIV
Substitution2: "'aalt' XIV-1" germandbls.XIV
EndChar

StartChar: germandbls._IV
Encoding: 57471 57471 274
Width: 620
VWidth: 0
GlyphClass: 2
Flags: HMW
AnchorPoint: "top" 510 500 basechar 0
AnchorPoint: "bottom" 400 -270 basechar 0
AnchorPoint: "middle" 400 320 basechar 0
LayerCount: 2
Fore
SplineSet
650 210 m 3
 540 210 400 160 400 80 c 3
 400 50 420 30 450 30 c 3
 520 30 580 90 580 160 c 3
 580 230 530 270 470 270 c 3
 340 270 230 120 200 -310 c 1
 200 0 244 320 284 440 c 0
 299 485 325 520 360 520 c 3
 410 520 430 460 430 410 c 3
 430 240 200 30 30 30 c 1027
EndSplineSet
EndChar

StartChar: germandbls.VI
Encoding: 57503 57503 275
Width: 480
VWidth: 0
GlyphClass: 2
Flags: HMW
AnchorPoint: "top" 420 500 basechar 0
AnchorPoint: "bottom" 280 -270 basechar 0
AnchorPoint: "middle" 280 320 basechar 0
LayerCount: 2
Fore
SplineSet
40 210 m 3
 210 210 340 273 340 410 c 3
 340 460 320 520 270 520 c 3
 235 520 209 485 194 440 c 0
 154 320 110 0 110 -310 c 1
 120 -66 144 70 180 160 c 0
 216 250 260 270 310 270 c 3
 370 270 410 220 410 160 c 3
 410 90 350 30 280 30 c 3
 260 30 240 35 220 50 c 1025
EndSplineSet
Substitution2: "'aalt' VIV-1" germandbls.VIV
EndChar

StartChar: germandbls.VIV
Encoding: 57535 57535 276
Width: 470
VWidth: 0
GlyphClass: 2
Flags: HMW
AnchorPoint: "middle" 280 320 basechar 0
AnchorPoint: "bottom" 280 -270 basechar 0
AnchorPoint: "top" 420 500 basechar 0
LayerCount: 2
Fore
SplineSet
30 210 m 3
 200 210 330 273 330 410 c 3
 330 460 310 520 260 520 c 3
 225 520 199 485 184 440 c 0
 144 320 100 0 100 -310 c 1
 110 -66 134 70 170 160 c 0
 206 250 270 280 320 280 c 3
 380 280 430 220 430 160 c 3
 430 90 380 30 310 30 c 3
 280 30 260 50 260 80 c 3
 260 160 390 210 500 210 c 1027
EndSplineSet
EndChar

StartChar: germandbls.XI
Encoding: 57567 57567 277
Width: 800
VWidth: 0
GlyphClass: 2
Flags: HMW
AnchorPoint: "middle" 600 320 basechar 0
AnchorPoint: "bottom" 600 -270 basechar 0
AnchorPoint: "top" 740 500 basechar 0
LayerCount: 2
Fore
SplineSet
540 50 m 1
 560 35 580 30 600 30 c 3
 670 30 730 90 730 160 c 3
 730 220 690 270 630 270 c 3
 580 270 536 250 500 160 c 0
 464 70 440 -66 430 -310 c 1
 430 0 474 320 514 440 c 0
 529 485 555 520 590 520 c 3
 640 520 660 460 660 410 c 3
 660 210 70 0 70 -250 c 1027
EndSplineSet
Substitution2: "'aalt' XIV-1" germandbls.XIV
EndChar

StartChar: germandbls.XIV
Encoding: 57599 57599 278
Width: 820
VWidth: 0
GlyphClass: 2
Flags: HMW
AnchorPoint: "top" 740 500 basechar 0
AnchorPoint: "bottom" 600 -270 basechar 0
AnchorPoint: "middle" 600 320 basechar 0
LayerCount: 2
Fore
SplineSet
850 210 m 3
 740 210 600 160 600 80 c 3
 600 50 620 30 650 30 c 3
 720 30 780 90 780 160 c 3
 780 230 730 280 670 280 c 3
 540 280 430 120 400 -310 c 1
 400 0 474 320 514 440 c 0
 529 485 555 520 590 520 c 3
 640 520 660 460 660 410 c 3
 660 170 70 21 70 -250 c 1024
EndSplineSet
EndChar

StartChar: afii10066.I
Encoding: 58048 58048 342
Width: 450
VWidth: 0
GlyphClass: 2
Flags: HMW
AnchorPoint: "top" 210 590 basechar 0
AnchorPoint: "middle" 270 390 basechar 0
AnchorPoint: "bottom" 210 -70 basechar 0
LayerCount: 2
Fore
SplineSet
252 297 m 0
 244 299 237 300 230 300 c 3
 145 300 70 205 70 120 c 3
 70 65 105 30 160 30 c 3
 260 30 340 125 340 230 c 3
 340 310 260 420 260 500 c 3
 260 570 320 630 390 630 c 3
 450 630 470 600 530 600 c 3
 565 600 590 630 590 630 c 1024
EndSplineSet
EndChar

StartChar: afii10066._I
Encoding: 58112 58112 343
Width: 600
VWidth: 0
GlyphClass: 2
Flags: HMW
AnchorPoint: "bottom" 360 -70 basechar 0
AnchorPoint: "middle" 420 390 basechar 0
AnchorPoint: "top" 360 590 basechar 0
LayerCount: 2
Fore
SplineSet
740 630 m 0
 740 630 715 600 680 600 c 3
 620 600 600 630 540 630 c 3
 470 630 410 570 410 500 c 3
 410 420 490 310 490 230 c 3
 490 125 410 30 310 30 c 3
 255 30 220 65 220 120 c 3
 220 140 227 170 237 190 c 1
 157 90 80 30 30 30 c 1027
EndSplineSet
Substitution2: "cyrl aalt _I_-1" afii10066._I_
EndChar

StartChar: afii10066.I_
Encoding: 58080 58080 345
Width: 440
VWidth: 0
GlyphClass: 2
Flags: HMW
AnchorPoint: "bottom" 210 -70 basechar 0
AnchorPoint: "middle" 270 390 basechar 0
AnchorPoint: "top" 210 590 basechar 0
LayerCount: 2
Fore
SplineSet
590 630 m 0
 590 630 565 600 530 600 c 3
 470 600 450 630 390 630 c 3
 320 630 260 570 260 500 c 3
 260 420 340 310 340 230 c 3
 340 125 260 30 160 30 c 3
 105 30 70 65 70 120 c 3
 70 205 145 300 230 300 c 3
 237 300 244 299 252 297 c 1024
470 30 m 3
 400 30 340 90 340 230 c 1025
EndSplineSet
Substitution2: "cyrl aalt _I_-1" afii10066._I_
Substitution2: "cyrl aalt VI_-1" afii10066.VI_
Substitution2: "cyrl aalt XI_-1" afii10066.XI_
EndChar

StartChar: afii10066._I_
Encoding: 58144 58144 346
Width: 590
VWidth: 0
GlyphClass: 2
Flags: HMW
AnchorPoint: "bottom" 360 -70 basechar 0
AnchorPoint: "middle" 420 390 basechar 0
AnchorPoint: "top" 360 590 basechar 0
LayerCount: 2
Fore
SplineSet
620 30 m 3
 550 30 490 90 490 230 c 1025
30 30 m 3
 80 30 157 90 237 190 c 1
 227 170 220 140 220 120 c 3
 220 65 255 30 310 30 c 3
 410 30 490 125 490 230 c 3
 490 310 410 420 410 500 c 3
 410 570 470 630 540 630 c 3
 600 630 620 600 680 600 c 3
 715 600 740 630 740 630 c 1024
EndSplineSet
EndChar

StartChar: afii10066.VI
Encoding: 58176 58176 347
Width: 480
VWidth: 0
GlyphClass: 2
Flags: HMW
AnchorPoint: "bottom" 240 -70 basechar 0
AnchorPoint: "middle" 300 390 basechar 0
AnchorPoint: "top" 240 590 basechar 0
LayerCount: 2
Fore
SplineSet
30 210 m 3
 80 210 130 220 130 220 c 1
 110 190 100 160 100 120 c 3
 100 65 135 30 190 30 c 3
 290 30 370 125 370 230 c 3
 370 310 290 420 290 500 c 3
 290 570 350 630 420 630 c 3
 480 630 500 600 560 600 c 3
 595 600 620 630 620 630 c 1024
EndSplineSet
Substitution2: "cyrl aalt VI_-1" afii10066.VI_
EndChar

StartChar: afii10066.VI_
Encoding: 58208 58208 348
Width: 470
VWidth: 0
GlyphClass: 2
Flags: HMW
AnchorPoint: "bottom" 240 -70 basechar 0
AnchorPoint: "middle" 300 390 basechar 0
AnchorPoint: "top" 240 590 basechar 0
LayerCount: 2
Fore
SplineSet
500 30 m 1
 430 30 370 90 370 230 c 1025
30 210 m 3
 80 210 130 220 130 220 c 1
 110 190 100 160 100 120 c 3
 100 65 135 30 190 30 c 3
 290 30 370 125 370 230 c 3
 370 310 290 420 290 500 c 3
 290 570 350 630 420 630 c 3
 480 630 500 600 560 600 c 3
 595 600 620 630 620 630 c 1024
EndSplineSet
EndChar

StartChar: afii10066.XI
Encoding: 58240 58240 349
Width: 810
VWidth: 0
GlyphClass: 2
Flags: HMW
AnchorPoint: "bottom" 570 -70 basechar 0
AnchorPoint: "middle" 630 390 basechar 0
AnchorPoint: "top" 570 590 basechar 0
LayerCount: 2
Fore
SplineSet
950 630 m 0
 950 630 925 600 890 600 c 3
 830 600 810 630 750 630 c 3
 680 630 620 570 620 500 c 3
 620 420 700 310 700 230 c 3
 700 125 620 30 520 30 c 3
 465 30 430 65 430 120 c 3
 430 140 437 170 447 190 c 1
 420 163 314 90 224 -0 c 0
 144 -80 70 -170 70 -250 c 1027
EndSplineSet
Substitution2: "cyrl aalt XI_-1" afii10066.XI_
EndChar

StartChar: afii10066.XI_
Encoding: 58272 58272 350
Width: 800
VWidth: 0
GlyphClass: 2
Flags: HMW
AnchorPoint: "bottom" 570 -70 basechar 0
AnchorPoint: "middle" 630 390 basechar 0
AnchorPoint: "top" 570 590 basechar 0
LayerCount: 2
Fore
SplineSet
830 30 m 3
 760 30 700 90 700 230 c 1025
950 630 m 0
 950 630 925 600 890 600 c 3
 830 600 810 630 750 630 c 3
 680 630 620 570 620 500 c 3
 620 420 700 310 700 230 c 3
 700 125 620 30 520 30 c 3
 465 30 430 65 430 120 c 3
 430 140 437 170 447 190 c 1
 420 163 314 90 224 -0 c 0
 144 -80 70 -170 70 -250 c 1027
EndSplineSet
EndChar

StartChar: afii10067._I
Encoding: 58113 58113 351
Width: 590
VWidth: 0
Flags: HMW
AnchorPoint: "top" 500 590 basechar 0
AnchorPoint: "middle" 370 160 basechar 0
AnchorPoint: "bottom" 370 -70 basechar 0
LayerCount: 2
Fore
SplineSet
30 30 m 1
 170 30 400 400 400 540 c 3
 400 590 380 630 340 630 c 3
 270 630 220 510 220 240 c 3
 220 100 270 30 330 30 c 3
 420 30 520 120 520 210 c 3
 520 260 490 300 440 300 c 3
 410 300 380 280 370 250 c 1025
EndSplineSet
Substitution2: "cyrl aalt _IV-1" afii10067._IV
EndChar

StartChar: afii10067.I
Encoding: 58049 58049 352
Width: 440
VWidth: 0
Flags: HMW
LayerCount: 2
Fore
SplineSet
220 250 m 1
 230 280 260 300 290 300 c 3
 340 300 370 260 370 210 c 3
 370 120 270 30 180 30 c 3
 120 30 70 100 70 240 c 3
 70 510 120 630 190 630 c 3
 230 630 260 590 260 540 c 3
 260 460 220 440 220 440 c 1025
EndSplineSet
EndChar

StartChar: afii10067.IV
Encoding: 58081 58081 353
Width: 440
VWidth: 0
Flags: HMW
AnchorPoint: "top" 350 590 basechar 0
AnchorPoint: "middle" 220 160 basechar 0
AnchorPoint: "bottom" 220 -70 basechar 0
LayerCount: 2
Fore
SplineSet
470 210 m 3
 400 210 380 190 310 190 c 3
 270 190 240 220 240 260 c 3
 240 300 280 330 320 330 c 3
 370 330 400 290 400 240 c 3
 400 150 290 30 200 30 c 3
 140 30 70 100 70 240 c 3
 70 510 120 630 190 630 c 3
 230 630 260 590 260 540 c 3
 260 460 220 440 220 440 c 1025
EndSplineSet
Substitution2: "cyrl aalt XIV-1" afii10067.XIV
Substitution2: "cyrl aalt VIV-1" afii10067.VIV
Substitution2: "cyrl aalt _IV-1" afii10067._IV
EndChar

StartChar: afii10067._IV
Encoding: 58145 58145 354
Width: 590
VWidth: 0
Flags: HMW
AnchorPoint: "top" 500 590 basechar 0
AnchorPoint: "middle" 370 160 basechar 0
AnchorPoint: "bottom" 370 -70 basechar 0
LayerCount: 2
Fore
SplineSet
620 210 m 3
 550 210 530 190 460 190 c 3
 420 190 390 220 390 260 c 3
 390 300 430 330 470 330 c 3
 520 330 550 290 550 240 c 3
 550 150 440 30 350 30 c 3
 290 30 220 100 220 240 c 3
 220 510 270 630 340 630 c 3
 380 630 400 590 400 540 c 3
 400 400 170 30 30 30 c 1025
EndSplineSet
EndChar

StartChar: afii10067.VI
Encoding: 58177 58177 355
Width: 470
VWidth: 0
Flags: HMW
AnchorPoint: "top" 380 590 basechar 0
AnchorPoint: "middle" 250 160 basechar 0
AnchorPoint: "bottom" 250 -70 basechar 0
LayerCount: 2
Fore
SplineSet
250 250 m 1
 260 280 290 300 320 300 c 3
 370 300 400 260 400 210 c 3
 400 120 300 30 210 30 c 3
 150 30 100 100 100 240 c 3
 100 510 150 630 220 630 c 3
 260 630 280 590 280 540 c 3
 280 430 110 210 30 210 c 1024
EndSplineSet
Substitution2: "cyrl aalt VIV-1" afii10067.VIV
EndChar

StartChar: afii10067.VIV
Encoding: 58209 58209 356
Width: 470
VWidth: 0
Flags: HMW
AnchorPoint: "top" 380 590 basechar 0
AnchorPoint: "middle" 250 160 basechar 0
AnchorPoint: "bottom" 250 -70 basechar 0
LayerCount: 2
Fore
SplineSet
500 210 m 3
 430 210 410 190 340 190 c 3
 300 190 270 220 270 260 c 3
 270 300 310 330 350 330 c 3
 400 330 430 290 430 240 c 3
 430 150 320 30 230 30 c 3
 170 30 100 100 100 240 c 3
 100 510 150 630 220 630 c 3
 260 630 280 590 280 540 c 3
 280 430 110 210 30 210 c 1024
EndSplineSet
EndChar

StartChar: afii10067.XI
Encoding: 58241 58241 357
Width: 810
VWidth: 0
Flags: HMW
AnchorPoint: "top" 720 590 basechar 0
AnchorPoint: "middle" 590 160 basechar 0
AnchorPoint: "bottom" 590 -70 basechar 0
LayerCount: 2
Fore
SplineSet
590 250 m 1
 600 280 630 300 660 300 c 3
 710 300 740 260 740 210 c 3
 740 120 640 30 550 30 c 3
 490 30 440 100 440 240 c 3
 440 510 490 630 560 630 c 3
 600 630 620 590 620 540 c 3
 620 290 70 0 70 -250 c 1024
EndSplineSet
Substitution2: "cyrl aalt XIV-1" afii10067.XIV
EndChar

StartChar: afii10067.XIV
Encoding: 58273 58273 358
Width: 810
VWidth: 0
Flags: HMW
AnchorPoint: "top" 720 590 basechar 0
AnchorPoint: "middle" 590 160 basechar 0
AnchorPoint: "bottom" 590 -70 basechar 0
LayerCount: 2
Fore
SplineSet
840 210 m 3
 770 210 750 190 680 190 c 3
 640 190 610 220 610 260 c 3
 610 300 650 330 690 330 c 3
 740 330 770 290 770 240 c 3
 770 150 660 30 570 30 c 3
 510 30 440 100 440 240 c 3
 440 510 490 630 560 630 c 3
 600 630 620 590 620 540 c 3
 620 290 70 20 70 -250 c 1024
EndSplineSet
EndChar

StartChar: tonetwo.I
Encoding: 58050 58050 361
Width: 380
VWidth: -30
GlyphClass: 2
Flags: HMW
LayerCount: 2
Fore
SplineSet
310 60 m 1
 290 40 270 30 250 30 c 3
 215 30 190 55 190 90 c 3
 190 112 198 130 210 150 c 0
 222 170 230 188 230 210 c 3
 230 245 205 270 170 270 c 3
 100 270 70 180 70 180 c 1025
EndSplineSet
EndChar

StartChar: tonetwo.I_
Encoding: 58082 58082 362
Width: 240
VWidth: -30
GlyphClass: 2
Flags: HMW
AnchorPoint: "bottom" 170 -70 basechar 0
AnchorPoint: "middle" 170 160 basechar 0
AnchorPoint: "top" 170 360 basechar 0
LayerCount: 2
Fore
SplineSet
70 180 m 1
 70 180 100 270 170 270 c 3
 205 270 230 245 230 210 c 3
 230 192 219 176 210 160 c 0
 199 141 190 122 190 100 c 3
 190 55 225 30 270 30 c 1024
EndSplineSet
Substitution2: "'aalt' _I_-1" tonetwo._I_
Substitution2: "'aalt' VI_-1" tonetwo.VI_
Substitution2: "'aalt' XI_-1" tonetwo.XI_
EndChar

StartChar: tonetwo._I
Encoding: 58114 58114 363
Width: 510
VWidth: -30
GlyphClass: 2
Flags: HMW
AnchorPoint: "bottom" 300 -70 basechar 0
AnchorPoint: "middle" 300 160 basechar 0
AnchorPoint: "top" 300 360 basechar 0
LayerCount: 2
Fore
SplineSet
440 60 m 1
 420 40 400 30 380 30 c 3
 345 30 320 55 320 90 c 3
 320 112 328 130 340 150 c 0
 352 170 360 188 360 210 c 3
 360 245 335 270 300 270 c 3
 250 270 215 220 200 180 c 0
 170 100 120 30 30 30 c 1024
EndSplineSet
Substitution2: "'aalt' _I_-1" tonetwo._I_
EndChar

StartChar: tonetwo._I_
Encoding: 58146 58146 366
Width: 370
VWidth: -30
GlyphClass: 2
Flags: HMW
AnchorPoint: "middle" 300 160 basechar 0
AnchorPoint: "bottom" 300 -70 basechar 0
AnchorPoint: "top" 300 360 basechar 0
LayerCount: 2
Fore
SplineSet
30 30 m 3
 120 30 170 100 200 180 c 0
 215 220 250 270 300 270 c 3
 335 270 360 245 360 210 c 3
 360 192 349 176 340 160 c 0
 329 141 320 122 320 100 c 3
 320 55 355 30 400 30 c 1024
EndSplineSet
EndChar

StartChar: tonetwo.VI
Encoding: 58178 58178 367
Width: 370
VWidth: -30
GlyphClass: 2
Flags: HMW
AnchorPoint: "bottom" 160 -70 basechar 0
AnchorPoint: "middle" 160 160 basechar 0
AnchorPoint: "top" 170 360 basechar 0
LayerCount: 2
Fore
SplineSet
30 210 m 3
 66 210 110 210 130 210 c 3
 170 210 200 185 200 150 c 3
 200 135 197 125 195 115 c 0
 193 105 190 95 190 80 c 3
 190 52 212 30 240 30 c 3
 260 30 280 40 300 60 c 1025
EndSplineSet
Substitution2: "'aalt' VI_-1" tonetwo.VI_
EndChar

StartChar: tonetwo.VI_
Encoding: 58210 58210 368
Width: 230
VWidth: -30
GlyphClass: 2
Flags: HMW
AnchorPoint: "middle" 160 160 basechar 0
AnchorPoint: "bottom" 160 -70 basechar 0
AnchorPoint: "top" 170 360 basechar 0
LayerCount: 2
Fore
SplineSet
30 210 m 3
 66 210 110 210 130 210 c 3
 170 210 200 185 200 150 c 3
 200 135 197 125 195 115 c 0
 193 105 190 95 190 80 c 3
 190 45 220 30 260 30 c 1027
EndSplineSet
EndChar

StartChar: tonetwo.XI
Encoding: 58242 58242 369
Width: 750
VWidth: 30
GlyphClass: 2
Flags: HMW
AnchorPoint: "bottom" 540 -70 basechar 0
AnchorPoint: "middle" 540 160 basechar 0
AnchorPoint: "top" 540 360 basechar 0
LayerCount: 2
Fore
SplineSet
70 -250 m 3
 70 -150 160 -30 270 80 c 0
 370 180 470 270 540 270 c 3
 575 270 600 245 600 210 c 3
 600 188 592 170 580 150 c 0
 568 130 560 112 560 90 c 3
 560 55 585 30 620 30 c 3
 640 30 660 40 680 60 c 1025
EndSplineSet
Substitution2: "'aalt' XI_-1" tonetwo.XI_
EndChar

StartChar: tonetwo.XI_
Encoding: 58274 58274 370
Width: 610
VWidth: 30
GlyphClass: 2
Flags: HMW
AnchorPoint: "middle" 540 160 basechar 0
AnchorPoint: "bottom" 540 -70 basechar 0
AnchorPoint: "top" 540 360 basechar 0
LayerCount: 2
Fore
SplineSet
640 30 m 0
 595 30 560 55 560 100 c 3
 560 122 569 141 580 160 c 0
 589 176 600 192 600 210 c 3
 600 245 575 270 540 270 c 3
 470 270 370 180 270 80 c 0
 160 -30 70 -150 70 -250 c 1027
EndSplineSet
EndChar

StartChar: afii10072.I
Encoding: 58053 58053 382
Width: 900
VWidth: 0
GlyphClass: 2
Flags: HMW
LayerCount: 2
Fore
SplineSet
70 270 m 1
 95 292 123 300 150 300 c 3
 220 300 260 240 260 170 c 3
 260 100 220 20 150 20 c 3
 115 20 90 45 90 80 c 3
 90 170 310 260 400 300 c 1
 400 190 390 62 380 30 c 1
 390 60 520 270 700 300 c 1
 600 250 570 190 570 140 c 3
 570 75 615 30 680 30 c 3
 730 30 770 40 830 80 c 1025
EndSplineSet
EndChar

StartChar: afii10072.I_
Encoding: 58085 58085 384
Width: 710
VWidth: 0
GlyphClass: 2
Flags: HMW
AnchorPoint: "top" 470 390 basechar 0
AnchorPoint: "bottom" 450 -70 basechar 0
AnchorPoint: "middle" 400 160 basechar 0
LayerCount: 2
Fore
SplineSet
740 30 m 3
 630 30 570 90 570 160 c 3
 570 210 590 270 700 300 c 1
 520 270 390 60 380 30 c 1
 390 62 400 190 400 300 c 1
 310 260 90 170 90 80 c 3
 90 45 115 20 150 20 c 3
 220 20 260 100 260 170 c 3
 260 240 220 300 150 300 c 3
 123 300 95 292 70 270 c 1025
EndSplineSet
Substitution2: "cyrl aalt _I_-1" afii10072._I_
Substitution2: "cyrl aalt VI_-1" afii10072.VI_
Substitution2: "cyrl aalt XI_-1" afii10072.XI_
EndChar

StartChar: afii10072._I
Encoding: 58117 58117 385
Width: 1100
VWidth: 0
GlyphClass: 2
Flags: HMW
AnchorPoint: "top" 670 390 basechar 0
AnchorPoint: "bottom" 650 -70 basechar 0
AnchorPoint: "middle" 600 160 basechar 0
LayerCount: 2
Fore
SplineSet
1030 80 m 1
 970 40 930 30 880 30 c 3
 815 30 770 75 770 140 c 3
 770 190 800 250 900 300 c 1
 720 270 590 60 580 30 c 1
 590 62 600 190 600 300 c 1
 510 260 290 170 290 80 c 3
 290 45 315 20 350 20 c 3
 420 20 460 100 460 170 c 3
 460 230 430 280 370 280 c 3
 294 280 235 210 175 140 c 0
 115 70 80 30 30 30 c 1027
EndSplineSet
Substitution2: "cyrl aalt _I_-1" afii10072._I_
EndChar

StartChar: afii10072._I_
Encoding: 58149 58149 386
Width: 910
VWidth: 0
GlyphClass: 2
Flags: HMW
AnchorPoint: "top" 670 390 basechar 0
AnchorPoint: "bottom" 650 -70 basechar 0
AnchorPoint: "middle" 600 160 basechar 0
LayerCount: 2
Fore
SplineSet
940 30 m 3
 830 30 770 90 770 160 c 3
 770 210 790 270 900 300 c 1
 720 270 590 60 580 30 c 1
 590 62 600 190 600 300 c 1
 510 260 290 170 290 80 c 3
 290 45 315 20 350 20 c 3
 420 20 460 100 460 170 c 3
 460 230 430 280 370 280 c 3
 294 280 235 210 175 140 c 0
 115 70 80 30 30 30 c 1027
EndSplineSet
EndChar

StartChar: afii10072.VI
Encoding: 58181 58181 387
Width: 910
VWidth: 0
GlyphClass: 2
Flags: HMW
AnchorPoint: "top" 480 390 basechar 0
AnchorPoint: "bottom" 460 -70 basechar 0
AnchorPoint: "middle" 410 160 basechar 0
LayerCount: 2
Fore
SplineSet
840 80 m 1
 780 40 740 30 690 30 c 3
 625 30 580 75 580 140 c 3
 580 190 610 250 710 300 c 1
 530 270 400 60 390 30 c 1
 400 62 410 190 410 300 c 1
 270 250 100 180 100 70 c 3
 100 35 125 10 160 10 c 3
 210 10 260 80 260 130 c 3
 260 165 230 210 140 210 c 3
 120 210 50 210 30 210 c 1024
EndSplineSet
Substitution2: "cyrl aalt VI_-1" afii10072.VI_
EndChar

StartChar: afii10072.VI_
Encoding: 58213 58213 388
Width: 720
VWidth: 0
GlyphClass: 2
Flags: HMW
AnchorPoint: "top" 480 390 basechar 0
AnchorPoint: "bottom" 460 -70 basechar 0
AnchorPoint: "middle" 410 160 basechar 0
LayerCount: 2
Fore
SplineSet
750 30 m 3
 640 30 580 90 580 160 c 3
 580 210 600 270 710 300 c 1
 530 270 400 60 390 30 c 1
 400 62 410 190 410 300 c 1
 270 250 100 180 100 70 c 3
 100 35 125 10 160 10 c 3
 210 10 260 80 260 130 c 3
 260 165 230 210 140 210 c 3
 120 210 50 210 30 210 c 1024
EndSplineSet
EndChar

StartChar: afii10072.XI
Encoding: 58245 58245 389
Width: 1300
VWidth: 0
GlyphClass: 2
Flags: HMW
AnchorPoint: "top" 870 390 basechar 0
AnchorPoint: "bottom" 850 -70 basechar 0
AnchorPoint: "middle" 800 160 basechar 0
LayerCount: 2
Fore
SplineSet
1230 80 m 1
 1170 40 1130 30 1080 30 c 3
 1015 30 970 75 970 140 c 3
 970 190 1000 250 1100 300 c 1
 920 270 790 60 780 30 c 1
 790 62 800 190 800 300 c 1
 710 260 490 170 490 80 c 3
 490 45 515 20 550 20 c 3
 620 20 660 100 660 170 c 3
 660 230 630 280 570 280 c 3
 470 280 350 170 240 60 c 0
 140 -40 70 -159 70 -250 c 1024
EndSplineSet
Substitution2: "cyrl aalt XI_-1" afii10072.XI_
EndChar

StartChar: afii10072.XI_
Encoding: 58277 58277 390
Width: 1110
VWidth: 0
GlyphClass: 2
Flags: HMW
AnchorPoint: "middle" 800 160 basechar 0
AnchorPoint: "bottom" 850 -70 basechar 0
AnchorPoint: "top" 870 390 basechar 0
LayerCount: 2
Fore
SplineSet
1140 30 m 3
 1030 30 970 90 970 160 c 3
 970 210 990 270 1100 300 c 1
 920 270 790 60 780 30 c 1
 790 62 800 190 800 300 c 1
 710 260 490 170 490 80 c 3
 490 45 515 20 550 20 c 3
 620 20 660 100 660 170 c 3
 660 230 630 280 570 280 c 3
 470 280 350 170 240 60 c 0
 140 -40 70 -159 70 -250 c 1024
EndSplineSet
EndChar

StartChar: afii10073.I
Encoding: 58054 58054 391
Width: 370
VWidth: 10
GlyphClass: 2
Flags: HMW
LayerCount: 2
Fore
SplineSet
70 -20 m 1
 70 -20 100 -70 170 -70 c 3
 224 -70 300 -37 300 40 c 3
 300 90 270 120 220 120 c 3
 190 120 170 110 170 110 c 1
 170 110 240 150 240 220 c 3
 240 270 200 300 150 300 c 3
 120 300 91 292 70 278 c 1025
EndSplineSet
EndChar

StartChar: afii10073.I_
Encoding: 58086 58086 393
Width: 280
VWidth: 30
GlyphClass: 2
Flags: HMW
AnchorPoint: "top" 150 390 basechar 0
AnchorPoint: "bottom" 190 -210 basechar 0
AnchorPoint: "middle" 170 120 basechar 0
LayerCount: 2
Fore
SplineSet
310 30 m 3
 210 30 70 30 70 -70 c 3
 70 -110 100 -140 140 -140 c 3
 210 -140 280 -60 280 10 c 3
 280 80 240 120 170 120 c 1
 170 120 240 150 240 220 c 3
 240 270 200 300 150 300 c 3
 120 300 91 292 70 278 c 1025
EndSplineSet
Substitution2: "cyrl aalt XI_-1" afii10073.XI_
Substitution2: "cyrl aalt VI_-1" afii10073.VI_
Substitution2: "cyrl aalt _I_-1" afii10073._I_
EndChar

StartChar: afii10073._I
Encoding: 58118 58118 394
Width: 570
VWidth: 30
GlyphClass: 2
Flags: HMW
AnchorPoint: "top" 350 390 basechar 0
AnchorPoint: "bottom" 390 -180 basechar 0
AnchorPoint: "middle" 370 110 basechar 0
LayerCount: 2
Fore
SplineSet
270 -20 m 1
 270 -20 300 -70 370 -70 c 3
 424 -70 500 -37 500 40 c 3
 500 90 470 120 420 120 c 3
 390 120 370 110 370 110 c 1
 370 110 440 150 440 220 c 3
 440 270 400 300 350 300 c 3
 305 300 259 278 230 220 c 0
 190 140 140 30 30 30 c 1024
EndSplineSet
Substitution2: "cyrl aalt _I_-1" afii10073._I_
EndChar

StartChar: afii10073._I_
Encoding: 58150 58150 395
Width: 470
VWidth: 30
GlyphClass: 2
Flags: HMW
AnchorPoint: "top" 340 390 basechar 0
AnchorPoint: "bottom" 380 -240 basechar 0
AnchorPoint: "middle" 360 120 basechar 0
LayerCount: 2
Fore
SplineSet
500 30 m 3
 400 30 260 30 260 -70 c 3
 260 -110 290 -140 330 -140 c 3
 400 -140 470 -60 470 10 c 3
 470 80 430 120 360 120 c 1
 360 120 430 150 430 220 c 3
 430 270 390 300 340 300 c 3
 296 300 254 280 230 220 c 0
 198 140 140 30 30 30 c 1024
EndSplineSet
EndChar

StartChar: afii10073.VI
Encoding: 58182 58182 396
Width: 410
VWidth: 30
GlyphClass: 2
Flags: HMW
AnchorPoint: "top" 190 390 basechar 0
AnchorPoint: "bottom" 230 -180 basechar 0
AnchorPoint: "middle" 210 110 basechar 0
LayerCount: 2
Fore
SplineSet
110 -20 m 1
 110 -20 140 -70 210 -70 c 3
 264 -70 340 -37 340 40 c 3
 340 90 310 120 260 120 c 3
 230 120 210 110 210 110 c 1
 210 110 290 150 290 210 c 3
 290 245 265 270 230 270 c 3
 200 270 170 255 140 240 c 0
 110 225 70 210 30 210 c 1024
EndSplineSet
Substitution2: "cyrl aalt VI_-1" afii10073.VI_
EndChar

StartChar: afii10073.VI_
Encoding: 58214 58214 397
Width: 330
VWidth: 30
GlyphClass: 2
Flags: HMW
AnchorPoint: "top" 200 390 basechar 0
AnchorPoint: "bottom" 240 -240 basechar 0
AnchorPoint: "middle" 220 120 basechar 0
LayerCount: 2
Fore
SplineSet
360 30 m 3
 260 30 120 30 120 -70 c 3
 120 -110 150 -140 190 -140 c 3
 260 -140 330 -60 330 10 c 3
 330 80 290 120 220 120 c 1
 220 120 290 140 290 210 c 3
 290 245 265 270 230 270 c 3
 200 270 170 255 140 240 c 0
 110 225 70 210 30 210 c 1024
EndSplineSet
EndChar

StartChar: afii10073.XI
Encoding: 58246 58246 398
Width: 740
VWidth: 30
GlyphClass: 2
Flags: HMW
AnchorPoint: "top" 520 390 basechar 0
AnchorPoint: "bottom" 560 -180 basechar 0
AnchorPoint: "middle" 540 110 basechar 0
LayerCount: 2
Fore
SplineSet
440 -20 m 1
 440 -20 470 -70 540 -70 c 3
 594 -70 670 -37 670 40 c 3
 670 90 640 120 590 120 c 3
 560 120 540 110 540 110 c 1
 540 110 610 150 610 220 c 3
 610 270 570 300 520 300 c 3
 330 300 70 -60 70 -250 c 1027
EndSplineSet
Substitution2: "cyrl aalt XI_-1" afii10073.XI_
EndChar

StartChar: afii10073.XI_
Encoding: 58278 58278 399
Width: 650
VWidth: 30
GlyphClass: 2
Flags: HMW
AnchorPoint: "middle" 540 120 basechar 0
AnchorPoint: "bottom" 560 -240 basechar 0
AnchorPoint: "top" 520 390 basechar 0
LayerCount: 2
Fore
SplineSet
680 30 m 3
 580 30 440 30 440 -70 c 3
 440 -110 470 -140 510 -140 c 3
 580 -140 650 -60 650 10 c 3
 650 80 610 120 540 120 c 1
 540 120 610 150 610 220 c 3
 610 265 575 300 530 300 c 3
 330 300 70 -50 70 -250 c 1027
EndSplineSet
EndChar

StartChar: afii10076.I
Encoding: 58055 58055 405
Width: 590
VWidth: 0
GlyphClass: 2
Flags: HMW
LayerCount: 2
Fore
SplineSet
520 80 m 1
 460 40 420 30 370 30 c 3
 305 30 260 75 260 140 c 3
 260 190 290 250 390 300 c 1
 210 270 80 60 70 30 c 1
 80 62 90 190 90 300 c 1024
EndSplineSet
EndChar

StartChar: afii10076.I_
Encoding: 58087 58087 406
Width: 400
VWidth: 0
GlyphClass: 2
Flags: HMW
AnchorPoint: "top" 260 390 basechar 0
AnchorPoint: "middle" 240 160 basechar 0
AnchorPoint: "bottom" 270 -70 basechar 0
LayerCount: 2
Fore
SplineSet
430 30 m 3
 320 30 260 90 260 160 c 3
 260 210 280 270 390 300 c 1
 210 270 80 60 70 30 c 1
 80 62 90 190 90 300 c 1024
EndSplineSet
Substitution2: "cyrl aalt _I_-1" afii10076._I_
Substitution2: "cyrl aalt VI_-1" afii10076.VI_
Substitution2: "cyrl aalt XI_-1" afii10076.XI_
EndChar

StartChar: afii10076._I
Encoding: 58119 58119 407
Width: 790
VWidth: 0
GlyphClass: 2
Flags: HMW
AnchorPoint: "top" 460 390 basechar 0
AnchorPoint: "middle" 440 160 basechar 0
AnchorPoint: "bottom" 470 -70 basechar 0
LayerCount: 2
Fore
SplineSet
720 80 m 1
 660 40 620 30 570 30 c 3
 505 30 460 75 460 140 c 3
 460 190 490 250 590 300 c 1
 410 270 280 60 270 30 c 1
 280 62 290 190 290 300 c 1
 220 190 120 30 30 30 c 1027
EndSplineSet
Substitution2: "cyrl aalt _I_-1" afii10076._I_
EndChar

StartChar: afii10076._I_
Encoding: 58151 58151 408
Width: 600
VWidth: 0
GlyphClass: 2
Flags: HMW
AnchorPoint: "top" 460 390 basechar 0
AnchorPoint: "middle" 440 160 basechar 0
AnchorPoint: "bottom" 470 -70 basechar 0
LayerCount: 2
Fore
SplineSet
630 30 m 3
 520 30 460 90 460 160 c 3
 460 210 480 270 590 300 c 1
 410 270 280 60 270 30 c 1
 280 62 290 190 290 300 c 1
 220 190 120 30 30 30 c 1027
EndSplineSet
EndChar

StartChar: afii10076.VI
Encoding: 58183 58183 409
Width: 630
VWidth: 0
GlyphClass: 2
Flags: HMW
AnchorPoint: "top" 300 390 basechar 0
AnchorPoint: "middle" 280 160 basechar 0
AnchorPoint: "bottom" 310 -70 basechar 0
LayerCount: 2
Fore
SplineSet
30 210 m 3
 100 210 130 220 130 220 c 1
 130 190 120 62 110 30 c 1
 120 60 250 270 430 300 c 1
 330 250 300 190 300 140 c 3
 300 75 345 30 410 30 c 3
 460 30 500 40 560 80 c 1025
EndSplineSet
Substitution2: "cyrl aalt VI_-1" afii10076.VI_
EndChar

StartChar: afii10076.VI_
Encoding: 58215 58215 410
Width: 440
VWidth: 0
GlyphClass: 2
Flags: HMW
AnchorPoint: "top" 300 390 basechar 0
AnchorPoint: "middle" 280 160 basechar 0
AnchorPoint: "bottom" 310 -70 basechar 0
LayerCount: 2
Fore
SplineSet
470 30 m 3
 360 30 300 90 300 160 c 3
 300 210 320 270 430 300 c 1
 250 270 120 60 110 30 c 1
 120 62 130 190 130 220 c 1
 130 220 100 210 30 210 c 1024
EndSplineSet
EndChar

StartChar: afii10076.XI
Encoding: 58247 58247 411
Width: 990
VWidth: 0
GlyphClass: 2
Flags: HMW
AnchorPoint: "top" 660 390 basechar 0
AnchorPoint: "middle" 640 160 basechar 0
AnchorPoint: "bottom" 670 -70 basechar 0
LayerCount: 2
Fore
SplineSet
920 80 m 1
 860 40 820 30 770 30 c 3
 705 30 660 75 660 140 c 3
 660 190 690 250 790 300 c 1
 610 270 480 60 470 30 c 1
 480 62 490 190 490 300 c 1
 450 260 340 160 240 60 c 0
 150 -30 70 -140 70 -250 c 1027
EndSplineSet
Substitution2: "cyrl aalt XI_-1" afii10076.XI_
EndChar

StartChar: afii10076.XI_
Encoding: 58279 58279 412
Width: 800
VWidth: 0
GlyphClass: 2
Flags: HMW
AnchorPoint: "top" 660 390 basechar 0
AnchorPoint: "middle" 640 160 basechar 0
AnchorPoint: "bottom" 670 -70 basechar 0
LayerCount: 2
Fore
SplineSet
830 30 m 3
 720 30 660 90 660 160 c 3
 660 210 680 270 790 300 c 1
 610 270 480 60 470 30 c 1
 480 62 490 190 490 300 c 1
 450 260 340 160 240 60 c 0
 150 -30 70 -140 70 -250 c 1027
EndSplineSet
EndChar

StartChar: elcyrillic.I
Encoding: 58057 58057 423
Width: 450
VWidth: 0
GlyphClass: 2
Flags: HMW
LayerCount: 2
Fore
SplineSet
380 40 m 0
 320 50 290 100 290 160 c 3
 290 220 302 260 310 300 c 1
 270 180 200 30 130 30 c 3
 110 30 90 40 70 60 c 1025
EndSplineSet
EndChar

StartChar: elcyrillic.I_
Encoding: 58089 58089 425
Width: 400
VWidth: 0
GlyphClass: 2
Flags: HMW
AnchorPoint: "top" 270 390 basechar 0
AnchorPoint: "bottom" 230 -70 basechar 0
AnchorPoint: "middle" 270 160 basechar 0
LayerCount: 2
Fore
SplineSet
430 30 m 3
 320 30 290 90 290 160 c 3
 290 220 302 260 310 300 c 1
 270 180 200 30 130 30 c 3
 110 30 90 40 70 60 c 1025
EndSplineSet
Substitution2: "cyrl aalt XI_-1" elcyrillic.XI_
Substitution2: "cyrl aalt VI_-1" elcyrillic.VI_
Substitution2: "cyrl aalt _I_-1" elcyrillic._I_
EndChar

StartChar: elcyrillic._I
Encoding: 58121 58121 426
Width: 580
VWidth: 0
GlyphClass: 2
Flags: HMW
AnchorPoint: "top" 400 390 basechar 0
AnchorPoint: "bottom" 360 -70 basechar 0
AnchorPoint: "middle" 400 160 basechar 0
LayerCount: 2
Fore
SplineSet
510 40 m 17
 450 50 420 100 420 160 c 3
 420 220 432 260 440 300 c 1
 400 180 330 30 260 30 c 3
 240 30 227 42 215 60 c 0
 203 78 190 90 170 90 c 3
 153 90 140 80 120 60 c 0
 105 45 80 30 30 30 c 1027
EndSplineSet
Substitution2: "cyrl aalt _I_-1" elcyrillic._I_
EndChar

StartChar: elcyrillic._I_
Encoding: 58153 58153 427
Width: 530
VWidth: 0
GlyphClass: 2
Flags: HMW
AnchorPoint: "top" 400 390 basechar 0
AnchorPoint: "bottom" 360 -70 basechar 0
AnchorPoint: "middle" 400 160 basechar 0
LayerCount: 2
Fore
SplineSet
560 30 m 3
 450 30 420 90 420 160 c 3
 420 220 432 260 440 300 c 1
 400 180 330 30 260 30 c 3
 240 30 227 42 215 60 c 0
 203 78 190 90 170 90 c 3
 153 90 140 80 120 60 c 0
 105 45 80 30 30 30 c 1027
EndSplineSet
EndChar

StartChar: elcyrillic.VI
Encoding: 58185 58185 428
Width: 450
VWidth: 0
GlyphClass: 2
Flags: HMW
AnchorPoint: "top" 270 390 basechar 0
AnchorPoint: "bottom" 230 -70 basechar 0
AnchorPoint: "middle" 270 160 basechar 0
LayerCount: 2
Fore
SplineSet
380 40 m 17
 320 50 290 100 290 160 c 3
 290 220 302 260 310 300 c 1
 310 300 240 140 170 140 c 3
 136 140 111 177 110 210 c 1
 110 210 50 210 30 210 c 1024
EndSplineSet
Substitution2: "cyrl aalt VI_-1" elcyrillic.VI_
EndChar

StartChar: elcyrillic.VI_
Encoding: 58217 58217 429
Width: 400
VWidth: 0
GlyphClass: 2
Flags: HMW
AnchorPoint: "top" 270 390 basechar 0
AnchorPoint: "bottom" 230 -70 basechar 0
AnchorPoint: "middle" 270 160 basechar 0
LayerCount: 2
Fore
SplineSet
30 210 m 0
 110 210 l 1
 111 177 136 140 170 140 c 3
 240 140 310 300 310 300 c 1
 302 260 290 220 290 160 c 3
 290 90 320 30 430 30 c 1027
EndSplineSet
EndChar

StartChar: elcyrillic.XI
Encoding: 58249 58249 430
Width: 810
VWidth: 0
GlyphClass: 2
Flags: HMW
AnchorPoint: "top" 630 390 basechar 0
AnchorPoint: "bottom" 590 -70 basechar 0
AnchorPoint: "middle" 630 160 basechar 0
LayerCount: 2
Fore
SplineSet
740 40 m 17
 680 50 650 100 650 160 c 3
 650 220 662 260 670 300 c 1
 630 180 560 30 490 30 c 3
 470 30 457 42 445 60 c 0
 433 78 420 90 400 90 c 3
 260 90 70 -80 70 -250 c 1027
EndSplineSet
Substitution2: "cyrl aalt XI_-1" elcyrillic.XI_
EndChar

StartChar: elcyrillic.XI_
Encoding: 58281 58281 431
Width: 760
VWidth: 0
GlyphClass: 2
Flags: HMW
AnchorPoint: "middle" 630 160 basechar 0
AnchorPoint: "bottom" 590 -70 basechar 0
AnchorPoint: "top" 630 390 basechar 0
LayerCount: 2
Fore
SplineSet
790 30 m 3
 680 30 650 90 650 160 c 3
 650 220 662 260 670 300 c 1
 630 180 560 30 490 30 c 3
 470 30 457 42 445 60 c 0
 433 78 420 90 400 90 c 3
 260 90 70 -80 70 -250 c 1027
EndSplineSet
EndChar

StartChar: afii10078.I
Encoding: 58058 58058 432
Width: 700
VWidth: 0
GlyphClass: 2
Flags: HMW
LayerCount: 2
Fore
SplineSet
630 40 m 3
 570 40 540 100 540 160 c 3
 540 220 552 260 560 300 c 1
 520 180 440 40 360 40 c 3
 310 40 290 90 290 150 c 3
 290 200 302 250 310 290 c 1
 270 170 200 30 130 30 c 3
 110 30 90 40 70 60 c 1025
EndSplineSet
EndChar

StartChar: afii10078.I_
Encoding: 58090 58090 434
Width: 680
VWidth: 0
GlyphClass: 2
Flags: HMW
AnchorPoint: "top" 390 390 basechar 0
AnchorPoint: "bottom" 360 -70 basechar 0
AnchorPoint: "middle" 390 160 basechar 0
LayerCount: 2
Fore
SplineSet
710 30 m 3
 600 30 540 90 540 160 c 3
 540 220 552 260 560 300 c 1
 520 180 440 40 360 40 c 3
 310 40 290 90 290 150 c 3
 290 200 302 250 310 290 c 1
 270 170 200 30 130 30 c 3
 110 30 90 40 70 60 c 1025
EndSplineSet
Substitution2: "cyrl aalt _I_-1" afii10078._I_
Substitution2: "cyrl aalt VI_-1" afii10078.VI_
Substitution2: "cyrl aalt XI_-1" afii10078.XI_
EndChar

StartChar: afii10078._I
Encoding: 58122 58122 435
Width: 830
VWidth: 0
GlyphClass: 2
Flags: HMW
AnchorPoint: "top" 520 390 basechar 0
AnchorPoint: "bottom" 490 -70 basechar 0
AnchorPoint: "middle" 520 160 basechar 0
LayerCount: 2
Fore
SplineSet
760 40 m 3
 700 40 670 100 670 160 c 3
 670 220 682 260 690 300 c 1
 650 180 570 40 490 40 c 3
 440 40 420 90 420 150 c 3
 420 200 432 250 440 290 c 1
 400 170 330 30 260 30 c 3
 240 30 227 42 215 60 c 0
 203 78 190 90 170 90 c 3
 153 90 140 80 120 60 c 0
 105 45 80 30 30 30 c 1027
EndSplineSet
Substitution2: "cyrl aalt _I_-1" afii10078._I_
EndChar

StartChar: afii10078._I_
Encoding: 58154 58154 436
Width: 810
VWidth: 0
GlyphClass: 2
Flags: HMW
AnchorPoint: "top" 520 390 basechar 0
AnchorPoint: "bottom" 490 -70 basechar 0
AnchorPoint: "middle" 520 160 basechar 0
LayerCount: 2
Fore
SplineSet
840 30 m 3
 730 30 670 90 670 160 c 3
 670 220 682 260 690 300 c 1
 650 180 570 40 490 40 c 3
 440 40 420 90 420 150 c 3
 420 200 432 250 440 290 c 1
 400 170 330 30 260 30 c 3
 240 30 227 42 215 60 c 0
 203 78 190 90 170 90 c 3
 153 90 140 80 120 60 c 0
 105 45 80 30 30 30 c 1027
EndSplineSet
EndChar

StartChar: afii10078.VI
Encoding: 58186 58186 437
Width: 700
VWidth: 0
GlyphClass: 2
Flags: HMW
AnchorPoint: "top" 390 390 basechar 0
AnchorPoint: "bottom" 360 -70 basechar 0
AnchorPoint: "middle" 390 160 basechar 0
LayerCount: 2
Fore
SplineSet
630 40 m 0
 570 40 540 100 540 160 c 3
 540 220 552 260 560 300 c 1
 520 180 440 40 360 40 c 3
 310 40 290 90 290 150 c 3
 290 210 302 250 310 290 c 1
 310 290 240 140 170 140 c 3
 136 140 111 177 110 210 c 1
 110 210 50 210 30 210 c 1024
EndSplineSet
Substitution2: "cyrl aalt VI_-1" afii10078.VI_
EndChar

StartChar: afii10078.VI_
Encoding: 58218 58218 438
Width: 680
VWidth: 0
GlyphClass: 2
Flags: HMW
AnchorPoint: "top" 390 390 basechar 0
AnchorPoint: "bottom" 360 -70 basechar 0
AnchorPoint: "middle" 390 160 basechar 0
LayerCount: 2
Fore
SplineSet
710 30 m 0
 600 30 540 90 540 160 c 3
 540 220 552 260 560 300 c 1
 520 180 440 40 360 40 c 3
 310 40 290 90 290 150 c 3
 290 210 302 250 310 290 c 1
 310 290 240 140 170 140 c 3
 136 140 111 177 110 210 c 1
 110 210 50 210 30 210 c 1024
EndSplineSet
EndChar

StartChar: afii10078.XI
Encoding: 58250 58250 439
Width: 1060
VWidth: 0
GlyphClass: 2
Flags: HMW
AnchorPoint: "top" 750 390 basechar 0
AnchorPoint: "bottom" 720 -70 basechar 0
AnchorPoint: "middle" 750 160 basechar 0
LayerCount: 2
Fore
SplineSet
990 40 m 3
 930 40 900 100 900 160 c 3
 900 220 912 260 920 300 c 1
 880 180 800 40 720 40 c 3
 670 40 650 90 650 150 c 3
 650 200 662 250 670 290 c 1
 630 170 560 30 490 30 c 3
 470 30 457 42 445 60 c 0
 433 78 420 90 400 90 c 3
 260 90 70 -80 70 -250 c 1027
EndSplineSet
Substitution2: "cyrl aalt XI_-1" afii10078.XI_
EndChar

StartChar: afii10078.XI_
Encoding: 58282 58282 440
Width: 1040
VWidth: 0
GlyphClass: 2
Flags: HMW
AnchorPoint: "top" 750 390 basechar 0
AnchorPoint: "bottom" 720 -70 basechar 0
AnchorPoint: "middle" 750 160 basechar 0
LayerCount: 2
Fore
SplineSet
1070 30 m 3
 960 30 900 90 900 160 c 3
 900 220 912 260 920 300 c 1
 880 180 800 40 720 40 c 3
 670 40 650 90 650 150 c 3
 650 200 662 250 670 290 c 1
 630 170 560 30 490 30 c 3
 470 30 457 42 445 60 c 0
 433 78 420 90 400 90 c 3
 260 90 70 -80 70 -250 c 1027
EndSplineSet
EndChar

StartChar: afii10079.I
Encoding: 58059 58059 441
Width: 490
VWidth: 0
GlyphClass: 2
Flags: HMW
LayerCount: 2
Fore
SplineSet
70 160 m 27
 170 160 270 190 290 290 c 1
 290 270 290 180 290 160 c 3
 290 100 300 40 360 40 c 3
 380 40 400 50 420 70 c 1025
85 300 m 1
 77 270 70 210 70 160 c 3
 70 90 72 70 80 20 c 1024
EndSplineSet
EndChar

StartChar: afii10079.I_
Encoding: 58091 58091 443
Width: 360
VWidth: 0
GlyphClass: 2
Flags: HMW
AnchorPoint: "top" 190 390 basechar 0
AnchorPoint: "bottom" 230 -70 basechar 0
AnchorPoint: "middle" 190 160 basechar 0
LayerCount: 2
Fore
SplineSet
70 160 m 3
 170 160 270 190 290 290 c 1
 290 270 290 190 290 170 c 3
 290 90 310 30 390 30 c 1027
85 300 m 1
 77 270 70 210 70 160 c 3
 70 90 72 70 80 20 c 1024
EndSplineSet
Substitution2: "cyrl aalt _I_-1" afii10079._I_
Substitution2: "cyrl aalt VI_-1" afii10079.VI_
Substitution2: "cyrl aalt XI_-1" afii10079.XI_
EndChar

StartChar: afii10079._I
Encoding: 58123 58123 444
Width: 660
VWidth: 0
GlyphClass: 2
Flags: HMW
AnchorPoint: "top" 360 390 basechar 0
AnchorPoint: "bottom" 400 -70 basechar 0
AnchorPoint: "middle" 360 160 basechar 0
LayerCount: 2
Fore
SplineSet
30 30 m 3
 130 30 215 180 255 300 c 1
 247 270 240 210 240 160 c 3
 240 90 242 70 250 20 c 1024
240 160 m 27
 340 160 440 190 460 290 c 1
 460 270 460 180 460 160 c 3
 460 100 470 40 530 40 c 3
 550 40 570 50 590 70 c 1025
EndSplineSet
Substitution2: "cyrl aalt _I_-1" afii10079._I_
EndChar

StartChar: afii10079._I_
Encoding: 58155 58155 445
Width: 530
VWidth: 0
GlyphClass: 2
Flags: HMW
AnchorPoint: "top" 360 390 basechar 0
AnchorPoint: "bottom" 400 -70 basechar 0
AnchorPoint: "middle" 360 160 basechar 0
LayerCount: 2
Fore
SplineSet
240 160 m 27
 340 160 440 190 460 290 c 1
 460 270 460 190 460 170 c 3
 460 90 480 30 560 30 c 1027
30 30 m 3
 130 30 215 180 255 300 c 1
 247 270 240 210 240 160 c 3
 240 90 242 70 250 20 c 1024
EndSplineSet
EndChar

StartChar: afii10079.VI
Encoding: 58187 58187 446
Width: 550
VWidth: 0
GlyphClass: 2
Flags: HMW
AnchorPoint: "top" 250 390 basechar 0
AnchorPoint: "bottom" 290 -70 basechar 0
AnchorPoint: "middle" 250 160 basechar 0
LayerCount: 2
Fore
SplineSet
130 160 m 27
 230 160 330 190 350 290 c 1
 350 270 350 180 350 160 c 3
 350 100 360 40 420 40 c 3
 440 40 460 50 480 70 c 1024
30 210 m 3
 100 210 130 220 130 220 c 1
 130 200 130 180 130 160 c 3
 130 90 132 50 140 0 c 1024
EndSplineSet
Substitution2: "cyrl aalt VI_-1" afii10079.VI_
EndChar

StartChar: afii10079.VI_
Encoding: 58219 58219 447
Width: 420
VWidth: 0
GlyphClass: 2
Flags: HMW
AnchorPoint: "top" 250 390 basechar 0
AnchorPoint: "bottom" 290 -70 basechar 0
AnchorPoint: "middle" 250 160 basechar 0
LayerCount: 2
Fore
SplineSet
130 160 m 27
 230 160 330 190 350 290 c 1
 350 270 350 190 350 170 c 3
 350 90 370 30 450 30 c 1027
30 210 m 3
 100 210 130 220 130 220 c 1
 130 200 130 180 130 160 c 3
 130 90 132 50 140 0 c 1024
130 160 m 1048
EndSplineSet
EndChar

StartChar: afii10079.XI
Encoding: 58251 58251 448
Width: 900
VWidth: 0
GlyphClass: 2
Flags: HMW
AnchorPoint: "top" 600 390 basechar 0
AnchorPoint: "bottom" 640 -70 basechar 0
AnchorPoint: "middle" 600 160 basechar 0
LayerCount: 2
Fore
SplineSet
480 160 m 27
 580 160 680 190 700 290 c 1
 700 270 700 180 700 160 c 3
 700 100 710 40 770 40 c 3
 790 40 810 50 830 70 c 1025
70 -250 m 3
 70 -140 150 -30 240 60 c 0
 326 146 495 300 495 300 c 1
 487 270 480 210 480 160 c 3
 480 90 482 70 490 20 c 1024
EndSplineSet
Substitution2: "cyrl aalt XI_-1" afii10079.XI_
EndChar

StartChar: afii10079.XI_
Encoding: 58283 58283 449
Width: 770
VWidth: 0
GlyphClass: 2
Flags: HMW
AnchorPoint: "middle" 600 160 basechar 0
AnchorPoint: "bottom" 640 -70 basechar 0
AnchorPoint: "top" 600 390 basechar 0
LayerCount: 2
Fore
SplineSet
480 160 m 27
 580 160 680 190 700 290 c 1
 700 270 700 190 700 170 c 3
 700 90 720 30 800 30 c 1027
70 -250 m 3
 70 -140 150 -30 240 60 c 0
 326 146 495 300 495 300 c 1
 487 270 480 210 480 160 c 3
 480 90 482 70 490 20 c 1024
EndSplineSet
EndChar

StartChar: afii10090.I
Encoding: 58060 58060 453
Width: 850
VWidth: 0
GlyphClass: 2
Flags: HMW
LayerCount: 2
Fore
SplineSet
780 70 m 1
 760 50 740 40 710 40 c 3
 620 40 614 200 610 300 c 1
 590 210 550 60 440 60 c 3
 370 60 340 120 340 190 c 3
 340 230 342 250 350 290 c 1
 330 210 270 30 160 30 c 3
 105 30 70 65 70 120 c 3
 70 175 80 220 100 280 c 1025
EndSplineSet
EndChar

StartChar: afii10090.I_
Encoding: 58092 58092 455
Width: 670
VWidth: 0
GlyphClass: 2
Flags: HMW
AnchorPoint: "top" 350 390 basechar 0
AnchorPoint: "bottom" 430 -70 basechar 0
AnchorPoint: "middle" 350 160 basechar 0
LayerCount: 2
Fore
SplineSet
700 30 m 17
 640 30 610 90 610 150 c 3
 610 170 610 280 610 300 c 1
 590 210 550 60 440 60 c 3
 370 60 340 120 340 190 c 3
 340 230 342 250 350 290 c 1
 330 210 270 30 160 30 c 3
 105 30 70 65 70 120 c 3
 70 175 80 220 100 280 c 1025
EndSplineSet
Substitution2: "'aalt' XI_-1" afii10090.XI_
Substitution2: "'aalt' VI_-1" afii10090.VI_
Substitution2: "'aalt' _I_-1" afii10090._I_
Substitution2: "cyrl aalt _I_-1" afii10090._I_
Substitution2: "cyrl aalt XI_-1" afii10090.XI_
EndChar

StartChar: afii10090._I
Encoding: 58124 58124 456
Width: 980
VWidth: 0
GlyphClass: 2
Flags: HMW
AnchorPoint: "top" 480 390 basechar 0
AnchorPoint: "bottom" 560 -70 basechar 0
AnchorPoint: "middle" 480 160 basechar 0
LayerCount: 2
Fore
SplineSet
30 30 m 3
 130 30 180 160 230 280 c 1
 210 220 200 175 200 120 c 3
 200 65 235 30 290 30 c 3
 400 30 460 210 480 290 c 1
 472 250 470 230 470 190 c 3
 470 120 500 60 570 60 c 3
 680 60 720 210 740 300 c 1
 744 200 750 40 840 40 c 3
 870 40 890 50 910 70 c 1025
EndSplineSet
Substitution2: "'aalt' _I_-1" afii10090._I_
Substitution2: "cyrl aalt _I_-1" afii10090._I_
Substitution2: "cyrl aalt VI_-1" afii10090.VI_
EndChar

StartChar: afii10090._I_
Encoding: 58156 58156 457
Width: 800
VWidth: 0
GlyphClass: 2
Flags: HMW
AnchorPoint: "top" 480 390 basechar 0
AnchorPoint: "bottom" 560 -70 basechar 0
AnchorPoint: "middle" 480 160 basechar 0
LayerCount: 2
Fore
SplineSet
30 30 m 3
 130 30 180 160 230 280 c 1
 210 220 200 175 200 120 c 3
 200 65 235 30 290 30 c 3
 400 30 460 210 480 290 c 1
 472 250 470 230 470 190 c 3
 470 120 500 60 570 60 c 3
 680 60 720 210 740 300 c 1
 740 280 740 170 740 150 c 3
 740 90 770 30 830 30 c 1033
EndSplineSet
EndChar

StartChar: afii10090.VI
Encoding: 58188 58188 458
Width: 880
VWidth: 0
GlyphClass: 2
Flags: HMW
AnchorPoint: "top" 380 390 basechar 0
AnchorPoint: "bottom" 460 -70 basechar 0
AnchorPoint: "middle" 380 160 basechar 0
LayerCount: 2
Fore
SplineSet
30 210 m 3
 100 210 130 260 130 260 c 1
 110 220 100 160 100 120 c 3
 100 65 135 30 190 30 c 3
 300 30 360 210 380 290 c 1
 372 250 370 230 370 190 c 3
 370 120 400 60 470 60 c 3
 580 60 620 210 640 300 c 1
 644 200 650 40 740 40 c 3
 770 40 790 50 810 70 c 1025
EndSplineSet
Substitution2: "'aalt' VI_-1" afii10090.VI_
Substitution2: "cyrl aalt VI_-1" afii10090.VI_
EndChar

StartChar: afii10090.VI_
Encoding: 58220 58220 459
Width: 700
VWidth: 0
GlyphClass: 2
Flags: HMW
AnchorPoint: "top" 380 390 basechar 0
AnchorPoint: "bottom" 460 -70 basechar 0
AnchorPoint: "middle" 380 160 basechar 0
LayerCount: 2
Fore
SplineSet
730 30 m 17
 670 30 640 90 640 150 c 3
 640 170 640 280 640 300 c 1
 620 210 580 60 470 60 c 3
 400 60 370 120 370 190 c 3
 370 230 372 250 380 290 c 1
 360 210 300 30 190 30 c 3
 135 30 100 65 100 120 c 3
 100 160 110 220 130 260 c 1
 130 260 100 210 30 210 c 1024
EndSplineSet
EndChar

StartChar: afii10090.XI
Encoding: 58252 58252 460
Width: 1210
VWidth: 0
GlyphClass: 2
Flags: HMW
AnchorPoint: "top" 710 390 basechar 0
AnchorPoint: "bottom" 790 -70 basechar 0
AnchorPoint: "middle" 710 160 basechar 0
LayerCount: 2
Fore
SplineSet
70 -250 m 0
 70 -173 130 -80 200 0 c 0
 270 80 350 170 460 280 c 1
 440 220 430 175 430 120 c 3
 430 65 465 30 520 30 c 3
 630 30 690 210 710 290 c 1
 702 250 700 230 700 190 c 3
 700 120 730 60 800 60 c 3
 910 60 950 210 970 300 c 1
 974 200 980 40 1070 40 c 3
 1100 40 1120 50 1140 70 c 1025
EndSplineSet
Substitution2: "'aalt' XI_-1" afii10090.XI_
Substitution2: "cyrl aalt XI_-1" afii10090.XI_
EndChar

StartChar: afii10090.XI_
Encoding: 58284 58284 461
Width: 1030
VWidth: 0
GlyphClass: 2
Flags: HMW
AnchorPoint: "top" 710 390 basechar 0
AnchorPoint: "bottom" 790 -70 basechar 0
AnchorPoint: "middle" 710 160 basechar 0
LayerCount: 2
Fore
SplineSet
1060 30 m 17
 1000 30 970 90 970 150 c 3
 970 170 970 280 970 300 c 1
 950 210 910 60 800 60 c 3
 730 60 700 120 700 190 c 3
 700 230 702 250 710 290 c 1
 690 210 630 30 520 30 c 3
 465 30 430 65 430 120 c 3
 430 175 440 220 460 280 c 1
 350 170 270 80 200 0 c 0
 130 -80 70 -173 70 -250 c 1024
EndSplineSet
EndChar

StartChar: vline.2
Encoding: 63509 63509 463
Width: 150
VWidth: -40
Flags: HMW
LayerCount: 2
Fore
SplineSet
80 270 m 1
 74 240 70 130 70 30 c 1027
EndSplineSet
EndChar

StartChar: vline.3
Encoding: 63510 63510 464
Width: 160
VWidth: -40
Flags: HMW
LayerCount: 2
Fore
SplineSet
90 330 m 1
 78 270 70 180 70 -30 c 1027
EndSplineSet
EndChar

StartChar: vline.4
Encoding: 63511 63511 465
Width: 160
VWidth: -40
Flags: HMW
LayerCount: 2
Fore
SplineSet
90 380 m 3
 90 350 70 160 70 -80 c 1027
EndSplineSet
EndChar

StartChar: vline.5
Encoding: 63512 63512 467
Width: 170
VWidth: -40
Flags: HMW
LayerCount: 2
Fore
SplineSet
100 430 m 1
 100 401 70 153 70 -105 c 0
 70 -117 70 -128 70 -140 c 1025
EndSplineSet
EndChar

StartChar: afii10087.I
Encoding: 58062 58062 468
Width: 600
VWidth: 0
GlyphClass: 2
Flags: HMW
LayerCount: 2
Fore
SplineSet
70 270 m 1
 95 292 123 300 150 300 c 0
 220 300 260 240 260 170 c 0
 260 100 220 20 150 20 c 0
 115 20 90 45 90 80 c 3
 90 180 260 260 400 310 c 1
 300 260 270 190 270 140 c 0
 270 75 315 30 380 30 c 0
 430 30 470 40 530 80 c 1025
EndSplineSet
EndChar

StartChar: afii10087.I_
Encoding: 58094 58094 470
Width: 410
VWidth: 0
GlyphClass: 2
Flags: HMW
AnchorPoint: "top" 270 390 basechar 0
AnchorPoint: "bottom" 300 -70 basechar 0
AnchorPoint: "middle" 265 155 basechar 0
LayerCount: 2
Fore
SplineSet
440 30 m 3
 330 30 270 90 270 160 c 3
 270 210 290 280 400 310 c 1
 280 280 90 180 90 80 c 3
 90 45 115 20 150 20 c 3
 220 20 260 100 260 170 c 0
 260 240 220 300 150 300 c 0
 123 300 95 292 70 270 c 1025
EndSplineSet
Substitution2: "cyrl aalt _I_-1" afii10087._I_
Substitution2: "cyrl aalt VI_-1" afii10087.VI_
Substitution2: "cyrl aalt XI_-1" afii10087.XI_
EndChar

StartChar: afii10087._I
Encoding: 58126 58126 471
Width: 800
VWidth: 0
GlyphClass: 2
Flags: HMW
AnchorPoint: "top" 470 390 basechar 0
AnchorPoint: "bottom" 500 -70 basechar 0
AnchorPoint: "middle" 465 155 basechar 0
LayerCount: 2
Fore
SplineSet
730 80 m 1
 670 40 630 30 580 30 c 0
 515 30 470 75 470 140 c 3
 470 190 500 260 600 310 c 1
 460 260 290 180 290 80 c 0
 290 45 315 20 350 20 c 3
 420 20 460 100 460 170 c 3
 460 230 430 280 370 280 c 3
 294 280 235 210 175 140 c 0
 115 70 80 30 30 30 c 1027
EndSplineSet
Substitution2: "cyrl aalt _I_-1" afii10087._I_
EndChar

StartChar: afii10087._I_
Encoding: 58158 58158 472
Width: 610
VWidth: 0
GlyphClass: 2
Flags: HMW
AnchorPoint: "top" 470 390 basechar 0
AnchorPoint: "bottom" 500 -70 basechar 0
AnchorPoint: "middle" 465 155 basechar 0
LayerCount: 2
Fore
SplineSet
640 30 m 3
 530 30 470 90 470 160 c 3
 470 210 490 280 600 310 c 1
 480 280 290 180 290 80 c 0
 290 45 315 20 350 20 c 3
 420 20 460 100 460 170 c 3
 460 230 430 280 370 280 c 3
 294 280 235 210 175 140 c 0
 115 70 80 30 30 30 c 1027
EndSplineSet
EndChar

StartChar: afii10087.VI
Encoding: 58190 58190 473
Width: 680
VWidth: 0
GlyphClass: 2
Flags: HMW
AnchorPoint: "top" 350 390 basechar 0
AnchorPoint: "bottom" 380 -70 basechar 0
AnchorPoint: "middle" 345 155 basechar 0
LayerCount: 2
Fore
SplineSet
30 210 m 3
 50 210 120 210 140 210 c 3
 230 210 260 165 260 130 c 3
 260 80 210 10 160 10 c 3
 125 10 100 35 100 70 c 3
 100 180 340 260 480 310 c 1
 380 260 350 190 350 140 c 3
 350 75 395 30 460 30 c 3
 510 30 550 40 610 80 c 1025
EndSplineSet
Substitution2: "cyrl aalt VI_-1" afii10087.VI_
EndChar

StartChar: afii10087.VI_
Encoding: 58222 58222 474
Width: 490
VWidth: 0
GlyphClass: 2
Flags: HMW
AnchorPoint: "top" 350 390 basechar 0
AnchorPoint: "bottom" 380 -70 basechar 0
AnchorPoint: "middle" 345 155 basechar 0
LayerCount: 2
Fore
SplineSet
30 210 m 3
 50 210 120 210 140 210 c 3
 230 210 260 165 260 130 c 3
 260 80 210 10 160 10 c 3
 125 10 100 35 100 70 c 3
 100 210 360 280 480 310 c 1
 370 280 350 210 350 160 c 3
 350 90 410 30 520 30 c 1024
EndSplineSet
EndChar

StartChar: afii10087.XI
Encoding: 58254 58254 475
Width: 1000
VWidth: 0
GlyphClass: 2
Flags: HMW
AnchorPoint: "top" 670 390 basechar 0
AnchorPoint: "bottom" 700 -70 basechar 0
AnchorPoint: "middle" 665 155 basechar 0
LayerCount: 2
Fore
SplineSet
930 80 m 1
 870 40 830 30 780 30 c 0
 715 30 670 75 670 140 c 3
 670 190 700 260 800 310 c 1
 660 260 490 180 490 80 c 0
 490 45 515 20 550 20 c 3
 620 20 660 100 660 170 c 3
 660 230 630 280 570 280 c 3
 470 280 340 170 230 60 c 0
 130 -40 70 -159 70 -250 c 1024
EndSplineSet
Substitution2: "cyrl aalt XI_-1" afii10087.XI_
EndChar

StartChar: afii10087.XI_
Encoding: 58286 58286 476
Width: 810
VWidth: 0
GlyphClass: 2
Flags: HMW
AnchorPoint: "middle" 665 155 basechar 0
AnchorPoint: "bottom" 700 -70 basechar 0
AnchorPoint: "top" 670 390 basechar 0
LayerCount: 2
Fore
SplineSet
840 30 m 3
 730 30 670 90 670 160 c 3
 670 210 690 280 800 310 c 1
 680 280 490 180 490 80 c 0
 490 45 515 20 550 20 c 3
 620 20 660 100 660 170 c 3
 660 230 630 280 570 280 c 3
 470 280 340 170 230 60 c 0
 130 -40 70 -159 70 -250 c 1024
EndSplineSet
EndChar

StartChar: afii10088.I
Encoding: 58063 58063 477
Width: 760
VWidth: 30
GlyphClass: 2
Flags: HMW
LayerCount: 2
Fore
SplineSet
80 270 m 1
 72 230 70 200 70 160 c 3
 70 90 110 40 180 40 c 3
 290 40 336 200 340 300 c 1
 344 200 350 30 440 30 c 3
 490 30 515 60 530 90 c 1
 544 7 560 -91 560 -170 c 3
 560 -250 510 -310 460 -310 c 3
 430 -310 410 -280 410 -250 c 3
 410 -120 590 60 690 130 c 1024
EndSplineSet
EndChar

StartChar: afii10088._I
Encoding: 58127 58127 478
Width: 890
VWidth: 0
GlyphClass: 2
Flags: HMW
AnchorPoint: "middle" 330 190 basechar 0
AnchorPoint: "bottom" 430 -270 basechar 0
AnchorPoint: "top" 380 390 basechar 0
LayerCount: 2
Fore
SplineSet
820 130 m 0
 720 60 540 -120 540 -250 c 3
 540 -280 560 -310 590 -310 c 3
 640 -310 690 -250 690 -170 c 3
 690 -91 674 7 660 90 c 1
 645 60 620 30 570 30 c 3
 480 30 474 190 470 290 c 1
 466 190 420 40 310 40 c 3
 240 40 200 90 200 160 c 3
 200 210 202 240 210 300 c 1
 170 180 130 30 30 30 c 1027
EndSplineSet
Substitution2: "cyrl aalt _IX-1" afii10088._IX
EndChar

StartChar: afii10088.VI
Encoding: 58191 58191 479
Width: 770
VWidth: 0
GlyphClass: 2
Flags: HMW
AnchorPoint: "middle" 210 190 basechar 0
AnchorPoint: "bottom" 310 -270 basechar 0
AnchorPoint: "top" 260 390 basechar 0
LayerCount: 2
Fore
SplineSet
700 130 m 0
 600 60 420 -120 420 -250 c 3
 420 -280 440 -310 470 -310 c 3
 520 -310 570 -250 570 -170 c 3
 570 -91 554 7 540 90 c 1
 525 60 500 30 450 30 c 3
 360 30 354 200 350 300 c 1
 346 200 320 40 210 40 c 3
 140 40 100 90 100 160 c 3
 100 200 102 230 110 270 c 1
 110 270 80 210 30 210 c 1024
EndSplineSet
Substitution2: "cyrl aalt VIX-1" afii10088.VIX
EndChar

StartChar: afii10088.XI
Encoding: 58255 58255 480
Width: 1130
VWidth: 0
GlyphClass: 2
Flags: HMW
AnchorPoint: "middle" 570 190 basechar 0
AnchorPoint: "bottom" 670 -270 basechar 0
AnchorPoint: "top" 620 390 basechar 0
LayerCount: 2
Fore
SplineSet
1060 130 m 0
 960 60 780 -120 780 -250 c 3
 780 -280 800 -310 830 -310 c 3
 880 -310 930 -250 930 -170 c 3
 930 -91 914 7 900 90 c 1
 885 60 860 30 810 30 c 3
 720 30 714 190 710 290 c 1
 706 190 660 40 550 40 c 3
 480 40 440 90 440 160 c 3
 440 210 442 240 450 300 c 1
 340 160 270 80 200 0 c 0
 130 -80 70 -173 70 -250 c 1024
EndSplineSet
Substitution2: "cyrl aalt XIX-1" afii10088.XIX
EndChar

StartChar: afii10088.IX
Encoding: 58095 58095 481
Width: 340
VWidth: 0
GlyphClass: 2
Flags: HMW
AnchorPoint: "middle" 200 190 basechar 0
AnchorPoint: "bottom" 300 -270 basechar 0
AnchorPoint: "top" 250 390 basechar 0
LayerCount: 2
Fore
SplineSet
80 270 m 1
 72 230 70 200 70 160 c 3
 70 90 110 40 180 40 c 3
 290 40 336 200 340 300 c 1
 344 200 350 30 440 30 c 3
 490 30 515 60 530 90 c 1
 544 7 560 -91 560 -170 c 3
 560 -250 510 -310 460 -310 c 3
 430 -310 410 -280 410 -250 c 1027
EndSplineSet
Substitution2: "cyrl aalt _IX-1" afii10088._IX
Substitution2: "cyrl aalt VIX-1" afii10088.VIX
Substitution2: "cyrl aalt XIX-1" afii10088.XIX
EndChar

StartChar: afii10088._IX
Encoding: 58159 58159 482
Width: 470
VWidth: 0
GlyphClass: 2
Flags: HMW
AnchorPoint: "middle" 330 190 basechar 0
AnchorPoint: "bottom" 430 -270 basechar 0
AnchorPoint: "top" 380 390 basechar 0
LayerCount: 2
Fore
SplineSet
540 -250 m 3
 540 -280 560 -310 590 -310 c 3
 640 -310 690 -250 690 -170 c 3
 690 -91 674 7 660 90 c 1
 645 60 620 30 570 30 c 3
 480 30 474 190 470 290 c 1
 466 190 420 40 310 40 c 3
 240 40 200 90 200 160 c 3
 200 210 202 240 210 300 c 1
 170 180 130 30 30 30 c 1027
EndSplineSet
EndChar

StartChar: afii10088.VIX
Encoding: 58223 58223 483
Width: 350
VWidth: 0
GlyphClass: 2
Flags: HMW
AnchorPoint: "middle" 210 190 basechar 0
AnchorPoint: "bottom" 310 -270 basechar 0
AnchorPoint: "top" 260 390 basechar 0
LayerCount: 2
Fore
SplineSet
420 -250 m 3
 420 -280 440 -310 470 -310 c 3
 520 -310 570 -250 570 -170 c 3
 570 -91 554 7 540 90 c 1
 525 60 500 30 450 30 c 3
 360 30 354 200 350 300 c 1
 346 200 320 40 210 40 c 3
 140 40 100 90 100 160 c 3
 100 200 102 230 110 270 c 1
 110 270 80 210 30 210 c 1024
EndSplineSet
EndChar

StartChar: afii10088.XIX
Encoding: 58287 58287 484
Width: 710
VWidth: 0
GlyphClass: 2
Flags: HMW
AnchorPoint: "top" 620 390 basechar 0
AnchorPoint: "bottom" 670 -270 basechar 0
AnchorPoint: "middle" 570 190 basechar 0
LayerCount: 2
Fore
SplineSet
780 -250 m 3
 780 -280 800 -310 830 -310 c 3
 880 -310 930 -250 930 -170 c 3
 930 -91 914 7 900 90 c 1
 885 60 860 30 810 30 c 3
 720 30 714 190 710 290 c 1
 706 190 660 40 550 40 c 3
 480 40 440 90 440 160 c 3
 440 210 442 240 450 300 c 1
 340 160 270 80 200 0 c 0
 130 -80 70 -173 70 -250 c 1024
EndSplineSet
EndChar

StartChar: afii10091.I
Encoding: 58064 58064 486
Width: 1030
VWidth: 30
GlyphClass: 2
Flags: HMW
LayerCount: 2
Fore
SplineSet
960 130 m 0
 860 60 680 -120 680 -250 c 3
 680 -280 700 -310 730 -310 c 3
 780 -310 830 -250 830 -170 c 3
 830 -91 814 7 800 90 c 1
 785 60 760 30 710 30 c 3
 620 30 614 200 610 300 c 1
 590 210 550 60 440 60 c 3
 370 60 340 120 340 190 c 3
 340 230 342 250 350 290 c 1
 330 210 270 30 160 30 c 3
 105 30 70 65 70 120 c 3
 70 175 80 220 100 280 c 1025
EndSplineSet
EndChar

StartChar: afii10091._I
Encoding: 58128 58128 487
Width: 1160
VWidth: 0
GlyphClass: 2
Flags: HMW
AnchorPoint: "middle" 480 160 basechar 0
AnchorPoint: "bottom" 640 -270 basechar 0
AnchorPoint: "top" 480 390 basechar 0
LayerCount: 2
Fore
SplineSet
1090 130 m 0
 990 60 810 -120 810 -250 c 3
 810 -280 830 -310 860 -310 c 3
 910 -310 960 -250 960 -170 c 3
 960 -91 944 7 930 90 c 1
 915 60 890 30 840 30 c 3
 750 30 744 200 740 300 c 1
 720 210 680 60 570 60 c 3
 500 60 470 120 470 190 c 3
 470 230 472 250 480 290 c 1
 460 210 400 30 290 30 c 3
 235 30 200 65 200 120 c 3
 200 175 210 220 230 280 c 1
 180 160 130 30 30 30 c 1027
EndSplineSet
Substitution2: "cyrl aalt _IX-1" afii10091._IX
EndChar

StartChar: afii10091.VI
Encoding: 58192 58192 488
Width: 1060
VWidth: 0
GlyphClass: 2
Flags: HMW
AnchorPoint: "middle" 380 160 basechar 0
AnchorPoint: "bottom" 540 -270 basechar 0
AnchorPoint: "top" 380 390 basechar 0
LayerCount: 2
Fore
SplineSet
990 130 m 0
 890 60 710 -120 710 -250 c 3
 710 -280 730 -310 760 -310 c 3
 810 -310 860 -250 860 -170 c 3
 860 -91 844 7 830 90 c 1
 815 60 790 30 740 30 c 3
 650 30 644 200 640 300 c 1
 620 210 580 60 470 60 c 3
 400 60 370 120 370 190 c 3
 370 230 372 250 380 290 c 1
 360 210 300 30 190 30 c 3
 135 30 100 65 100 120 c 3
 100 160 110 220 130 260 c 1
 110 230 80 210 30 210 c 1024
EndSplineSet
Substitution2: "cyrl aalt VIX-1" afii10091.VIX
EndChar

StartChar: afii10091.XI
Encoding: 58256 58256 489
Width: 1390
VWidth: 0
GlyphClass: 2
Flags: HMW
AnchorPoint: "middle" 710 160 basechar 0
AnchorPoint: "bottom" 870 -270 basechar 0
AnchorPoint: "top" 710 390 basechar 0
LayerCount: 2
Fore
SplineSet
1320 140 m 0
 1220 70 1040 -110 1040 -240 c 3
 1040 -270 1060 -300 1090 -300 c 3
 1140 -300 1190 -240 1190 -160 c 3
 1190 -81 1174 17 1160 100 c 1
 1145 70 1120 40 1070 40 c 3
 980 40 974 200 970 300 c 1
 950 210 910 60 800 60 c 3
 730 60 700 120 700 190 c 3
 700 230 702 250 710 290 c 1
 690 210 630 30 520 30 c 3
 465 30 430 65 430 120 c 3
 430 175 440 220 460 280 c 1
 350 170 270 80 200 0 c 0
 130 -80 70 -173 70 -250 c 1024
EndSplineSet
Substitution2: "cyrl aalt XIX-1" afii10091.XIX
EndChar

StartChar: afii10091.IX
Encoding: 58096 58096 490
Width: 610
VWidth: 0
GlyphClass: 2
Flags: HMW
AnchorPoint: "middle" 350 160 basechar 0
AnchorPoint: "bottom" 510 -270 basechar 0
AnchorPoint: "top" 350 390 basechar 0
LayerCount: 2
Fore
SplineSet
680 -250 m 3
 680 -280 700 -310 730 -310 c 3
 780 -310 830 -250 830 -170 c 3
 830 -91 814 7 800 90 c 1
 785 60 760 30 710 30 c 3
 620 30 614 200 610 300 c 1
 590 210 550 60 440 60 c 3
 370 60 340 120 340 190 c 3
 340 230 342 250 350 290 c 1
 330 210 270 30 160 30 c 3
 105 30 70 65 70 120 c 3
 70 175 80 220 100 280 c 1025
EndSplineSet
Substitution2: "cyrl aalt _IX-1" afii10091._IX
Substitution2: "cyrl aalt VIX-1" afii10091.VIX
Substitution2: "cyrl aalt XIX-1" afii10091.XIX
EndChar

StartChar: afii10091._IX
Encoding: 58160 58160 491
Width: 740
VWidth: 0
GlyphClass: 2
Flags: HMW
AnchorPoint: "middle" 480 160 basechar 0
AnchorPoint: "bottom" 640 -270 basechar 0
AnchorPoint: "top" 480 390 basechar 0
LayerCount: 2
Fore
SplineSet
810 -250 m 3
 810 -280 830 -310 860 -310 c 3
 910 -310 960 -250 960 -170 c 3
 960 -91 944 7 930 90 c 1
 915 60 890 30 840 30 c 3
 750 30 744 200 740 300 c 1
 720 210 680 60 570 60 c 3
 500 60 470 120 470 190 c 3
 470 230 472 250 480 290 c 1
 460 210 400 30 290 30 c 3
 235 30 200 65 200 120 c 3
 200 175 210 220 230 280 c 1
 180 160 130 30 30 30 c 1027
EndSplineSet
EndChar

StartChar: afii10091.VIX
Encoding: 58224 58224 492
Width: 640
VWidth: 0
GlyphClass: 2
Flags: HMW
AnchorPoint: "middle" 380 160 basechar 0
AnchorPoint: "bottom" 540 -270 basechar 0
AnchorPoint: "top" 380 390 basechar 0
LayerCount: 2
Fore
SplineSet
710 -250 m 3
 710 -280 730 -310 760 -310 c 3
 810 -310 860 -250 860 -170 c 3
 860 -91 844 7 830 90 c 1
 815 60 790 30 740 30 c 3
 650 30 644 200 640 300 c 1
 620 210 580 60 470 60 c 3
 400 60 370 120 370 190 c 3
 370 230 372 250 380 290 c 1
 360 210 300 30 190 30 c 3
 135 30 100 65 100 120 c 3
 100 160 110 220 130 260 c 1
 130 260 80 210 30 210 c 1024
EndSplineSet
EndChar

StartChar: afii10091.XIX
Encoding: 58288 58288 493
Width: 970
VWidth: 0
GlyphClass: 2
Flags: HMW
AnchorPoint: "middle" 710 160 basechar 0
AnchorPoint: "bottom" 870 -270 basechar 0
AnchorPoint: "top" 710 390 basechar 0
LayerCount: 2
Fore
SplineSet
1040 -240 m 3
 1040 -270 1060 -300 1090 -300 c 3
 1140 -300 1190 -240 1190 -160 c 3
 1190 -81 1174 17 1160 100 c 1
 1145 70 1120 40 1070 40 c 3
 980 40 974 200 970 300 c 1
 950 210 910 60 800 60 c 3
 730 60 700 120 700 190 c 3
 700 230 702 250 710 290 c 1
 690 210 630 30 520 30 c 3
 465 30 430 65 430 120 c 3
 430 175 440 220 460 280 c 1
 350 170 270 80 200 0 c 0
 130 -80 70 -173 70 -250 c 1024
EndSplineSet
EndChar

StartChar: afii10089.I
Encoding: 58065 58065 495
Width: 410
VWidth: -30
GlyphClass: 2
Flags: HMW
LayerCount: 2
Fore
SplineSet
90 330 m 17
 90 330 70 305 70 270 c 3
 70 235 95 210 130 210 c 3
 230 210 290 300 290 300 c 1
 230 200 220 140 220 100 c 3
 220 65 245 30 280 30 c 3
 300 30 320 40 340 60 c 1025
EndSplineSet
EndChar

StartChar: afii10089.I_
Encoding: 58097 58097 497
Width: 270
VWidth: -30
GlyphClass: 2
Flags: HMW
AnchorPoint: "top" 190 390 basechar 0
AnchorPoint: "bottom" 210 -70 basechar 0
AnchorPoint: "middle" 220 140 basechar 0
LayerCount: 2
Fore
SplineSet
90 330 m 17
 90 330 70 305 70 270 c 3
 70 235 95 210 130 210 c 3
 230 210 290 300 290 300 c 1
 230 200 220 140 220 100 c 3
 220 55 255 30 300 30 c 1024
EndSplineSet
EndChar

StartChar: dotlessj.small
Encoding: 62977 62977 498
Width: 360
VWidth: 2
Flags: HMW
LayerCount: 2
Fore
SplineSet
310 90 m 3
 170 90 70 50 70 -20 c 3
 70 -55 95 -80 130 -80 c 3
 210 -80 240 80 240 180 c 1024
EndSplineSet
EndChar

StartChar: afii10106.I
Encoding: 58066 58066 503
Width: 590
VWidth: 0
GlyphClass: 2
Flags: HMW
LayerCount: 2
Fore
SplineSet
400 170 m 17
 400 170 420 200 460 200 c 3
 482 200 500 190 510 175 c 0
 517 165 520 153 520 140 c 3
 520 80 440 30 380 30 c 3
 320 30 290 100 290 160 c 3
 290 220 302 260 310 300 c 1
 270 180 200 30 130 30 c 3
 110 30 90 40 70 60 c 1025
EndSplineSet
EndChar

StartChar: afii10106._I
Encoding: 58130 58130 505
Width: 720
VWidth: 0
GlyphClass: 2
Flags: HMW
AnchorPoint: "middle" 400 160 basechar 0
AnchorPoint: "bottom" 400 -70 basechar 0
AnchorPoint: "top" 440 390 basechar 0
LayerCount: 2
Fore
SplineSet
530 170 m 17
 530 170 550 200 590 200 c 3
 612 200 630 190 640 175 c 0
 647 165 650 153 650 140 c 3
 650 80 570 30 510 30 c 3
 450 30 420 100 420 160 c 3
 420 220 432 260 440 300 c 1
 400 180 330 30 260 30 c 3
 240 30 227 42 215 60 c 0
 203 78 190 90 170 90 c 3
 153 90 140 80 120 60 c 0
 105 45 80 30 30 30 c 1027
EndSplineSet
EndChar

StartChar: afii10106.VI
Encoding: 58194 58194 506
Width: 570
VWidth: 0
GlyphClass: 2
Flags: HMW
AnchorPoint: "middle" 250 160 basechar 0
AnchorPoint: "bottom" 250 -70 basechar 0
AnchorPoint: "top" 290 390 basechar 0
LayerCount: 2
Fore
SplineSet
380 170 m 17
 380 170 400 200 440 200 c 3
 462 200 480 190 490 175 c 0
 497 165 500 153 500 140 c 3
 500 80 420 30 360 30 c 3
 300 30 270 100 270 160 c 3
 270 220 282 260 290 300 c 1
 290 300 230 210 130 210 c 3
 110 210 80 210 30 210 c 1024
EndSplineSet
EndChar

StartChar: afii10106.XI
Encoding: 58258 58258 507
Width: 950
VWidth: 0
GlyphClass: 2
Flags: HMW
AnchorPoint: "middle" 630 160 basechar 0
AnchorPoint: "bottom" 630 -70 basechar 0
AnchorPoint: "top" 670 390 basechar 0
LayerCount: 2
Fore
SplineSet
760 170 m 17
 760 170 780 200 820 200 c 3
 842 200 860 190 870 175 c 0
 877 165 880 153 880 140 c 3
 880 80 800 30 740 30 c 3
 680 30 650 100 650 160 c 3
 650 220 662 260 670 300 c 1
 630 180 560 30 490 30 c 3
 470 30 457 42 445 60 c 0
 433 78 420 90 400 90 c 3
 260 90 70 -80 70 -250 c 1027
EndSplineSet
EndChar

StartChar: afii10107.I
Encoding: 58067 58067 508
Width: 590
VWidth: 0
GlyphClass: 2
Flags: HMW
LayerCount: 2
Fore
SplineSet
70 160 m 3
 170 160 270 190 290 290 c 1
 290 270 290 180 290 160 c 3
 290 90 330 30 400 30 c 3
 460 30 520 80 520 140 c 3
 520 153 517 165 510 175 c 0
 500 190 482 200 460 200 c 3
 420 200 400 170 400 170 c 1033
85 300 m 1
 77 270 70 210 70 160 c 3
 70 90 72 70 80 20 c 1024
EndSplineSet
EndChar

StartChar: afii10107._I
Encoding: 58131 58131 510
Width: 720
VWidth: 0
GlyphClass: 2
Flags: HMW
AnchorPoint: "middle" 320 160 basechar 0
AnchorPoint: "bottom" 400 -70 basechar 0
AnchorPoint: "top" 320 390 basechar 0
LayerCount: 2
Fore
SplineSet
200 160 m 27
 300 160 400 190 420 290 c 1
 420 270 420 180 420 160 c 3
 420 90 460 30 530 30 c 3
 590 30 650 80 650 140 c 3
 650 153 647 165 640 175 c 0
 630 190 612 200 590 200 c 3
 550 200 530 170 530 170 c 1033
30 30 m 3
 130 30 175 180 215 300 c 1
 207 270 200 210 200 160 c 3
 200 90 202 70 210 20 c 1024
EndSplineSet
EndChar

StartChar: afii10107.VI
Encoding: 58195 58195 511
Width: 650
VWidth: 0
GlyphClass: 2
Flags: HMW
AnchorPoint: "middle" 250 160 basechar 0
AnchorPoint: "bottom" 330 -70 basechar 0
AnchorPoint: "top" 250 390 basechar 0
LayerCount: 2
Fore
SplineSet
130 160 m 27
 230 160 330 190 350 290 c 1
 350 270 350 180 350 160 c 3
 350 90 390 30 460 30 c 3
 520 30 580 80 580 140 c 3
 580 153 577 165 570 175 c 0
 560 190 542 200 520 200 c 3
 480 200 460 170 460 170 c 1033
30 210 m 3
 100 210 130 220 130 220 c 1
 130 200 130 180 130 160 c 3
 130 90 132 50 140 0 c 1024
EndSplineSet
EndChar

StartChar: afii10107.XI
Encoding: 58259 58259 512
Width: 980
VWidth: 0
GlyphClass: 2
Flags: HMW
AnchorPoint: "middle" 580 160 basechar 0
AnchorPoint: "bottom" 660 -70 basechar 0
AnchorPoint: "top" 580 390 basechar 0
LayerCount: 2
Fore
SplineSet
460 160 m 27
 560 160 660 190 680 290 c 1
 680 270 680 180 680 160 c 3
 680 90 720 30 790 30 c 3
 850 30 910 80 910 140 c 3
 910 153 907 165 900 175 c 0
 890 190 872 200 850 200 c 3
 810 200 790 170 790 170 c 1033
70 -250 m 3
 70 -140 150 -30 240 60 c 0
 326 146 425 230 475 300 c 1
 467 270 460 210 460 160 c 3
 460 90 462 70 470 20 c 1024
EndSplineSet
EndChar

StartChar: s.isolated
Encoding: 61440 61440 526
Width: 350
VWidth: -30
Flags: HMW
AnchorPoint: "top" 210 390 basechar 0
AnchorPoint: "middle" 190 130 basechar 0
AnchorPoint: "bottom" 180 -70 basechar 0
LayerCount: 2
Fore
SplineSet
70 0 m 3
 210 0 260 27 260 60 c 3
 260 93 230 108 190 130 c 0
 150 152 120 180 120 220 c 3
 120 265 160 300 205 300 c 3
 235 300 260 290 280 270 c 1024
EndSplineSet
EndChar

StartChar: numbersign
Encoding: 35 35 530
Width: 480
VWidth: 972
Flags: HMW
AnchorPoint: "middle" 240 190 basechar 0
LayerCount: 2
Fore
SplineSet
70 110 m 0
 70 110 160 130 270 130 c 3
 340 130 390 120 390 120 c 1024
410 250 m 3
 140 250 70 260 70 260 c 1024
260 330 m 1
 180 220 120 110 90 30 c 1025
390 330 m 1
 340 240 280 110 260 50 c 1025
EndSplineSet
EndChar

StartChar: dollar
Encoding: 36 36 531
Width: 470
VWidth: 972
Flags: HMW
AnchorPoint: "middle" 240 240 basechar 0
LayerCount: 2
Fore
SplineSet
200 -70 m 3
 200 0 250 440 250 580 c 1027
70 60 m 0
 70 60 180 30 280 30 c 3
 340 30 400 40 400 100 c 3
 400 170 320 203 240 235 c 0
 160 267 80 300 80 370 c 3
 80 450 180 490 260 490 c 3
 350 490 370 450 370 450 c 1024
EndSplineSet
EndChar

StartChar: ampersand
Encoding: 38 38 533
Width: 470
Flags: HMW
AnchorPoint: "middle" 230 240 basechar 0
LayerCount: 2
Fore
SplineSet
400 30 m 1
 260 30 130 220 130 360 c 3
 130 430 160 520 230 520 c 3
 290 520 310 450 310 390 c 3
 310 230 100 200 100 90 c 3
 100 61 128 27 178 27 c 3
 288 27 360 140 400 240 c 1025
EndSplineSet
EndChar

StartChar: parenleft
Encoding: 40 40 535
Width: 290
VWidth: 972
Flags: HMW
AnchorPoint: "middle" 140 160 basechar 0
LayerCount: 2
Fore
SplineSet
210 630 m 0
 210 630 70 360 70 120 c 3
 70 -70 190 -265 220 -310 c 1024
EndSplineSet
Substitution2: "subs symbol" parenleft.subs
Substitution2: "sups symbol" parenleft.sups
EndChar

StartChar: parenright
Encoding: 41 41 536
Width: 330
VWidth: 972
Flags: HMW
AnchorPoint: "middle" 170 160 basechar 0
LayerCount: 2
Fore
SplineSet
180 -310 m 0
 230 -170 260 0 260 150 c 3
 260 520 70 630 70 630 c 1024
EndSplineSet
Substitution2: "subs symbol" parenright.subs
Substitution2: "sups symbol" parenright.sups
EndChar

StartChar: plus
Encoding: 43 43 538
Width: 380
VWidth: 0
Flags: HMW
AnchorPoint: "bottom" 190 -70 basechar 0
AnchorPoint: "middle" 190 160 basechar 0
AnchorPoint: "top" 190 390 basechar 0
LayerCount: 2
Fore
SplineSet
310 190 m 0
 250 172 140 160 70 160 c 1024
210 60 m 1
 204 90 190 200 190 300 c 1024
EndSplineSet
Substitution2: "subs symbol" plus.subs
Substitution2: "sups symbol" plus.sups
EndChar

StartChar: one
Encoding: 49 49 542
Width: 470
VWidth: 972
Flags: HMW
AnchorPoint: "top" 230 560 basechar 0
AnchorPoint: "middle" 230 240 basechar 0
AnchorPoint: "bottom" 230 -70 basechar 0
LayerCount: 2
Fore
SplineSet
70 70 m 0
 240 220 351 427 360 520 c 1
 360 469 340 321 340 180 c 3
 340 127 342 76 350 30 c 1024
EndSplineSet
Substitution2: "legacy-en-1" one.eng
Substitution2: "subs numeric" uni2081
Substitution2: "sups numeric" uni00B9
EndChar

StartChar: two
Encoding: 50 50 543
Width: 470
VWidth: 972
Flags: HMW
AnchorPoint: "top" 230 560 basechar 0
AnchorPoint: "middle" 230 240 basechar 0
AnchorPoint: "bottom" 230 -70 basechar 0
LayerCount: 2
Fore
SplineSet
340 30 m 3
 280 30 190 36 150 60 c 0
 130 72 120 90 120 110 c 3
 120 140 130 164 150 200 c 0
 175 245 230 315 260 360 c 0
 284 396 300 423 300 450 c 3
 300 490 270 520 230 520 c 3
 190 520 150 490 150 450 c 3
 150 430 155 420 155 420 c 1025
EndSplineSet
Substitution2: "subs numeric" two.subs
Substitution2: "sups numeric" two.sups
EndChar

StartChar: three
Encoding: 51 51 544
Width: 470
VWidth: 972
Flags: HMW
AnchorPoint: "top" 230 560 basechar 0
AnchorPoint: "middle" 230 240 basechar 0
AnchorPoint: "bottom" 230 -70 basechar 0
LayerCount: 2
Fore
SplineSet
110 30 m 0
 190 30 360 80 360 160 c 3
 360 193 331 210 295 230 c 0
 259 250 230 267 230 300 c 3
 230 330 255 355 285 375 c 0
 315 395 340 420 340 450 c 3
 340 500 290 520 240 520 c 3
 212 520 165 518 120 500 c 1024
EndSplineSet
Substitution2: "subs numeric" uni2083
Substitution2: "sups numeric" three.sups
EndChar

StartChar: four
Encoding: 52 52 545
Width: 470
VWidth: 972
Flags: HMW
AnchorPoint: "top" 230 560 basechar 0
AnchorPoint: "middle" 230 240 basechar 0
AnchorPoint: "bottom" 230 -70 basechar 0
LayerCount: 2
Fore
SplineSet
360 30 m 0
 360 30 340 50 340 100 c 3
 340 170 360 240 360 240 c 1
 360 240 300 190 230 190 c 3
 160 190 110 250 110 320 c 3
 110 440 170 520 170 520 c 1024
EndSplineSet
Substitution2: "subs numeric" uni2084
Substitution2: "sups numeric" four.sups
EndChar

StartChar: five
Encoding: 53 53 546
Width: 470
VWidth: 972
Flags: HMW
AnchorPoint: "top" 230 560 basechar 0
AnchorPoint: "middle" 230 240 basechar 0
AnchorPoint: "bottom" 230 -70 basechar 0
LayerCount: 2
Fore
SplineSet
232 470 m 0
 232 470 290 500 400 520 c 1024
70 70 m 0
 70 70 120 30 180 30 c 3
 250 30 320 60 320 130 c 3
 320 180 273 230 225 280 c 0
 177 330 130 380 130 430 c 3
 130 465 140 490 140 490 c 1024
EndSplineSet
Substitution2: "subs numeric" five.subs
Substitution2: "sups numeric" five.sups
EndChar

StartChar: six
Encoding: 54 54 547
Width: 470
VWidth: 972
Flags: HMW
AnchorPoint: "top" 230 560 basechar 0
AnchorPoint: "middle" 230 240 basechar 0
AnchorPoint: "bottom" 230 -70 basechar 0
LayerCount: 2
Fore
SplineSet
200 240 m 1
 200 240 230 270 280 270 c 0
 333 270 370 233 370 180 c 0
 370 100 270 30 190 30 c 0
 120 30 80 70 80 140 c 0
 80 350 390 520 390 520 c 1025
EndSplineSet
Substitution2: "subs numeric" six.subs
Substitution2: "sups numeric" six.sups
EndChar

StartChar: seven
Encoding: 55 55 548
Width: 470
VWidth: 972
Flags: HMW
AnchorPoint: "top" 230 560 basechar 0
AnchorPoint: "middle" 230 240 basechar 0
AnchorPoint: "bottom" 230 -70 basechar 0
LayerCount: 2
Fore
SplineSet
130 190 m 1
 130 190 300 230 410 230 c 1025
90 400 m 1
 90 400 70 420 70 450 c 0
 70 484 100 520 200 520 c 0
 280 520 310 460 310 380 c 0
 310 270 240 30 240 30 c 1025
EndSplineSet
Substitution2: "legacy-en-1" seven.eng
Substitution2: "subs numeric" seven.subs
Substitution2: "sups numeric" seven.sups
EndChar

StartChar: eight
Encoding: 56 56 549
Width: 470
VWidth: 972
Flags: HMW
AnchorPoint: "top" 230 560 basechar 0
AnchorPoint: "middle" 230 240 basechar 0
AnchorPoint: "bottom" 230 -70 basechar 0
LayerCount: 2
Fore
SplineSet
140 440 m 1
 140 440 110 420 110 370 c 0
 110 290 310 180 310 100 c 0
 310 60 280 30 240 30 c 0
 170 30 110 50 110 120 c 0
 110 225 350 315 350 420 c 0
 350 480 300 520 240 520 c 0
 200 520 180 500 180 500 c 1025
EndSplineSet
Substitution2: "subs numeric" eight.subs
Substitution2: "sups numeric" eight.sups
EndChar

StartChar: nine
Encoding: 57 57 550
Width: 470
VWidth: 972
Flags: HMW
AnchorPoint: "top" 230 560 basechar 0
AnchorPoint: "middle" 230 240 basechar 0
AnchorPoint: "bottom" 230 -70 basechar 0
LayerCount: 2
Fore
SplineSet
280 500 m 0
 280 500 260 520 220 520 c 3
 150 520 100 460 100 390 c 3
 100 330 140 290 200 290 c 3
 259 290 350 330 350 390 c 3
 350 410 345 425 340 440 c 1
 350 415 360 360 360 300 c 3
 360 140 250 30 250 30 c 1024
EndSplineSet
Substitution2: "subs numeric" nine.subs
Substitution2: "sups numeric" nine.sups
EndChar

StartChar: at
Encoding: 64 64 557
Width: 610
VWidth: 0
Flags: HMW
AnchorPoint: "top" 310 500 basechar 0
AnchorPoint: "middle" 310 160 basechar 0
AnchorPoint: "bottom" 310 -180 basechar 0
LayerCount: 2
Fore
SplineSet
490 0 m 0
 415 -50 310 -100 210 -100 c 3
 120 -100 70 -20 70 70 c 3
 70 280 200 430 410 430 c 0
 490 430 540 380 540 300 c 0
 540 220 480 100 400 100 c 0
 365 100 348 135 330 170 c 0
 312 205 295 240 260 240 c 0
 210 240 180 170 180 120 c 0
 180 85 205 60 240 60 c 0
 320 60 398 214 398 294 c 1025
EndSplineSet
EndChar

StartChar: bracketleft
Encoding: 91 91 584
Width: 400
VWidth: 970
Flags: HMW
LayerCount: 2
Fore
SplineSet
330 -210 m 0
 330 -210 260 -240 180 -240 c 3
 150 -240 70 -220 70 -140 c 3
 70 -70 90 190 90 330 c 3
 90 470 70 520 70 550 c 3
 70 620 190 630 210 630 c 3
 250 630 270 600 270 600 c 1024
EndSplineSet
EndChar

StartChar: bracketright
Encoding: 93 93 586
Width: 400
VWidth: 972
Flags: HMW
LayerCount: 2
Fore
SplineSet
70 -210 m 0
 120 -230 180 -240 240 -240 c 3
 300 -240 330 -210 330 -150 c 3
 330 -59 270 -10 270 80 c 3
 270 215 300 402 300 530 c 3
 300 600 240 630 170 630 c 3
 130 630 100 615 100 615 c 1024
EndSplineSet
EndChar

StartChar: underscore
Encoding: 95 95 587
Width: 470
VWidth: 972
Flags: HMW
LayerCount: 2
Fore
SplineSet
30 30 m 3
 50 30 140 40 210 40 c 3
 280 40 430 30 500 30 c 1024
EndSplineSet
EndChar

StartChar: braceleft
Encoding: 123 123 588
Width: 340
VWidth: 972
Flags: HMW
LayerCount: 2
Fore
SplineSet
270 -200 m 3
 170 -200 140 -100 140 70 c 3
 140 110 110 140 70 140 c 1
 70 210 190 280 190 550 c 1024
EndSplineSet
EndChar

StartChar: braceright
Encoding: 125 125 590
Width: 340
VWidth: 972
Flags: HMW
LayerCount: 2
Fore
SplineSet
220 -160 m 0
 220 -160 180 -90 180 0 c 3
 180 70 200 180 270 210 c 1
 200 210 150 260 150 330 c 3
 150 400 180 490 180 560 c 3
 180 600 150 630 110 630 c 3
 85 630 70 620 70 620 c 1024
EndSplineSet
EndChar

StartChar: sterling
Encoding: 163 163 591
Width: 570
VWidth: 1062
Flags: HMW
AnchorPoint: "top" 300 560 basechar 0
AnchorPoint: "middle" 280 240 basechar 0
AnchorPoint: "bottom" 280 -70 basechar 0
LayerCount: 2
Fore
SplineSet
170 240 m 0
 170 240 330 270 440 270 c 1024
500 60 m 0
 500 60 450 30 400 30 c 3
 300 30 210 130 140 130 c 3
 100 130 70 100 70 60 c 3
 70 25 95 0 130 0 c 3
 180 0 220 60 280 210 c 0
 360 410 400 490 430 520 c 1024
EndSplineSet
EndChar

StartChar: section
Encoding: 167 167 593
Width: 400
VWidth: 0
UnlinkRmOvrlpSave: 1
Flags: HMW
AnchorPoint: "middle" 200 160 basechar 0
LayerCount: 2
Fore
SplineSet
200 270 m 3
 140 270 90 220 90 160 c 3
 90 120 120 70 180 40 c 0
 240 10 280 -20 280 -60 c 3
 280 -120 200 -160 70 -200 c 1024
180 40 m 17
 210 40 330 80 330 150 c 3
 330 204 267 233 200 270 c 0
 143 302 110 340 110 400 c 3
 110 470 170 520 240 520 c 3
 280 520 314 490 320 460 c 1025
EndSplineSet
EndChar

StartChar: logicalnot
Encoding: 172 172 596
Width: 410
VWidth: 972
Flags: HMW
LayerCount: 2
Fore
SplineSet
70 275 m 0
 70 275 210 300 270 300 c 3
 305 300 330 275 330 240 c 3
 330 205 321 80 321 45 c 3
 321 15 340 0 340 0 c 1024
EndSplineSet
EndChar

StartChar: registered
Encoding: 174 174 598
Width: 640
VWidth: 972
Flags: HMW
AnchorPoint: "middle" 330 190 basechar 0
AnchorPoint: "bottom" 300 -180 basechar 0
AnchorPoint: "top" 350 540 basechar 0
LayerCount: 2
Fore
SplineSet
210 30 m 3
 210 140 240 300 350 300 c 3
 390 300 420 270 420 230 c 3
 420 180 360 155 290 140 c 1
 320 110 370 70 420 70 c 3
 490 70 570 140 570 210 c 3
 570 340 480 440 350 440 c 3
 200 440 70 280 70 130 c 3
 70 -10 140 -110 280 -110 c 3
 424 -110 570 -3 570 210 c 1027
EndSplineSet
EndChar

StartChar: AE
Encoding: 198 198 608
Width: 770
VWidth: 947
Flags: HMW
AnchorPoint: "bottom" 440 -70 basechar 0
AnchorPoint: "middle" 440 240 basechar 0
AnchorPoint: "top" 440 500 basechar 0
LayerCount: 2
Fore
SplineSet
70 30 m 1
 90 129 115 259 150 353 c 0
 180 434 200 470 240 470 c 0
 280 470 300 425 320 353 c 0
 340 281 360 168 360 84 c 0
 360 53 340 30 310 30 c 0
 260 30 220 75 220 120 c 3
 220 219 450 299 560 299 c 1024
700 57 m 0
 655 39 610 30 570 30 c 3
 420 30 340 164 340 299 c 3
 340 380 400 470 490 470 c 3
 530 470 560 443 560 407 c 1025
EndSplineSet
Substitution2: "sups uppercase" uni1D2D
EndChar

StartChar: ccedilla
Encoding: 231 231 612
Width: 340
VWidth: 30
UnlinkRmOvrlpSave: 1
Flags: HMW
AnchorPoint: "top" 220 390 basechar 0
AnchorPoint: "middle" 180 160 basechar 0
AnchorPoint: "bottom" 200 -240 basechar 0
LayerCount: 2
Fore
SplineSet
270 290 m 1
 254 298 240 300 220 300 c 3
 140 300 70 220 70 140 c 3
 70 70 115 30 160 -0 c 0
 214 -36 270 -70 270 -130 c 3
 270 -170 230 -195 180 -200 c 1024
EndSplineSet
EndChar

StartChar: euro
Encoding: 8364 8364 618
Width: 600
VWidth: 972
Flags: HMW
LayerCount: 2
Fore
SplineSet
70 200 m 0
 240 227 350 230 420 230 c 1024
450 60 m 0
 420 40 385 30 340 30 c 3
 220 30 140 120 140 240 c 3
 140 390 240 520 390 520 c 3
 460 520 503 497 530 470 c 1024
70 310 m 0
 240 337 390 340 460 340 c 1024
EndSplineSet
EndChar

StartChar: paragraph
Encoding: 182 182 635
Width: 430
VWidth: -28
Flags: HMW
LayerCount: 2
Fore
SplineSet
360 500 m 0
 320 512 282 520 250 520 c 3
 125 520 70 436 70 380 c 3
 70 315 115 270 180 270 c 3
 230 270 280 280 340 320 c 1025
240 490 m 3
 240 460 220 270 220 30 c 1024
360 499 m 3
 360 469 340 110 340 0 c 1024
EndSplineSet
EndChar

StartChar: Eth
Encoding: 208 208 646
Width: 540
VWidth: 30
UnlinkRmOvrlpSave: 1
Flags: HMW
AnchorPoint: "bottom" 270 -70 basechar 0
AnchorPoint: "middle" 270 240 basechar 0
AnchorPoint: "top" 280 560 basechar 0
LayerCount: 2
Fore
SplineSet
350 260 m 1
 305 246 265 240 230 240 c 3
 120 240 70 310 70 370 c 3
 70 470 180 520 280 520 c 3
 380 520 470 430 470 330 c 3
 470 200 360 30 230 30 c 3
 190 30 180 70 180 110 c 3
 180 320 220 500 220 500 c 1024
EndSplineSet
EndChar

StartChar: Thorn
Encoding: 222 222 657
Width: 440
VWidth: 0
Flags: HMW
AnchorPoint: "bottom" 210 -70 basechar 0
AnchorPoint: "middle" 210 270 basechar 0
AnchorPoint: "top" 250 590 basechar 0
LayerCount: 2
Fore
SplineSet
120 30 m 0
 105 110 100 190 100 230 c 3
 100 300 110 390 110 460 c 3
 110 540 100 590 70 630 c 1025
120 170 m 3
 250 170 370 270 370 400 c 3
 370 470 320 520 250 520 c 3
 206 520 160 505 120 480 c 1025
EndSplineSet
EndChar

StartChar: thorn
Encoding: 254 254 659
Width: 450
VWidth: 0
Flags: HMW
AnchorPoint: "top" 290 500 basechar 0
AnchorPoint: "middle" 260 150 basechar 0
AnchorPoint: "bottom" 250 -270 basechar 0
LayerCount: 2
Fore
SplineSet
110 30 m 0
 200 30 380 60 380 200 c 3
 380 255 345 300 290 300 c 3
 160 300 110 140 70 -310 c 1
 102 90 110 260 110 350 c 3
 110 430 100 480 70 520 c 1025
EndSplineSet
EndChar

StartChar: f_f
Encoding: 64256 64256 663
Width: 820
VWidth: 972
Flags: HMW
AnchorPoint: "bottom" 580 -270 basechar 0
AnchorPoint: "middle" 530 240 basechar 0
AnchorPoint: "top" 700 590 basechar 0
LayerCount: 2
Fore
SplineSet
560 530 m 3
 560 360 530 230 530 90 c 3
 530 -80 560 -100 580 -210 c 1024
750 110 m 3
 550 110 330 100 70 0 c 1025
280 630 m 3
 280 430 230 200 230 30 c 3
 230 -140 240 -310 330 -310 c 3
 355 -310 375 -301 390 -286 c 1024
EndSplineSet
Ligature2: "rlig x2" f f
LCarets2: 1 0
EndChar

StartChar: ogonek
Encoding: 731 731 689
Width: 310
VWidth: -28
Flags: HMW
LayerCount: 2
Fore
SplineSet
240 -230 m 0
 220 -275 185 -310 140 -310 c 3
 95 -310 70 -275 70 -230 c 3
 70 -120 170 -20 240 30 c 1025
EndSplineSet
EndChar

StartChar: club
Encoding: 9827 9827 720
Width: 740
VWidth: -28
Flags: HMW
LayerCount: 2
Fore
SplineSet
294 15 m 1
 368 32 410 46 410 62 c 3
 410 82 370 182 350 182 c 3
 330 182 319 143 300 32 c 0
 299 25 298 20 294 15 c 1
256 6 m 0
 246 11 240 22 240 32 c 3
 240 34 240 38 241 43 c 0
 260 154 276 242 350 242 c 3
 413 242 470 105 470 62 c 3
 470 -18 360 -30 256 -56 c 0
 249 -58 243 -58 240 -58 c 3
 220 -58 210 -48 210 -28 c 3
 210 -10 220 -3 240 2 c 0
 256 6 l 0
470 262 m 3
 470 322 519 372 580 372 c 27
 641 372 700 337 700 272 c 3
 700 214 643 162 580 162 c 27
 522 162 470 191 470 262 c 3
580 222 m 3
 601 222 640 242 640 272 c 27
 640 300 608 312 580 312 c 27
 552 312 530 287 530 262 c 3
 530 229 555 222 580 222 c 3
191 389 m 1
 221 389 250 342 250 302 c 3
 250 245 188 182 130 182 c 3
 80 182 40 218 40 272 c 3
 40 312 70 358 110 380 c 1
 106 384 100 396 100 402 c 3
 100 416 106 425 130 432 c 0
 150 438 240 464 263 470 c 1
 269 506 295 558 350 558 c 3
 413 558 480 510 480 438 c 3
 480 381 440 322 380 322 c 3
 324 322 265 368 263 408 c 1
 247 403 206 392 191 389 c 1
160 332 m 3
 127 332 100 292 100 272 c 3
 100 252 112 242 130 242 c 3
 156 242 190 282 190 302 c 3
 190 322 180 332 160 332 c 3
380 382 m 3
 400 382 420 411 420 438 c 27
 420 474 383 498 350 498 c 3
 330 498 320 464 320 438 c 27
 320 406 353 382 380 382 c 3
EndSplineSet
EndChar

StartChar: diamond
Encoding: 9830 9830 721
Width: 620
VWidth: -28
Flags: HMW
LayerCount: 2
Fore
SplineSet
350 528 m 3
 350 412 490 359 490 282 c 3
 490 227 391 124 342 42 c 0
 331 24 322 12 310 12 c 3
 290 12 280 22 280 42 c 1
 252 83 190 152 160 152 c 3
 140 152 130 162 130 182 c 3
 130 200 148 227 160 242 c 0
 222 328 283 508 290 528 c 0
 297 547 306 558 320 558 c 3
 340 558 350 545 350 528 c 3
340 145 m 1
 363 177 430 264 430 282 c 3
 430 302 352 371 340 392 c 1
 340 145 l 1
280 332 m 1
 256 286 236 240 206 200 c 1
 224 194 268 153 280 137 c 1
 280 157 280 312 280 332 c 1
EndSplineSet
EndChar

StartChar: heart
Encoding: 9829 9829 722
Width: 620
VWidth: -580
Flags: HMW
LayerCount: 2
Fore
SplineSet
100 452 m 3
 107 452 117 443 132 422 c 0
 173 364 252 253 267 233 c 0
 273 224 283 222 290 222 c 3
 310 222 367 492 490 492 c 3
 530 492 580 465 580 372 c 3
 580 180 500 32 350 32 c 3
 182 32 40 174 40 332 c 3
 40 356 45 452 100 452 c 3
101 362 m 1
 100 354 100 344 100 332 c 3
 100 212 211 92 350 92 c 3
 479 92 520 244 520 372 c 27
 520 398 516 432 490 432 c 3
 430 432 360 211 346 190 c 0
 332 169 310 162 290 162 c 3
 270 162 238 171 223 192 c 0
 101 362 l 1
EndSplineSet
EndChar

StartChar: spade
Encoding: 9824 9824 723
Width: 620
VWidth: -28
Flags: HMW
LayerCount: 2
Fore
SplineSet
40 142 m 3
 40 206 198 380 270 452 c 1
 270 478 270 501 270 528 c 3
 270 548 280 558 300 558 c 3
 314 558 329 545 339 528 c 0
 402 418 580 198 580 132 c 3
 580 82 530 52 490 52 c 3
 438 52 366 102 330 102 c 1
 330 82 330 -38 330 -58 c 3
 330 -78 320 -88 300 -88 c 3
 280 -88 270 -78 270 -58 c 3
 270 -38 270 82 270 102 c 1
 259 102 168 62 130 62 c 3
 84 62 40 91 40 142 c 3
520 132 m 3
 520 162 350 396 330 430 c 1
 330 410 330 182 330 162 c 1
 380 162 460 112 490 112 c 3
 510 112 520 121 520 132 c 3
270 162 m 1
 270 182 270 347 270 367 c 1
 240 337 100 172 100 142 c 3
 100 131 110 122 130 122 c 3
 150 122 254 162 270 162 c 1
EndSplineSet
EndChar

StartChar: Aogonek
Encoding: 260 260 729
Width: 550
VWidth: 972
Flags: HMW
AnchorPoint: "bottom" 170 -270 basechar 0
AnchorPoint: "middle" 250 240 basechar 0
AnchorPoint: "top" 240 530 basechar 0
LayerCount: 2
Fore
SplineSet
480 -230 m 0
 460 -275 425 -310 380 -310 c 3
 335 -310 310 -275 310 -230 c 3
 310 -120 410 -20 480 30 c 1
 469 22 460 20 450 20 c 3
 394 20 354 122 340 170 c 0
 306 284 292 374 278 430 c 0
 273 450 263 490 230 490 c 3
 200 490 184 460 170 430 c 0
 114 310 70 60 70 30 c 1024
70 230 m 0
 140 220 240 210 480 210 c 1024
EndSplineSet
EndChar

StartChar: Threeroman
Encoding: 8546 8546 777
Width: 510
VWidth: 20
UnlinkRmOvrlpSave: 1
Flags: HMW
LayerCount: 2
Fore
SplineSet
240 510 m 3
 240 440 220 200 220 60 c 1024
380 50 m 0
 380 50 370 90 370 230 c 3
 370 300 380 470 380 510 c 1024
100 510 m 3
 100 480 80 290 80 50 c 1024
30 30 m 0
 80 40 220 50 300 50 c 3
 350 50 400 45 430 40 c 1024
30 520 m 3
 140 520 390 518 440 510 c 1024
EndSplineSet
EndChar

StartChar: Fiveroman
Encoding: 8548 8548 778
Width: 410
VWidth: 972
Flags: HMW
LayerCount: 2
Fore
SplineSet
320 490 m 1
 290 409 250 280 215 140 c 0
 205 100 190 70 160 70 c 1
 130 180 87 416 70 510 c 1033
30 30 m 0
 80 40 250 50 300 50 c 1024
30 520 m 3
 140 520 320 498 370 490 c 1024
EndSplineSet
EndChar

StartChar: Sixroman
Encoding: 8549 8549 779
Width: 580
VWidth: 972
Flags: HMW
LayerCount: 2
Fore
SplineSet
340 490 m 1
 290 380 244 240 220 160 c 0
 208 120 190 90 160 90 c 1
 130 200 105 401 90 510 c 1033
440 490 m 3
 440 460 420 230 420 60 c 1024
30 30 m 0
 105 45 300 50 470 50 c 1024
30 520 m 3
 230 520 410 506 510 490 c 1024
EndSplineSet
EndChar

StartChar: Sevenroman
Encoding: 8550 8550 780
Width: 690
VWidth: 972
Flags: HMW
LayerCount: 2
Fore
SplineSet
330 490 m 1
 280 380 234 240 210 160 c 0
 198 120 180 90 150 90 c 1
 120 200 95 401 80 510 c 1033
590 490 m 3
 590 420 570 230 570 90 c 1024
430 510 m 3
 430 480 410 320 410 80 c 1024
30 30 m 0
 230 70 470 80 610 80 c 1024
30 520 m 3
 430 520 550 506 650 490 c 1024
EndSplineSet
EndChar

StartChar: Eightroman
Encoding: 8551 8551 781
Width: 820
VWidth: 972
Flags: HMW
LayerCount: 2
Fore
SplineSet
320 490 m 1
 270 380 224 240 200 160 c 0
 188 120 170 90 140 90 c 1
 110 200 85 381 70 490 c 1033
560 500 m 3
 560 430 540 230 540 90 c 1024
710 80 m 0
 710 80 690 120 690 260 c 3
 690 330 700 450 700 490 c 1024
420 510 m 3
 420 480 400 320 400 80 c 1024
30 30 m 0
 230 70 440 80 580 80 c 3
 630 80 710 75 740 70 c 1024
30 520 m 3
 430 520 650 506 750 490 c 1024
EndSplineSet
EndChar

StartChar: Nineroman
Encoding: 8552 8552 782
Width: 660
VWidth: 972
Flags: HMW
LayerCount: 2
Fore
SplineSet
110 510 m 3
 110 480 90 275 90 35 c 1024
570 30 m 0
 510 15 450 10 350 10 c 3
 280 10 90 25 30 40 c 1024
30 520 m 3
 170 520 420 500 590 500 c 1024
520 500 m 1
 410 360 300 180 210 30 c 1024
210 505 m 0
 320 365 390 190 490 30 c 1024
EndSplineSet
EndChar

StartChar: Tenroman
Encoding: 8553 8553 783
Width: 530
VWidth: 892
Flags: HMW
LayerCount: 2
Fore
SplineSet
500 30 m 3
 438 30 360 10 260 10 c 3
 200 10 140 15 80 30 c 1024
500 520 m 3
 360 520 240 500 70 500 c 1024
430 500 m 1
 320 360 210 180 120 30 c 1024
120 490 m 0
 230 350 330 190 430 30 c 1024
EndSplineSet
EndChar

StartChar: Elevenroman
Encoding: 8554 8554 784
Width: 670
VWidth: 892
Flags: HMW
LayerCount: 2
Fore
SplineSet
590 30 m 0
 530 15 420 10 320 10 c 3
 250 10 140 15 80 30 c 1024
430 500 m 1
 320 360 210 180 120 30 c 1024
120 490 m 0
 230 350 300 190 400 30 c 1024
530 510 m 3
 530 480 510 290 510 50 c 1024
600 520 m 3
 400 520 170 506 70 490 c 1024
EndSplineSet
EndChar

StartChar: Fourroman
Encoding: 8547 8547 785
Width: 630
VWidth: 972
Flags: HMW
LayerCount: 2
Fore
SplineSet
190 500 m 1
 236 360 275 180 285 140 c 0
 295 100 315 70 345 70 c 3
 375 70 393 98 400 140 c 0
 420 260 442 420 450 500 c 1025
110 510 m 1
 96 440 90 310 90 40 c 1024
40 20 m 0
 115 35 330 50 470 50 c 1024
30 520 m 3
 300 520 460 506 560 490 c 1024
EndSplineSet
EndChar

StartChar: Twelveroman
Encoding: 8555 8555 786
Width: 820
VWidth: 892
Flags: HMW
LayerCount: 2
Fore
SplineSet
740 40 m 0
 680 25 420 10 320 10 c 3
 250 10 140 15 80 30 c 1024
430 500 m 1
 320 360 210 180 120 30 c 1024
120 490 m 0
 230 350 300 190 400 30 c 1024
530 510 m 3
 530 480 510 280 510 40 c 1024
690 510 m 3
 690 440 670 190 670 50 c 1024
750 520 m 3
 350 520 170 506 70 490 c 1024
EndSplineSet
EndChar

StartChar: bullet
Encoding: 8226 8226 795
Width: 480
VWidth: 972
Flags: HMW
LayerCount: 2
Fore
SplineSet
250 232 m 3
 304 232 320 202 320 172 c 3
 320 142 274 92 220 92 c 3
 190 92 160 122 160 152 c 3
 160 206 196 232 250 232 c 3
EndSplineSet
EndChar

StartChar: uni2023
Encoding: 8227 8227 800
Width: 480
VWidth: 972
Flags: HMW
LayerCount: 2
Fore
SplineSet
168 292 m 3
 196 292 241 261 278 232 c 0
 311 206 340 182 340 172 c 3
 340 162 297 135 268 102 c 0
 240 70 224 32 198 32 c 3
 184 32 171 133 158 202 c 0
 152 232 140 257 140 263 c 3
 140 283 148 292 168 292 c 3
EndSplineSet
EndChar

StartChar: perthousand
Encoding: 8240 8240 801
Width: 1000
VWidth: 972
Flags: HMW
LayerCount: 2
Fore
SplineSet
830 62 m 3
 860 62 900 80 900 110 c 3
 900 140 850 172 820 172 c 3
 798 172 780 154 780 132 c 3
 780 113 782 108 785 102 c 1
 785 80 808 62 830 62 c 3
720 132 m 3
 720 144 721 158 724 165 c 1
 704 163 666 158 646 156 c 1
 655 143 660 135 660 122 c 3
 660 82 634 55 594 37 c 0
 558 20 504 12 460 12 c 3
 406 12 366 52 366 106 c 3
 366 178 410 214 470 238 c 0
 475 240 484 242 490 242 c 3
 510 242 520 232 520 212 c 3
 520 198 510 190 490 182 c 0
 450 166 426 146 426 106 c 3
 426 86 440 72 460 72 c 3
 500 72 543 79 570 91 c 0
 589 99 600 108 600 122 c 3
 600 132 577 137 559 147 c 0
 533 162 530 169 530 182 c 3
 530 202 540 212 560 212 c 3
 580 212 800 232 820 232 c 3
 882 232 960 172 960 110 c 3
 960 46 894 2 830 2 c 3
 776 2 725 48 725 102 c 1
 722 110 720 112 720 132 c 3
180 -28 m 3
 160 -28 150 -18 150 2 c 3
 150 10 152 16 164 36 c 0
 200 96 314 286 344 336 c 0
 374 386 419 456 467 528 c 0
 483 552 492 558 500 558 c 3
 520 558 530 548 530 528 c 3
 530 520 527 512 515 494 c 0
 483 446 438 377 393 302 c 0
 363 252 249 62 213 2 c 0
 201 -18 194 -28 180 -28 c 3
210 430 m 3
 210 459 183 498 150 498 c 3
 120 498 100 470 100 430 c 3
 100 407 132 390 150 390 c 3
 181 390 210 398 210 430 c 3
150 558 m 3
 212 558 270 498 270 430 c 3
 270 378 238 330 150 330 c 3
 89 330 40 381 40 430 c 3
 40 502 82 558 150 558 c 3
EndSplineSet
EndChar

